<?xml version="1.0" standalone="no"?>
<!DOCTYPE svg PUBLIC "-//W3C//DTD SVG 1.1//EN" "http://www.w3.org/Graphics/SVG/1.1/DTD/svg11.dtd" >
<svg xmlns="http://www.w3.org/2000/svg">
<metadata></metadata>
<defs>
<font id="tagettesregular" horiz-adv-x="819" >
<font-face units-per-em="2048" ascent="1638" descent="-410" />
<missing-glyph horiz-adv-x="760" />
<glyph horiz-adv-x="2048" />
<glyph horiz-adv-x="2048" />
<glyph unicode="&#xd;" horiz-adv-x="768" />
<glyph unicode=" "  horiz-adv-x="760" />
<glyph unicode="&#x09;" horiz-adv-x="760" />
<glyph unicode="&#xa0;" horiz-adv-x="760" />
<glyph unicode="!" horiz-adv-x="865" d="M184 129q0 118 123 118q120 0 126 -116q-6 -131 -121 -131q-128 0 -128 129zM426 571q19 77 114 281.5t242 405.5t295.5 353.5t238.5 227.5t161.5 115t158.5 41q70 -16 83 -98q-13 -76 -59.5 -111.5t-116 -55.5t-148.5 -47t-236 -161.5t-283.5 -304t-222.5 -349 t-121 -253t-48.5 -75.5t-57.5 31z" />
<glyph unicode="&#x22;" horiz-adv-x="1278" d="M894 1553q0 5 1 10q10 54 56 39.5t104 24.5t88 151q-58 -10 -88 23t-29.5 85t34.5 89q30 32 77 32h11q69 -10 96 -54t18 -133q-22 -103 -72.5 -177t-118.5 -112q-57 -31 -104 -31q-10 0 -20 1q-53 8 -53 52zM1232 1563q10 54 56 39.5t104 24.5t89 150q-59 -9 -88.5 24 t-29 85t34.5 89q31 32 77 32h11q69 -10 97 -54q20 -33 20 -89q0 -21 -3 -44q-22 -103 -72.5 -177t-118.5 -112q-57 -31 -104 -31q-10 0 -20 1q-59 9 -53 62z" />
<glyph unicode="#" horiz-adv-x="503" d="M-1310 -1083q20 85 96 111.5t195 21.5t280.5 59t328 289t334.5 609.5t318 650t356.5 564t365 461t254.5 242.5t172 122.5t169 43.5q75 -17 88 -104q-13 -81 -63.5 -119t-124 -59.5t-157.5 -50t-251 -172t-318.5 -344t-325.5 -533.5q-339 -642 -500.5 -993t-313.5 -519.5 t-329.5 -275t-392.5 -122.5q-176 21 -181 118z" />
<glyph unicode="$" horiz-adv-x="2813" d="M224 304q0 162 77.5 304.5t200 223.5t284.5 111.5t313 19.5t302 -67l279 413q-90 174 -129 310.5t-30.5 256.5t70 245.5t170 204.5t218 102t202 7t220.5 -80l172 244l90 -16l-184 -284q68 -75 95 -144t27 -192q-11 -145 -78 -243t-156.5 -128.5t-173.5 -15t-133 118.5 l-202 -291q252 -469 310.5 -619.5t53 -323.5t-72.5 -304.5t-195.5 -229t-287.5 -159t-317 -78t-291.5 -13.5t-326.5 38l-254 -404h-182l304 449q-104 42 -188 109.5t-135.5 170t-51.5 264.5zM345.5 293.5q0.5 -150.5 88.5 -265.5t235 -156l665 929q-195 76 -399 60.5 t-330 -91.5t-193 -201t-66.5 -275.5zM798 -175q235 -51 444 -28.5t390.5 86.5t282 175.5t125.5 271t-33.5 343.5t-265.5 541l-244 -362q138 -67 191.5 -170t54 -203.5t-45 -190.5t-118 -137.5t-111.5 -50t-36.5 31t39 55.5t93 77.5t67.5 157t-33.5 186t-161.5 150.5z M1688 1792.5q14 -125.5 120 -298.5l520 742q-101 73 -184.5 81.5t-164.5 -10.5t-154 -84t-112 -185t-25 -245.5zM2129.5 1719.5q19.5 -47.5 92 -58.5t125.5 33.5t86.5 106t31 189t-75.5 190.5l-251 -374q-28 -39 -8.5 -86.5z" />
<glyph unicode="%" horiz-adv-x="2702" d="M201 -243l768 1070l1010 1411l346 479l105 -2l-1185 -1705l-867 -1247zM519 1848q1 70 19 142t71 170.5t113.5 172t125 132t125.5 91.5t125.5 56t115.5 23q100 0 162.5 -31.5t91 -88t29.5 -139.5q-1 -101 -9.5 -150.5t-37.5 -126t-84 -172t-131 -183t-172.5 -155.5 t-157.5 -84t-122 -18q-82 6 -129.5 40t-77 81.5t-43 106t-14.5 133.5zM637.5 1883q-2.5 -76 21 -131.5t68.5 -85t102.5 -32.5t115.5 20.5t131.5 82t135 133.5t114.5 174.5t73.5 201.5t-0.5 175t-58.5 104.5t-91.5 38.5t-128 -17t-157 -92t-170 -181t-120.5 -214t-36 -177z M1412 362q2 70 20 142.5t70.5 171t113 172t125.5 131.5t125.5 91.5t125 56.5t116.5 23q100 0 162 -31.5t90.5 -88t29.5 -139.5q-1 -101 -9 -151t-37.5 -126t-84.5 -172t-131 -183t-172.5 -155t-157 -84t-122.5 -19q-81 7 -128.5 41t-77.5 81.5t-43.5 105.5t-14.5 133z M1530.5 398q-2.5 -76 21.5 -132t69 -85t102 -32.5t115.5 20.5t131.5 82.5t134.5 133.5t115 174.5t73.5 201.5t-1 174.5t-58 104.5t-92 39q-54 7 -127.5 -17t-157 -92t-170.5 -181.5t-120.5 -214t-36 -176.5z" />
<glyph unicode="&#x26;" horiz-adv-x="2815" d="M613 521q0 129 35.5 246.5t114.5 233t182.5 159t210 20t140 -54.5t78 -26t96.5 33t88 61q-100 97 -122.5 207t-8.5 212.5t64.5 193t134.5 148.5q-106 78 -209.5 107t-222 14.5t-196.5 -71t-111.5 -165.5t3 -213t115.5 -140.5t147 -9.5t79.5 96.5t-41 41.5t-94.5 18 t-24 106t70.5 70.5t96.5 -3.5t70 -56.5t28.5 -81.5t-11.5 -112t-53 -121t-103.5 -62t-146 0t-143.5 81.5t-87 163t-8.5 193.5t64.5 171t130 124.5t177 70.5t176 16t151.5 -27t132 -56.5t127.5 -82.5q92 50 176 59t165.5 6t188 -36.5t197 -108.5t149.5 -196q100 14 195 99 t117 190.5t-20 184.5t-92.5 80.5t-78 -20t23 -42.5t35.5 -87t-74.5 -84t-101.5 8t-47.5 82t14 104t70.5 86.5t153 38.5q94 0 161 -85.5t67 -208.5q0 -100 -45.5 -194.5t-141.5 -173t-193 -96.5q52 -238 26 -445t-105 -371.5t-219.5 -336t-337 -300.5t-382 -186t-370.5 -57 q-218 0 -363 74.5t-221 219.5t-76 291zM736.5 641q-22.5 -63 10.5 -211t130.5 -242t250.5 -116t364 8.5t455.5 184.5t384 356t197 402t46.5 385t-46 193q-125 -11 -182.5 2t-75 -16t-4.5 -109t-30.5 -171t-145 -157t-221.5 -68.5t-212 40.5q-75 -69 -151.5 -101.5 t-125 -33.5t-82.5 -53t-115 -93.5t-188 -57t-172 -47.5t-87.5 -95zM833 874q304 44 351 128q-57 53 -123.5 55t-120.5 -34.5t-107 -148.5zM1539 1616q-15 -73 6 -160.5t102 -167.5q57 55 101.5 153t40.5 211t-80 220q-72 -42 -113.5 -112.5t-56.5 -143.5zM1751 1229 q72 -28 162.5 -13t147.5 62.5t73 114.5t4 139.5t-41 91.5t-58 8.5t-32.5 -35.5t33.5 -39t36 -64t-27.5 -76.5t-68 -25.5t-65 29t-21.5 100q-15 -84 -54 -156.5t-89 -135.5zM1821 1933q41 -44 67 -129t21 -187q2 30 35 73t98.5 70t152 0.5t163.5 -29.5t127 1 q-17 62 -103.5 130.5t-191.5 94.5t-202 22t-167 -46z" />
<glyph unicode="'" horiz-adv-x="1054" d="M551 1166q5 79 32 85t34.5 -43.5t64.5 -58t112.5 38.5t92.5 181q-78 -21 -117.5 9t-48 86t24 100t95.5 49q81 -5 120 -45.5t43 -136.5q-9 -112 -54.5 -194.5t-117 -138.5t-135.5 -56q-63 0 -102 32t-44 92z" />
<glyph unicode="(" horiz-adv-x="1002" d="M334 191q0 149 50 381t227.5 577.5t428 650t541 523.5t485.5 297.5t292 78.5q85 0 149.5 -15t130.5 -49q61 -34 69 -68l-19 -26q-34 -6 -106.5 25.5t-193.5 31.5t-289 -75t-456.5 -301.5t-621.5 -675.5t-439 -864t-75 -703.5t150 -387.5t260.5 -78.5t141.5 -45.5 t-75.5 -81.5t-151.5 -15.5q-85 0 -204 57t-185.5 179.5t-87.5 281.5t-21 303z" />
<glyph unicode=")" horiz-adv-x="1701" d="M-923 -497l20 25q34 6 121 -27.5t252 -31.5t391.5 89.5t473 311.5t564 663t424 854t75 703.5t-150.5 387.5t-260.5 78.5t-141 45.5t75.5 81.5t151 15.5q85 0 204 -57t186 -179t87.5 -281.5t20.5 -304.5q0 -149 -50 -380.5t-227 -577t-429.5 -670.5t-498.5 -520 t-454.5 -273t-443.5 -85q-126 0 -190.5 14.5t-130.5 48.5q-61 34 -69 69z" />
<glyph unicode="*" horiz-adv-x="1435" d="M190 2034q8 17 15 37t29 25t39.5 -7t58.5 -19q130 -11 325 -11l-1 -33q-207 0 -324 -23q-40 -5 -54 -17t-40.5 -10t-33 21t-14.5 37zM332.5 2375q9.5 20 14.5 38q19 6 36.5 14t38.5 -8.5t22.5 -36t25.5 -49.5q67 -99 213 -245l-21 -26q-139 138 -238 223 q-36 24 -56.5 28.5t-32.5 23t-2.5 38.5zM334 1705q-10 20 3 38.5t34 23t54 28.5q99 85 239 223l20 -26q-145 -146 -211 -245q-24 -30 -26.5 -49.5t-22.5 -36t-38 -8.5t-36 14q-6 18 -16 38zM465 1962q0 11 5.5 21.5t15.5 16t21 5.5t21.5 -5.5t16 -16t5.5 -21.5 q0 -12 -5.5 -21.5t-16 -15t-21.5 -5.5t-21 5.5t-15.5 15t-5.5 21.5zM468 2128q0 11 6 21.5t16 16t22 5.5q9 0 19.5 -5.5t16 -16t5.5 -21.5t-5.5 -21.5t-15 -16t-20.5 -5.5q-12 0 -22 5.5t-16 16t-6 21.5zM584 2250q0 11 5.5 21.5t15 16t20.5 5.5t21.5 -5.5t16 -16t5.5 -21.5 q0 -12 -5.5 -21.5t-16 -15t-21.5 -5.5t-20.5 5.5t-15 15t-5.5 21.5zM592 1835q0 11 5.5 21.5t16 16t19.5 5.5q11 0 21.5 -5.5t16 -16t5.5 -21.5t-5.5 -20.5t-16 -15t-21.5 -5.5t-20.5 5.5t-15 15t-5.5 20.5zM644.5 1573.5q-1.5 26.5 10.5 41t17 54.5q22 117 22 323l34 2 q0 -196 11 -325q6 -42 18 -59.5t7.5 -40t-25.5 -29.5t-37 -15q-18 8 -37 15t-20.5 33.5zM654 2514.5q5 21.5 25.5 28.5t36.5 17q18 -10 37 -16t21 -32.5t-10 -42t-17 -53.5q-23 -117 -23 -323l-33 -3q0 196 -11 326q-7 42 -19 59.5t-7 39zM667 2042q0 11 5.5 20.5t16 15 t19.5 5.5q12 0 22 -5.5t16 -15t6 -20.5q0 -12 -6 -22t-16 -16t-22 -6q-11 0 -20.5 6t-15 16t-5.5 22zM732 2090q146 145 212 244q24 32 26 50.5t22 36t38.5 9t36.5 -15.5q6 -17 15.5 -37t-3 -38.5t-33.5 -22.5t-54 -30q-100 -83 -239 -220zM736 1998l22 26 q138 -138 237 -222q35 -24 56 -29t33 -23.5t3 -37.5t-15 -38q-20 -7 -37.5 -15t-37.5 9t-22.5 36t-26.5 50q-65 99 -212 244zM750 2251q0 11 5.5 21t15 15.5t21.5 5.5q11 0 21.5 -5.5t16 -15.5t5.5 -21t-5.5 -21.5t-16 -16t-21.5 -5.5q-12 0 -21.5 5.5t-15 16t-5.5 21.5z M753 1835q0 11 5.5 21.5t16 16t21.5 5.5q10 0 20.5 -5.5t16 -16t5.5 -21.5t-5.5 -20.5t-15 -15t-21.5 -5.5q-11 0 -21.5 5.5t-16 15t-5.5 20.5zM756 2062q196 2 325 12q42 8 59.5 20t40 7t29.5 -26t15 -37q-8 -17 -15 -36.5t-33.5 -21t-41 10t-54.5 17.5q-117 22 -323 22z M880 1958q0 12 5.5 21.5t16 15t21.5 5.5q9 0 19.5 -5.5t16 -15t5.5 -21.5q0 -11 -5.5 -21.5t-15 -16t-20.5 -5.5t-21.5 5.5t-16 16t-5.5 21.5zM880 2128q0 11 5.5 21.5t16 16t21.5 5.5q9 0 19.5 -5.5t16 -16t5.5 -21.5t-5.5 -21.5t-15 -16t-20.5 -5.5t-21.5 5.5t-16 16 t-5.5 21.5z" />
<glyph unicode="+" horiz-adv-x="1692" d="M346 510q8 26 15 60t29.5 42t40 -11.5t59.5 -32.5q129 -16 325 -19l-2 -52q-206 0 -323 -35q-40 -10 -54.5 -28.5t-41 -16t-33.5 34t-15 58.5zM771 44.5q-8 22.5 11.5 40t32.5 59.5q16 129 19 325l52 -2q0 -206 35 -323q10 -40 28.5 -54.5t16 -41t-34 -33.5t-58.5 -15 q-26 8 -60 15t-42 29.5zM771 989.5q8 22.5 42 29.5t60 15q27 -8 58.5 -15t34 -33.5t-16 -41t-28.5 -54.5q-35 -117 -35 -323l-52 -2q-3 196 -19 325q-13 42 -32.5 59.5t-11.5 40zM912 548q196 4 325 20q42 13 59.5 32t40 11t29.5 -42t15 -59q-8 -28 -15 -59.5t-33.5 -34 t-41 16t-54.5 28.5q-117 36 -323 36z" />
<glyph unicode="," horiz-adv-x="662" d="M58 -318q7 26 57.5 42.5t126.5 88.5t90 194q-56 -10 -92.5 27.5t-38 98.5t37 100.5t107.5 41.5q140 -11 149 -164q-4 -102 -34.5 -178t-76.5 -136.5t-123 -111.5t-156 -53q-43 3 -47 50z" />
<glyph unicode="-" horiz-adv-x="1540" d="M276 649q1 21 16.5 32t79.5 2t161.5 1.5t236.5 39t234 28.5l45 -1q109 -8 202 -35q86 -31 128 -69q20 -21 20 -35q0 -12 -17 -17q-41 -12 -82 1.5t-110 16.5t-146.5 -11t-172.5 -37.5t-146.5 -24.5t-54.5 -1q-118 0 -214.5 24.5t-137.5 44t-42 41.5z" />
<glyph unicode="." horiz-adv-x="742" d="M312 141q0 128 134 128q131 0 137 -126q-6 -143 -132 -143q-139 0 -139 141z" />
<glyph unicode="/" horiz-adv-x="1166" d="M92 -5l571 918l750 1201l245 429l104 -13l-876 -1451l-646 -1103z" />
<glyph unicode="0" horiz-adv-x="1460" d="M200 513q2 101 28 205t102 246t163 248t180.5 190t181 132t180.5 81t167 33q144 0 234 -45.5t131 -126.5t42 -201q-1 -146 -13 -217.5t-54 -181.5t-121.5 -248t-189 -263.5t-248.5 -223.5t-226.5 -121.5t-176.5 -26.5q-117 9 -185.5 58t-111.5 117.5t-62.5 152.5 t-20.5 192zM346.5 547.5q-3.5 -114.5 32 -198t103 -127.5t153.5 -49t173.5 30.5t197.5 123.5t202 200.5t172 262t110.5 303t-1 262.5t-87.5 156.5t-138 57.5q-81 11 -191.5 -25t-235.5 -138t-255.5 -272t-181 -321t-54 -265.5z" />
<glyph unicode="1" horiz-adv-x="949" d="M243 878v3q484 393 729.5 580t314.5 213v-5q0 -81 -84 -254q-86 -177 -362.5 -564.5t-337.5 -570.5t-16 -188t91 4t41 -43.5t-111 -56.5q-115 4 -173 73q-53 107 -2.5 241t320 486t493.5 714l-408 -322l-428 -342q-65 -14 -67 32z" />
<glyph unicode="2" horiz-adv-x="1565" d="M111 114q0 54 45 93t149.5 45.5t229.5 -54.5q97 61 186 106t265 166t329 283t178.5 340t-42.5 300t-214.5 161t-323.5 -48t-256.5 -226t-65 -241.5t79 -128.5t156.5 -6.5t129 137.5q53 -2 25.5 -92t-114.5 -145t-203 -41t-168 98.5t-43 200.5t106 259t244.5 235t337.5 94 q132 -1 243.5 -56.5t169.5 -170.5t58 -230q0 -24 -10.5 -115.5t-94 -246.5t-341.5 -354t-520 -326q61 -30 154 -46.5t184 -17.5t184.5 30t205 78.5t154.5 20.5t46 -95q0 -41 -19.5 -78t-102 -41.5t-419.5 -13.5q-280 4 -498 99q-117 -57 -175 -73t-119 -13t-93.5 34 t-36.5 79zM204.5 118q-8.5 -29 44.5 -25t161 47q-50 29 -123.5 18t-82 -40z" />
<glyph unicode="3" horiz-adv-x="1426" d="M108 328q0 56 40 134.5t116 109.5t142.5 22.5t118 -54t47.5 -108.5t-52 -103.5t-81 -30t20 52.5t43 79t-37.5 53.5t-74.5 21.5t-93 -34t-53 -114t32.5 -164t154.5 -137t272.5 -52t310.5 88t229 210.5t78 257.5t-77.5 239t-213.5 121.5t-304 -53.5q-45 49 -37.5 85.5 t219.5 162t533 334.5q-69 54 -141 59.5t-181 -61t-216.5 -35.5t-186.5 10t-132 -8.5t-65 63t23 105t154 60.5q121 -11 234.5 -72.5t223 -0.5t180.5 44.5t187 -83.5q95 56 133 72t99.5 12t93.5 -35.5t35 -79.5q-1 -54 -46 -92t-118 -44t-172 45q-104 -78 -216.5 -140 t-396.5 -240q171 5 291 -76.5t163 -216.5t20 -258.5t-71.5 -202.5t-121 -149t-196 -139t-265.5 -73q-115 1 -216 18.5t-199 66t-145 106t-66 108t-19 116.5zM1635 1469q60 -22 102.5 -12t51 39.5t-45 26t-108.5 -53.5z" />
<glyph unicode="4" horiz-adv-x="1520" d="M155 673q0 52 43.5 90t145 44.5t165.5 -24.5q147 73 271.5 159.5t257 220t208.5 255t82 269.5q4 82 77 88q0 -23 0.5 -126.5t-82 -261t-315.5 -378.5t-373 -282q99 -46 179.5 -64.5t125.5 -18.5q126 172 239 302t185.5 203t159.5 68q-278 -276 -447 -586 q84 -7 161.5 16.5t165.5 86t128 37.5t42 -90q0 -41 -26 -83t-162.5 -70t-360.5 -10q-48 -78 -108 -251t-17 -178t86 4t38.5 -41t-105.5 -53q-109 2 -164 69q-49 101 -1.5 228t128.5 248q-211 42 -340 115q-89 -67 -145 -82.5t-116 -13t-91 33t-35 76.5zM231 679.5 q7 -30.5 58.5 -26.5t125.5 50q-77 28 -134 17.5t-50 -41z" />
<glyph unicode="5" horiz-adv-x="1328" d="M99 353q0 57 25 123t86.5 104.5t139 41.5t135 -35t61.5 -100.5t-38 -109.5t-76 -41t13 55t32 84.5t-44 48.5t-76.5 11.5t-83 -48t-38 -111t48.5 -156.5t171.5 -125t277 -16.5t267.5 133t132.5 309.5t-50.5 286.5t-225.5 105.5t-349.5 -100q-52 16 -70 38.5t15 75.5 t132.5 147t177 194.5t131.5 225t104 137.5q42 -1 99 -24t187.5 -18t207 29.5t148.5 24.5q86 -5 117 -35t31 -72q-2 -68 -54 -101.5t-145 14t-226.5 39.5t-227 -6.5t-129.5 -52.5t-125 -173t-231 -253q249 71 419.5 -25.5t194 -287.5t-40.5 -317t-135 -200.5t-182 -127 t-264 -58.5q-167 2 -270.5 37.5t-168 100.5t-84 131.5t-19.5 96.5z" />
<glyph unicode="6" horiz-adv-x="1184" d="M179 328q0 108 62.5 261t215 405.5t355 476.5t376 329.5t322.5 151.5t240.5 59t177.5 27t157 14q87 -6 118 -36t31 -72q-2 -68 -55.5 -92t-159.5 18.5t-289.5 22t-381.5 -115t-358 -269t-271.5 -328.5t-249.5 -365q172 145 263 178t175.5 35.5t138.5 -36t82.5 -95.5 t29.5 -149.5t-46.5 -197t-129 -213t-150 -174.5t-160.5 -114.5t-201 -49.5q-125 3 -181.5 47.5t-83.5 123.5t-27 158zM299.5 271q15.5 -91 80.5 -137t162 -35t212 113t192 243q78 141 77.5 254.5t-66 160t-161 25.5t-183 -84.5t-174.5 -160t-121 -192.5t-18.5 -187z" />
<glyph unicode="7" horiz-adv-x="1232" d="M326 -83q3 179 81 392q80 219 245.5 441.5t309.5 364t415 358.5q-70 54 -142 58.5t-180 -63t-216 -38t-187 7.5t-132 -10t-65.5 63t22 105.5t152.5 60.5q122 -8 236 -69t222.5 1.5t180 47t188.5 -80.5q94 56 132 72.5t99.5 13t93.5 -34.5t36 -79q0 -53 -45 -92 t-117.5 -46t-172.5 43q-70 -46 -172.5 -122.5t-311 -287.5t-355 -497.5t-166.5 -506t31.5 -382t149.5 -198.5t162 -19.5t93 55t18.5 86t-33 84.5t-74 17.5t-53.5 -111.5q-53 1 -53.5 60t48.5 101.5t125 33.5t114 -80t24 -127t-44.5 -100t-83.5 -73.5t-151 -32.5 q-137 1 -224.5 65.5t-140.5 192.5t-59 326zM1570 1495q61 -21 103 -10.5t50.5 40t-44.5 25.5t-109 -55z" />
<glyph unicode="8" horiz-adv-x="1310" d="M133 399q0 63 24 144q28 97 93 181t192 154t286 119q-64 74 -95.5 130t-35.5 145.5t41.5 169t153.5 137t263 66.5h15q113 0 205 -60q98 -66 129 -194q2 -19 2 -37q0 -95 -43 -165q-50 -85 -130 -130t-256 -76q104 -111 148 -196.5t53.5 -179.5t-18 -207t-107.5 -206 t-178 -148t-232 -65q-23 -2 -46 -2q-96 0 -182 33q-106 40 -189 136.5t-92 225.5q-1 12 -1 25zM269.5 461.5q-1.5 -108.5 45 -184.5t139 -127t208 -58t212.5 42.5t155.5 152t29 241t-103.5 231t-168 174.5q-197 -48 -303 -124t-159.5 -157.5t-55 -190zM752 1426 q-50 -79 9.5 -181t174.5 -201q135 25 200.5 63t93.5 108t21 136.5t-75.5 129t-139 72t-152.5 -19t-132 -107.5z" />
<glyph unicode="9" horiz-adv-x="1220" d="M-683 -289q3 68 56.5 92.5t159 -18.5t289 -22.5t381.5 115.5t358 269t267.5 318.5t219.5 323.5q-138 -95 -229 -127.5t-176 -35t-138.5 36t-82 95.5t-29.5 149.5t46.5 197t129 213t149.5 174.5t160 115t201 50q126 -4 184.5 -56.5t83.5 -123.5t25 -150q0 -108 -63 -261 t-211.5 -407.5t-354.5 -476t-380 -327.5t-322 -151.5t-239.5 -58t-177.5 -27t-158 -14.5q-86 6 -117.5 36t-31.5 71zM526.5 945.5q0.5 -113.5 66.5 -160t161 -25.5t215.5 102.5t197.5 216.5t77 254t-69.5 176.5t-166 46.5t-211.5 -113.5t-193 -243.5q-78 -140 -77.5 -253.5z " />
<glyph unicode=":" horiz-adv-x="815" d="M146 131q0 118 123 118q120 0 126 -116q-6 -131 -121 -131q-128 0 -128 129zM309 681q0 118 123 118q120 0 126 -116q-6 -131 -121 -131q-128 0 -128 129z" />
<glyph unicode=";" horiz-adv-x="799" d="M58 -318q7 26 57.5 42.5t126.5 88.5t90 194q-56 -10 -92.5 27.5t-38 98.5t37 100.5t107.5 41.5q140 -11 149 -164q-4 -102 -34.5 -178t-76.5 -136.5t-123 -111.5t-156 -53q-43 3 -47 50zM375 679q0 118 123 118q120 0 126 -116q-6 -131 -122 -131q-127 0 -127 129z" />
<glyph unicode="&#x3c;" horiz-adv-x="1942" d="M219 841q0 56 97 103t225 37t271 -176q143 54 243.5 129t180 168t147 143t158.5 53q139 -1 151 -83q-3 -69 -48.5 -95.5t-103.5 -5.5t-123 -13.5t-159.5 -140t-386.5 -238.5q83 -139 170 -241t196 -149.5t177 -56.5t155.5 -2.5t98.5 -53.5q0 -50 -55.5 -89.5 t-180.5 -39.5q-132 20 -294.5 138t-239 210.5t-162.5 209.5q-127 -68 -225.5 -64.5t-175 68t-96.5 117.5t-20 72zM350 777.5q39 -43.5 78.5 -66t102 -17t118.5 44.5q-71 82 -157 96.5t-133.5 0t-8.5 -58z" />
<glyph unicode="=" horiz-adv-x="1626" d="M328 463q1 17 13 26t60 2t122 1.5t180 32t177 23.5l34 -1q83 -7 154 -29q65 -25 96 -56q16 -17 16 -28q0 -10 -14 -14q-30 -10 -61 1t-84 13.5t-111.5 -9t-130.5 -30.5t-111 -19.5t-41 -0.5q-90 0 -163 19.5t-104 35t-32 33.5zM346 696q1 17 13 26t60 2t122.5 1.5 t179.5 31.5t177 23l34 -1q83 -7 153 -28q66 -25 98 -57q15 -17 15 -27t-13 -15q-31 -10 -62 1.5t-83.5 13.5t-111.5 -9.5t-131 -30.5t-111 -19.5t-41 -0.5q-89 0 -162 19.5t-104.5 35.5t-32.5 34z" />
<glyph unicode="&#x3e;" horiz-adv-x="1942" d="M219 173q3 69 48.5 95.5t103.5 5.5t123 13.5t159.5 140t386.5 238.5q-83 139 -170 241t-196 149.5t-177 56.5t-155.5 2.5t-98.5 53.5q0 50 55.5 89.5t180.5 39.5q132 -20 294.5 -138t239 -210.5t162.5 -209.5q127 68 225.5 64.5t175 -68t96.5 -117.5t20 -72 q0 -56 -97 -103t-225 -37t-271 176q-143 -54 -243.5 -129t-180 -168t-147 -143t-158.5 -53q-139 1 -151 83zM1262 649q71 -82 157 -96.5t133.5 0t8.5 58t-78.5 66t-102 17t-118.5 -44.5z" />
<glyph unicode="?" horiz-adv-x="1167" d="M460 127q0 118 123 118q120 0 126 -116q-6 -131 -121 -131q-128 0 -128 129zM612.5 774q-1.5 60 27 132.5t116.5 147.5t319 168.5t356.5 197.5t147 266t-66 206.5t-191 34.5t-134 -84t0.5 -117.5t62.5 -21t82 16.5t72.5 -54t-15.5 -96t-92.5 -59t-114 1t-111.5 82.5 t-44.5 150t51.5 138t104.5 92.5t159 34q79 0 122 -6t114.5 -40.5t118.5 -103.5q43 -65 43 -159q-11 -96 -66.5 -202t-195 -205t-393.5 -206t-315.5 -218.5t-19.5 -169.5t108.5 -47.5t90.5 86.5q65 -7 62.5 -50t-34.5 -76t-80.5 -48t-94 -7.5t-91.5 37.5t-71.5 74.5 t-27 104.5z" />
<glyph unicode="@" horiz-adv-x="2605" d="M433 682q0 154 46 297t165 289.5t319.5 240t481.5 93.5q223 -3 405 -88.5t279.5 -240.5t97.5 -364q0 -194 -74.5 -361.5t-222.5 -270t-356 -131t-379.5 17t-274.5 158.5t-121 241t15.5 243t107 203t190.5 153t259 70l59 5q78 58 123 69.5t93 -17t55 -128.5 q95 -43 144 -121t64 -180.5t-8.5 -178t-65 -125.5t-90 -68t-117.5 -14q-150 2 -166 154q-127 -150 -199.5 -150.5t-112.5 39.5t-40 126q1 89 69.5 248t184.5 272q-161 0 -280.5 -95.5t-167.5 -213t-31 -257.5t117.5 -235.5t275.5 -131.5t377.5 5.5t344 217t143.5 434 t-139.5 412.5t-361 199.5t-421.5 12t-361 -154.5t-234.5 -281.5t-83.5 -341t77 -361.5t230.5 -282.5t338.5 -143t330.5 -27t222 58t113.5 47.5q6 -43 -106.5 -111t-302.5 -68q-232 0 -425 54.5t-326 178.5t-197 277t-64 326zM1244.5 738.5q-59.5 -153.5 2.5 -161t144.5 99 t152.5 280t8.5 193t-155.5 -119.5q-93 -138 -152.5 -291.5zM1559 700.5q-6 -96.5 52 -122t114.5 -10t95 92t24 177t-53 163t-97.5 88.5q-129 -292 -135 -388.5z" />
<glyph unicode="A" horiz-adv-x="3198" d="M328 14q0 104 55 190t127 122q62 31 128 31q11 0 22 -1q78 -6 126 -52t52 -106q0 -8 1 -15q0 -52 -25 -103q-28 -58 -110 -70q-18 -2 -34 -2q-59 0 -98 32q-50 42 -52 98v6q0 51 32 72q34 22 22 38q-4 5 -11 5q-15 1 -47 -25q-46 -36 -80 -126q-14 -36 -14 -76 q0 -56 28 -120q48 -108 228 -134q65 -10 136 -10q123 0 262 30q218 46 528 197t664 549t544 660t440 538t470 468t552 316q-30 26 -224 26h-28q-220 -2 -558 -56t-662 -144t-642 -258t-548 -346t-385 -376t-216 -426q-26 -96 -26 -183q0 -121 49 -227q84 -182 378 -192 q16 -1 31 -1q275 0 481 169q218 178 286 324t76 244t34 102h2q24 0 26 -88v-11q0 -89 -30 -223q-32 -142 -226 -336t-436 -244q-155 -32 -281 -32q-70 0 -131 10q-170 28 -306 176q-132 143 -132 383v15q4 250 194 523.5t510 502t624 362.5t660 236t691.5 135t596.5 33 q192 -6 270 -28t114 -62q-8 -36 -60 -52t-132 -44t-240 -120t-340 -286t-346 -448t-250 -440t-160 -340t-150 -296t-180 -298.5t-246 -237.5q344 79 461.5 148t214.5 168q98 98 152 176q39 56 65 56q11 0 19 -8q9 -9 9 -25q0 -33 -47 -99q-68 -94 -163 -186.5t-229 -167.5 t-307.5 -102.5t-249.5 -41.5t-148 -43q-35 -14 -64 -14q-31 -1 -53 15q-22 15 -22 35q0 19 22 40q44 44 132 52t202 93.5t228 295.5t234 430l-197 8q-371 -428 -571 -617t-532 -345t-696 -171q-272 3 -382 109.5t-112 235.5zM2686 910l192 -8q72 196 172 372t228 372 q-156 -156 -276 -324t-316 -412z" />
<glyph unicode="B" horiz-adv-x="3078" d="M155 -164l34 44q52 -3 97 -3q90 0 151 11q92 16 189 22q36 2 80 2q73 0 165 -6q16 -1 32 -1q133 -1 276 73q160 82 309 214.5t302.5 357t395 693.5t413.5 682.5t318.5 346.5t246.5 176q-84 72 -273 93q-67 7 -141 7q-134 0 -291 -24q-243 -38 -592 -244t-556 -417.5 t-322.5 -377t-193.5 -346.5q-65 -152 -65 -328q0 -34 2 -68q16 -215 170 -304q107 -61 222 -62q52 0 106 13q174 40 294 142q122 102 178 278q37 114 36 201q0 47 -10 85q-30 110 -93.5 176.5t-158.5 66.5t-171 -73q-77 -72 -127 -124q-33 -34 -49 -34q-9 0 -13 10 q-3 6 -3 15q-1 28 31 77q40 64 118 127q76 63 150 81q31 8 68 8q50 0 106 -14q100 -25 164 -117.5t78 -266.5q2 -22 2 -45q0 -153 -86 -317q-99 -188 -238 -276q-138 -90 -292 -112q-69 -10 -133 -10q-79 0 -151 16q-130 28 -211 102t-127 224q-33 109 -32 228q0 46 4 93 q18 171 112.5 357t229 358t426.5 416t642.5 402t785.5 178q248 -4 358 -46t156 -103q82 25 155 25q21 0 41 -2l8 -39q-67 -3 -161 -46q39 -61 63 -153q14 -52 14 -106q0 -40 -8 -82q-18 -98 -99 -213t-217 -229t-331 -250t-256 -200q-48 -50 -48 -87q0 -10 4 -19 q17 -41 81.5 -132t157.5 -212.5t134 -266.5q21 -75 22 -152q0 -73 -20 -147q-38 -154 -127.5 -236t-211.5 -137q-121 -55 -227 -63q-42 -3 -82 -3q-60 0 -114 7q-90 12 -141.5 53t-59.5 103q-2 18 -2 35q0 42 14 80q20 53 69 108t124 63q14 2 27 2q57 0 95 -28 q46 -34 56 -102q2 -14 3 -27q0 -50 -33 -83q-41 -42 -89 -50q-12 -2 -23 -2q-34 0 -64 18q-39 24 -43 66t-33 16q-19 -17 -19 -42q0 -13 5 -28q15 -44 63 -80q45 -34 142 -34h13q108 2 217.5 44t198.5 120q90 76 106 212q4 34 4 69q0 103 -38 211q-50 144 -154.5 263 t-148.5 198q-43 79 -49 109q-1 8 -2 18q0 26 12 60q16 46 119.5 146t245 193t277.5 215t223 242t93 246v22q0 113 -52 198q-67 -27 -211 -155t-272 -286.5t-226.5 -336t-234.5 -441t-245.5 -475.5t-262.5 -380t-306.5 -268.5t-214.5 -125.5q38 -7 85 -7q38 0 84 5 q100 10 206.5 58.5t140.5 83t54 36t18.5 -39.5t-64 -86.5t-144 -83.5t-241.5 -56.5t-344.5 -34.5t-308.5 -38.5t-363 -40.5q-184 7 -203 124z" />
<glyph unicode="C" horiz-adv-x="2267" d="M315 485q0 269 136 585.5t356 604t528 509.5t582.5 333.5t501.5 117.5q347 -9 465.5 -102t129.5 -245q0 -206 -113.5 -360.5t-296.5 -241t-343 -99.5q-37 -3 -73 -3q-116 0 -209 32q-122 42 -164 108q-42 65 -42 119q-1 56 23 56q22 0 38.5 -60t99.5 -99q82 -39 263 -38 h5q185 0 378 104t264 232q62 111 62 210q0 16 -2 30q-10 112 -96.5 172t-246.5 77q-44 5 -92 5q-126 0 -279 -33q-211 -45 -623 -292t-731 -713q-318 -468 -352 -840q-7 -82 -7 -154q1 -257 93 -399q118 -181 358 -249q143 -40 265 -40q83 0 157 18q182 46 324 178t172 346 q7 49 7 92q1 144 -79 218q-104 96 -216 109q-26 3 -52 3q-80 0 -144 -32q-55 -28 -84 -28q-16 0 -24.5 7.5t-8.5 17.5q0 19 30 43q47 38 157 76q49 17 105 17q71 -1 153 -27q148 -48 213 -158.5t72 -250.5q1 -16 0 -32q-1 -123 -47 -239q-54 -130 -169.5 -244t-266.5 -181.5 t-363 -67.5q-275 0 -461.5 104t-269.5 286.5t-83 417.5z" />
<glyph unicode="D" horiz-adv-x="3438" d="M321 -160q8 60 81 96q68 34 164 35q8 -1 14 -1q104 -2 272 -22q80 -10 134 -9q61 0 92 11q59 22 212 141.5t317 321t300.5 446.5t256.5 507.5t297.5 554.5t252 376.5t164.5 154.5q-113 32 -259 38q-23 1 -48 1q-128 0 -286 -24q-188 -29 -421.5 -105.5t-490.5 -270 t-409.5 -388t-239 -350.5t-126.5 -275.5t-50 -233.5q-2 -23 -2 -45q0 -89 30 -172q38 -104 124 -155q85 -50 177 -56q16 -1 33 -1q76 1 156 21q97 26 207 96.5t197.5 189t128 237.5t44.5 227v17q0 95 -42 149q-46 58 -91 66q-6 1 -13 0q-38 0 -73 -34q-36 -35 -51 -35 q-2 1 -4 1q-14 6 -11 41.5t62 64.5q30 14 66 14q34 0 76 -14q84 -30 128 -106q40 -70 40 -195v-23q-4 -142 -79.5 -302t-174.5 -274t-214 -186q-114 -72 -224 -98q-78 -19 -152 -18q-28 0 -58 2q-102 10 -192.5 53t-144 106t-82.5 145q-28 78 -28 209q1 7 1 14 q2 140 35.5 266.5t127 297t250 353.5t353.5 345.5t426 284.5q230 120 484 186q241 62 479 62h25q252 -4 402 -53q7 5 45 27t102 48.5t148 37.5q8 -15 8 -26q0 -22 -33 -26q-49 -6 -122.5 -44t-75.5 -42q87 -39 178 -122.5t179 -224t114.5 -317.5t26.5 -388 q0 -216 -74.5 -422.5t-180 -364t-230.5 -297.5t-296 -250.5t-347 -172.5t-355.5 -98t-441.5 -41q-52 -1 -102 -1q-199 0 -354 16q-83 9 -139 9q-78 0 -108 -16q-52 -27 -132 -57.5t-226 -40.5q-133 5 -178.5 34t-48.5 94zM518 -174q23 -27 108 -27q7 1 15 1q98 2 168 50 q-83 19 -165 27q-28 3 -51 3q-43 0 -65 -10q-20 -9 -20 -22q0 -10 10 -22zM1180 -91q168 -14 375.5 -14t376 27t336 84.5t328 151t305.5 245.5t264 341.5t170.5 335.5t62.5 366q3 64 3 123q0 145 -19 264q-27 167 -81.5 272t-155 201.5t-181.5 121.5q-9 -6 -66 -56 t-149 -174t-173.5 -267.5t-180 -324t-205 -433.5t-262.5 -510.5t-329.5 -436t-418.5 -317.5z" />
<glyph unicode="E" horiz-adv-x="2142" d="M290 421q2 188 45 353.5t121 345.5t223 397t348 404t403 293q200 105 362 137q88 18 160 18q59 -1 107 -13q105 -26 159 -104q46 -65 46 -157q0 -19 -2 -37q-10 -116 -93 -186q-82 -71 -191 -71h-4q-104 1 -104 34q0 2 1 5q8 38 81 38h2h1q75 0 145 50q66 48 66 156v14 q-4 118 -130 163q-47 17 -105 17q-97 0 -226 -48q-206 -76 -380 -197t-260 -223q-85 -103 -129 -194q-37 -78 -38 -157q0 -13 1 -25q7 -92 64.5 -154t130.5 -94q74 -32 206 -42q39 -3 82 -2q104 0 228 18q176 26 430 121.5t447 254.5t303 341q110 181 130 349q6 50 6 92 q0 98 -32 151q-46 75 -133 95q-46 10 -85 10q-34 0 -61 -8q-59 -17 -97 -57t-55 -79.5t-2 -48t23 11.5q6 21 42 47q29 21 68 21q10 1 20 -1q52 -6 75 -35t29 -77q1 -8 1 -15q1 -39 -25 -83q-30 -52 -88 -68q-28 -8 -57 -8t-59 8q-60 16 -98 86q-23 43 -23 87q1 27 9 55 q24 72 64 124t103 86.5t169 34.5q89 0 147 -40t104.5 -108.5t52.5 -215.5q-5 -154 -73.5 -326t-212 -343.5t-396 -328t-552.5 -221.5q-260 -56 -452 -56q-30 0 -58 1q-210 10 -317.5 77t-145.5 153q-34 78 -34 162v18l6 51q-145 -210 -253 -479q-103 -257 -103 -510v-23 q5 -264 119 -410q116 -145 316 -194q112 -27 220 -27q85 1 167 17q187 38 313 146q127 108 164 280q14 63 14 120q0 96 -40 168q-63 116 -155 142q-48 14 -98 14q-45 0 -93 -12q-98 -24 -132 -112q-13 -32 -13 -56q0 -41 38 -56q51 -20 51 -50q0 -5 -1 -10q-6 -22 -36 -22 q-20 0 -50 9q-76 23 -83 117q-1 10 -1 20q0 83 55 154q61 80 174 104q40 8 82 8q76 0 158 -28q128 -42 202 -156q64 -98 65 -257q-1 -27 -3 -55q-12 -196 -161 -360t-337.5 -217.5t-326.5 -53.5q-147 0 -276.5 40.5t-236 125.5t-167 222t-65.5 344z" />
<glyph unicode="F" horiz-adv-x="2580" d="M166 125q0 81 34.5 155.5t109.5 137t151 93.5t148 40q20 3 40 2q51 0 103 -16q72 -23 104 -73.5t32 -103.5t-28 -109.5t-93 -81.5q-42 -16 -80 -16q-21 1 -39 5q-54 14 -80 60q-24 42 -23 77v8q3 39 25 79t82 62q28 10 29 16q-1 7 -37 8h-14q-59 0 -103 -14 q-49 -16 -110 -58t-111 -118q-36 -55 -35 -121q-1 -27 5 -55q20 -100 90 -170q70 -69 202 -94q90 -17 212 -17q59 0 126 4q206 12 406.5 89.5t400.5 246.5t323.5 338.5t244.5 369.5q-289 -21 -478 -68t-303.5 -102.5t-175 -120t-77.5 -133.5q-8 -34 -9 -68q0 -35 9 -67 q17 -66 71 -80q19 -5 44 -5q46 -1 114 17q104 26 184 93.5t140 138t88 96.5q28 24 38 -4q1 -4 1 -9q-1 -33 -55 -111q-64 -92 -156 -176t-188 -110q-87 -24 -186 -24h-18q-110 2 -167 46.5t-81 124.5q-11 36 -11 76q0 47 16 99q29 96 150.5 195t319 162t380 88t393.5 44 q197 389 417 679.5t435.5 460t419.5 272.5t354 143q-40 16 -122 16q-36 0 -82 -3q-146 -11 -364.5 -51t-427.5 -99t-425.5 -157.5t-380 -216t-258.5 -215.5q-94 -98 -142 -194q-46 -92 -46 -178v-8q2 -90 57 -153.5t140 -78.5q34 -6 68 -6q51 0 104 14q87 22 173 76 q86 52 128 134q30 59 30 112q0 20 -4 40q-7 30 -7 51q0 27 12 41q21 24 47 3t42 -92q4 -19 3 -40q-1 -57 -33 -133q-46 -102 -136 -180t-214 -122q-99 -35 -206 -35q-26 0 -54 2q-136 11 -206 71t-99 134.5t-29 145.5t33.5 162.5t116 194.5t221.5 213.5t329 217t455.5 194.5 t500.5 138t431 75t390 30q115 -10 159 -20.5t62 -58.5q-18 -33 -64.5 -40.5t-95 -14.5t-156 -45.5t-304 -157.5t-392.5 -282.5t-358 -393t-255.5 -387t-138.5 -263.5q90 -4 147 -21t99 -41t56 -53t-11 -51q-11 -9 -25 -9q-20 0 -46 17q-46 30 -106.5 45.5t-164.5 16.5 q-131 -246 -268.5 -428.5t-302.5 -333.5t-346.5 -239t-347 -122.5t-373.5 -34.5q-229 5 -330 44.5t-165 103.5t-83 135.5t-19 129.5z" />
<glyph unicode="G" horiz-adv-x="2529" d="M206 -224q40 66 113 77q37 5 90 5t122 -5q139 -11 312 -11t262.5 57t261.5 197.5t302.5 336.5t221.5 322q-176 -93 -345 -144t-326 -64q-58 -5 -116 -5q-99 0 -198 14q-158 22 -238.5 59.5t-139 126t-68.5 226.5q-1 18 -1 38q0 123 53 271q62 171 251 373.5t437 368 t560.5 302.5t564.5 197t445.5 91t379.5 31q155 0 297.5 -13t305.5 -60t277.5 -121.5t167.5 -174.5t53 -207q0 -109 -46.5 -233.5t-197 -265.5t-323 -214t-356.5 -93.5t-334 -20.5t-325 39t-266 92.5t-120 99.5t8 46t80 -26t172.5 -83.5t276.5 -76.5q55 -7 129 -7 q125 0 303 20q284 32 462 132.5t292.5 240.5t123.5 268q1 12 1 25q0 114 -72 222q-80 120 -223.5 173.5t-315.5 63.5q-107 7 -205 7q-60 0 -117 -3q-150 -6 -396.5 -40.5t-498.5 -99t-562.5 -199t-591.5 -344t-424 -417.5t-153 -324q-1 -20 -1 -40q0 -91 35 -163 q43 -88 140.5 -134.5t249.5 -54.5q42 -2 84 -2q110 0 220 15q151 21 365.5 97t317.5 156t144.5 128t102.5 50h4q58 0 64 -52q1 -3 1 -6q0 -49 -93 -100q-98 -54 -169 -114.5t-132 -178t-152 -275.5t-226 -279t-237.5 -171t-112.5 -66q253 7 482 89t446.5 202t354.5 269 q123 134 167 134q5 0 9 -2q9 -4 9 -16q0 -41 -97 -171q-128 -169 -383 -317t-468 -215t-389.5 -77.5t-326 -18.5t-262.5 -25.5t-238 -27.5q-110 0 -186 10t-89 86z" />
<glyph unicode="H" horiz-adv-x="3246" d="M158 37q0 126 80 226q80 101 174 135q82 30 149 29q11 -1 21 -1q75 -6 132.5 -37t77.5 -99q6 -22 6 -46q0 -48 -26 -96q-40 -74 -96 -88q-31 -8 -64 -7q-27 0 -54 5q-62 12 -86 73q-11 28 -11 53q1 31 17 60q30 52 86 66t46 28q-8 12 -52 12h-16q-58 -2 -126 -38.5 t-123 -100.5q-55 -63 -57 -153q0 -4 -1 -9q1 -84 49 -153q50 -72 165 -119t241 -50h23q120 0 289 28q185 31 367.5 144.5t322.5 264t268.5 338.5t338 532t388 596.5t391.5 458t391.5 293.5t281.5 122t125 38q5 1 5 2q1 4 -69 10q-10 1 -23 1q-99 1 -369 -51 q-304 -58 -560.5 -150.5t-502 -221.5t-394.5 -256q-149 -126 -243 -274q-82 -129 -82 -256q0 -18 2 -36q14 -144 100 -204q70 -49 156 -48q20 0 40 2q110 14 195 73t126.5 120t52 114.5t40.5 77.5q30 25 46 3q5 -7 5 -24q1 -32 -19 -94q-30 -96 -133.5 -195.5t-227.5 -143.5 q-89 -31 -179 -31q-36 0 -73 4q-128 18 -207 91q-80 73 -106 160q-15 50 -15 112q0 47 9 103q20 128 130.5 270.5t342.5 311.5t541.5 308t606.5 212.5t533 89t325 15.5q104 -1 145 -27q24 -16 24 -31q0 -11 -12 -21q-29 -26 -133 -57.5t-342.5 -155.5t-461.5 -348 t-372.5 -443.5t-279.5 -443.5h357q211 351 397.5 579t374.5 376t356 224.5t269 100.5q67 16 128 16q30 0 59 -4q86 -12 99 -119q-13 -93 -91 -109q-39 -8 -80 -8q-42 0 -86 8q-47 9 -100 8q-45 0 -95 -6q-108 -14 -242.5 -78t-368.5 -328t-394 -509t-270 -469t-207.5 -385 t-185.5 -295t-232 -240q191 15 406 87.5t349 158.5q134 88 208 166q52 55 81 54q13 0 21 -10t8 -25q0 -33 -46 -89q-66 -78 -169.5 -157t-268.5 -149.5t-364 -106.5t-379 -48q-98 -7 -184 -7q-72 0 -135 5q-1 10 -1 18q0 76 78 84q87 10 193 36.5t216 126t248.5 331 t327.5 627.5l-363 -1q-240 -371 -402.5 -598.5t-329 -381.5t-342.5 -235.5t-333.5 -110.5t-330.5 -29q-185 0 -283 61.5t-142.5 113t-67 104t-22.5 140.5z" />
<glyph unicode="I" horiz-adv-x="2513" d="M152 125q0 81 34.5 155.5t109.5 137t151 93.5t148 40q20 3 40 2q51 0 103 -16q72 -23 104 -73.5t32 -103.5t-28 -109.5t-93 -81.5q-42 -16 -80 -16q-21 1 -39 5q-54 14 -80 60q-24 42 -23 77v8q3 39 25 79t82 62q28 10 29 16q-1 7 -37 8h-14q-59 0 -103 -14 q-49 -16 -110 -58t-111 -118q-36 -55 -35 -121q-1 -27 5 -55q20 -100 90 -170q70 -69 202 -94q81 -15 196 -15q74 0 162 6q226 16 433 93.5t360.5 209.5t290.5 314.5t232 369.5t216.5 414.5t312 469t406 411t419.5 272.5t354 143q-40 16 -122 16q-36 0 -82 -3 q-146 -11 -364.5 -51t-427.5 -99t-425.5 -157.5t-380 -216t-258.5 -215.5q-94 -98 -142 -194q-46 -92 -46 -178v-8q2 -90 57 -153.5t140 -78.5q34 -6 68 -6q51 0 104 14q87 22 173 76q86 52 128 134q30 59 30 112q0 20 -4 40q-7 30 -7 51q0 27 12 41q21 24 47 3t42 -92 q4 -19 3 -40q-1 -57 -33 -133q-46 -102 -136 -180t-214 -122q-99 -35 -206 -35q-26 0 -54 2q-136 11 -206 71t-99 134.5t-29 145.5t33.5 162.5t116 194.5t221.5 213.5t329 217t455.5 194.5t500.5 138t431 75t390 30q115 -10 159 -20.5t62 -58.5q-18 -33 -64.5 -40.5 t-95 -14.5t-156 -45.5t-304 -157.5t-392.5 -282.5t-351.5 -377t-255.5 -390t-216.5 -407t-254.5 -423.5t-302.5 -333.5t-343 -219t-344 -113t-373.5 -34.5q-229 5 -330 44.5t-165 103.5t-83 135.5t-19 129.5z" />
<glyph unicode="J" horiz-adv-x="2566" d="M171 -171q10 120 47.5 198.5t112 135t166.5 72.5q37 6 72 6q52 0 100 -14q80 -24 117.5 -91t39.5 -147v-6q0 -76 -38 -130q-38 -56 -98 -76q-20 -6 -38 -6q-41 0 -79 29q-56 44 -73 99q-7 23 -7 46q0 32 14 64q24 55 59 76.5t26 50.5q-7 24 -47 24h-17q-55 -6 -127 -55 t-101.5 -127t-37.5 -164q-2 -16 -2 -33q0 -69 30 -140q36 -87 109.5 -151t180.5 -98q95 -29 191 -29h23q108 4 244 37.5t267.5 116.5t246.5 189.5t279 351t317.5 512.5t328 567.5t322.5 502t287 362.5t313 280.5t307.5 169.5t234.5 62q-20 39 -124 39h-5q-108 -1 -297 -26.5 t-460 -93.5t-544 -210.5t-422.5 -276t-261.5 -277.5t-167 -308q-48 -142 -48 -249q0 -17 2 -32q8 -118 70 -164q55 -41 151 -41q14 0 28 1q116 6 212 76t165.5 170t88 128t38.5 8q8 -8 8 -24q0 -24 -20 -68q-32 -70 -130.5 -183t-216.5 -165q-109 -49 -192 -49h-13 q-88 4 -170.5 45.5t-125.5 137.5q-39 88 -39 220v25q4 149 72 321t228.5 336.5t336 280t325 194.5t395 154t488 115t447.5 40q152 -8 238.5 -15t111.5 -84q-11 -49 -89.5 -75t-187 -55.5t-240 -109.5t-302 -244t-345.5 -394.5t-318 -472.5t-340 -572t-344 -557.5 t-303 -395.5t-334 -269t-318 -120t-255 -21q-128 13 -260 67.5t-201.5 161t-85.5 172.5t-16 175z" />
<glyph unicode="K" horiz-adv-x="4460" d="M166 98q0 123 77 220.5t167 131.5q79 30 145 29q9 -1 17 -1q72 -4 128 -36q56 -31 74 -103q7 -27 7 -53q0 -40 -19 -76q-30 -58 -92 -80q-40 -15 -79 -15q-21 0 -41 4q-58 11 -83 71q-11 27 -11 53q0 30 16 57q28 50 82 64t44 28q-9 12 -53 12h-13q-56 -2 -120 -37.5 t-116 -98.5q-54 -62 -56 -150v-9q0 -83 46 -149q48 -70 137 -123t221 -59q17 -1 36 -1q122 0 292 35q196 40 372 148.5t300.5 242t244.5 314.5t226.5 359t207.5 332.5t275 404t304 390.5t263.5 246t281.5 183q147 78 225 98q37 9 38 15q0 7 -44 11q-14 1 -31 1 q-85 -1 -247 -29q-194 -34 -376 -87.5t-450 -160.5t-475 -250.5t-331 -291.5q-123 -148 -166 -324q-12 -50 -12 -92q0 -106 78 -162q92 -66 182 -66q16 0 31 2q105 14 186.5 72t121.5 117t56 120t39.5 76t37.5 -6q5 -7 5 -22q1 -29 -19 -91q-28 -92 -122 -190t-218 -142 q-89 -31 -178 -31q-34 0 -68 5q-122 17 -198 88q-77 70 -102 156q-14 48 -14 109q0 47 8 101q20 124 148.5 287.5t318 295.5t425 233.5t460 171t414.5 112t356 61t253 18.5q99 1 138 -25q23 -15 23 -31q0 -11 -11 -21q-27 -26 -127 -57t-229 -91t-307 -199t-348 -340 t-274.5 -362t-173.5 -264q-74 -110 -74 -144q0 -19 32 -19q22 0 60 10q96 24 272 94.5t332.5 172t468 421.5t442.5 411.5t214 121t153 31.5q4 0 9 -1q65 -1 113 -21q50 -22 50 -78q0 -62 -56 -97q-44 -28 -124 -28q-22 1 -46 3q-26 2 -51 2q-83 0 -153 -24 q-92 -32 -247 -168t-447 -425.5t-767 -457.5q147 -104 192.5 -348.5t125.5 -473.5t253 -359q157 -118 336 -117q18 0 36 1q199 13 307 112q107 98 137 214q15 58 15 115q0 59 -15 115q-30 112 -146 173q-64 34 -128 34q-52 0 -104 -22q-116 -49 -154 -141q-36 -88 -73 -88 h-3q-24 2 -24 38q0 21 9 54q23 88 102 160t177 96q38 9 77 9q63 1 129 -23q108 -38 184 -137.5t77 -252.5q-1 -140 -67 -271t-192 -218t-306 -100q-177 2 -321 51.5t-268 185.5t-180 328.5t-92 424.5q-36 231 -133 317q-62 55 -130 55q-38 0 -78 -17q-111 -48 -166.5 -145.5 t-236 -362t-354 -409.5t-361 -225t-306.5 -108t-291 -28t-262.5 45t-149 110.5t-80 116.5t-21.5 138z" />
<glyph unicode="L" horiz-adv-x="2854" d="M163 -179q10 58 41 86t106 54.5t186.5 26.5t193.5 -8q12 -1 25 -1q71 0 148 39q90 46 260.5 203.5t307.5 343t253.5 402.5t201.5 390.5t289 468t429 465t485.5 258.5t473.5 88q186 -3 330.5 -84t206 -200t66.5 -241q-14 -181 -130 -358.5t-304 -308.5t-404 -191 q-190 -52 -341 -52q-19 0 -39 1q-166 8 -272 59q-104 52 -138 150q-17 49 -17 93q1 44 17 83q29 67 65 67q6 0 12 -2q25 -7 25 -29q0 -16 -16 -42q-17 -28 -16 -60q0 -35 20 -74q39 -74 187 -116q79 -22 172 -23q83 -1 175 17q198 36 382 136t301.5 232.5t160.5 256.5 q26 74 26 147q0 50 -12 100q-30 124 -142 178q-114 54 -264 72q-45 5 -97 5q-125 1 -294 -29q-241 -42 -464 -182t-392 -344t-313.5 -468.5t-300.5 -549.5t-353 -512t-471 -427q243 -37 493 -65q166 -19 319 -19q77 1 153 5q222 14 443 110.5t321 216.5t153 192q38 52 68 52 q11 1 21 -7q11 -8 11 -26q1 -42 -63 -138q-90 -136 -227.5 -255t-364.5 -208.5t-554 -105.5q-264 0 -436.5 36t-263 57t-128.5 41q-40 20 -86 23h-6q-44 0 -104 -36q-64 -38 -174 -64q-93 -22 -164 -22h-25q-80 4 -108 23t-44 70zM365 -188q164 36 172 54v1q0 17 -168 28 q-111 -31 -111 -52q0 -22 107 -31z" />
<glyph unicode="M" horiz-adv-x="4400" d="M166 48q5 86 39.5 156t114.5 126t174 74q50 9 95 9q39 1 77 -7q78 -16 118 -79q30 -47 30 -92q0 -15 -3 -29q-13 -58 -52 -97t-92 -50q-20 -4 -40 -4q-35 -1 -71 11q-58 18 -78 78q-12 33 -12 62q0 22 7 42q16 46 53 53.5t53 19.5q16 13 -21 21q-6 1 -14 1 q-37 1 -106 -33q-83 -40 -122.5 -87t-53.5 -135q-2 -15 -2 -31q0 -73 54 -146q65 -88 175.5 -134.5t216.5 -59.5q48 -6 106 -6q72 0 162 9q162 16 322 64t436.5 177t527 337.5t485.5 491t409.5 512t339.5 394.5t318.5 300t294.5 234.5t284 157.5t240 84q97 28 133 30 q12 1 13 4q1 8 -49 24q-74 26 -222 30q-57 2 -123 2q-106 0 -234 -5q-209 -8 -481 -48t-535 -121.5t-537.5 -229.5t-485.5 -326.5t-377.5 -379.5t-244.5 -392q-79 -192 -90 -370q-1 -14 -1 -26q-1 -159 123 -244q102 -70 218 -70q37 0 75 7q159 29 281.5 108t231.5 194 t162.5 225.5t79.5 187.5q23 70 58 70h6q16 -3 17 -36q0 -47 -35 -156q-58 -184 -190.5 -348.5t-300 -254t-309.5 -107.5q-48 -6 -93 -7q-89 0 -168 24q-120 36 -213 115q-92 78 -124 234q-13 61 -13 130q1 104 31 226q50 200 230 435t378.5 406t446 313t527.5 250t578 168.5 t534 80.5t467 20q277 -3 371 -39t106 -87q3 -13 3 -24q1 -32 -27 -48q-36 -21 -106 -23.5t-227 -68t-340 -208t-379 -392t-367.5 -515t-305 -500t-176.5 -305.5t-71 -135q-18 -40 -17 -66q-1 -16 5 -26q4 -6 12 -6q25 0 89 70q84 92 227.5 270t289 392.5t320.5 418t347 384 t363.5 336t378.5 267.5t344 174t289 86q50 9 83 9q52 0 55 -25q-10 -35 -86 -52.5t-222 -64t-312.5 -145.5t-321 -264t-313.5 -404t-294.5 -509.5t-237 -479.5t-188.5 -349t-189 -233q-89 -81 -89 -109q1 -4 3 -8q8 -12 41 -12t93 12q119 24 271 83.5t296 146.5 q143 88 237 170q64 56 96 56q14 0 20 -12q3 -6 4 -13q0 -43 -109 -141q-128 -116 -289.5 -203t-347.5 -143q-166 -50 -286 -50q-15 0 -29 1q-45 2 -90 2q-85 0 -173 -8q-15 -1 -27 -1q-75 0 -75 50q0 19 10 44q130 10 215.5 55t205.5 199t274.5 463.5t295 569.5t245.5 418.5 t144 208.5q17 22 17 28q0 2 -3 2q-6 0 -26 -12q-50 -32 -211.5 -208.5t-312.5 -352t-308 -392t-347.5 -462t-285.5 -321.5q-83 -66 -138 -66q-8 0 -14 2q-57 10 -63 99v11q0 88 84 241q90 163 242 412t279.5 456t206.5 301q78 94 125 160q28 40 28 47q0 2 -1 2q-3 0 -11 -6 q-31 -23 -128 -137.5t-226.5 -265t-250.5 -316t-285.5 -366.5t-431 -437.5t-634 -409.5t-571.5 -205t-397 -40q-167 13 -245 30.5t-169.5 76t-136 139.5t-54.5 186z" />
<glyph unicode="N" horiz-adv-x="3720" d="M158 126q5 84 37.5 150t110.5 120t168 70q48 9 91 10q38 0 73 -8q74 -14 112 -74q28 -46 29 -90q0 -14 -3 -27q-12 -56 -50 -93q-38 -38 -88 -48q-19 -4 -37 -3q-33 0 -68 11q-55 18 -75 74q-11 32 -11 60q0 21 6 40q15 44 50.5 51t50.5 19t-20 20q-6 1 -13 1 q-35 0 -102 -32q-80 -39 -117.5 -83t-50.5 -130q-2 -15 -2 -30q-1 -70 51 -140q62 -84 168 -128q106 -46 208 -58q47 -6 105 -5q69 0 153 8q155 15 308 61.5t395.5 147t461.5 263.5t479 506.5t530.5 684t526.5 543t492.5 312t336.5 133.5q65 15 65 31q0 9 -20 18 q-55 25 -190 34q-52 3 -113 3q-98 0 -224 -8q-202 -14 -463.5 -53t-514 -117.5t-516 -220t-466 -312.5t-362.5 -364t-237.5 -365t-85.5 -354v-22q0 -167 120 -249q98 -67 210 -67q35 0 71 6q153 28 270.5 104t228 197.5t155.5 216.5q44 94 69 168q23 67 56 68q3 0 7 -1 q15 -3 15 -33q0 -45 -33 -150q-55 -176 -200 -342.5t-288 -243.5q-142 -78 -278 -96q-48 -6 -95 -6q-85 0 -165 21q-124 32 -198 112.5t-111 226.5q-16 64 -16 137q0 94 27 203q48 193 221 417.5t363 388.5t428 300t506 239.5t527 162.5t478 84q219 24 419 26h26 q184 0 324 -20q150 -22 178 -65q11 -18 12 -34q0 -25 -26 -49q-42 -38 -240 -111t-540.5 -459t-498.5 -665.5t-281 -573t-165 -420.5q-38 -120 -38 -137q0 -3 2 -3q11 0 101 101q100 112 268 344t429 590t473 574t395 365t363 256t324 170.5t357.5 122t450.5 59.5 q189 -8 302.5 -58.5t119.5 -107.5q-31 -44 -64 -44q-6 -1 -12 1q-40 8 -72 68t-226 64h-27q-183 0 -403 -52q-236 -56 -496.5 -182t-540 -357t-557 -557.5t-480.5 -617t-359 -513.5t-248 -283q-80 -52 -132 -53q-7 -1 -15 1q-56 10 -60 96q0 4 -1 8q1 88 89 310 q92 232 198 478t307.5 547.5t460.5 561.5q144 145 144 162q0 2 -2 2q-14 0 -90 -56q-206 -152 -426 -384t-584.5 -733t-586 -691.5t-556 -339t-566 -183.5t-416.5 -42q-160 12 -235.5 28.5t-163.5 72.5t-130 133.5t-52 179.5z" />
<glyph unicode="O" horiz-adv-x="2603" d="M360 600q0 144 41.5 343t149.5 441.5t251.5 437t312 350.5t312.5 255t288 160t285 61q164 0 203 -48q37 -46 113 -46h8q7 0 14 1q76 0 154 -27q84 -29 165.5 -105.5t139 -207t62.5 -444.5q-25 -267 -95.5 -466t-207.5 -444t-328 -468t-437.5 -400.5t-403.5 -225.5 t-315 -55q-214 12 -356.5 86t-218 215t-106.5 289.5t-31 297.5zM534 500q8 -214 87.5 -373t215.5 -225q132 -64 294 -64h10q168 2 332.5 80t367 257.5t366 402t299.5 513.5q138 291 160 604q7 101 7 186q-1 181 -33 291q-48 164 -138.5 224.5t-207.5 61.5q-11 -128 -50 -224 t-131 -213t-209 -223.5t-277.5 -200t-378.5 -154.5q-66 -113 -81 -283q-4 -47 -4 -92q0 -114 28 -204q39 -124 128 -162q57 -24 136 -24q47 0 99 8q146 22 255 102q109 82 159 120q36 27 54 27q8 0 12 -5q5 -5 6 -14q0 -17 -20 -47q-30 -45 -138 -127.5t-220 -130.5 q-96 -41 -199 -41q-17 0 -34 1q-120 8 -206.5 72t-128.5 181q-32 89 -33 208q-1 38 3 80q14 170 66 302q-194 -43 -402 -72q-94 -192 -148 -410q-48 -190 -47 -377q0 -28 1 -55zM779 1450q247 33 373 70q42 118 120 259t182.5 273.5t216.5 228.5t204 149t224 112 q-56 7 -110 7q-179 -1 -321 -83q-185 -108 -381 -292.5t-323 -375t-185 -348.5zM1298 1563q210 79 379.5 191t286.5 234q116 122 181 234q56 97 56 198q0 16 -1 31q-122 -25 -253 -97.5t-269.5 -205t-256 -305.5t-123.5 -280z" />
<glyph unicode="P" horiz-adv-x="3014" d="M168 -232q18 92 132 119q82 19 170 19q34 0 70 -2q126 -10 254 -10.5t255 12.5t280 88t277.5 179.5t236.5 228.5q101 111 101 134q0 3 -2 4q-3 4 -8 4q-17 0 -60 -37q-56 -48 -195.5 -164.5t-275.5 -162.5q-129 -44 -279 -45q-8 1 -16 1q-159 2 -285.5 54.5t-200 192 t-89.5 318.5q0 182 32.5 309.5t140.5 322.5t350 453.5t452 406.5t412.5 231t410 139t461.5 61q226 -5 356 -38.5t236 -89.5q114 46 228 50h18q97 0 109 -47q-14 -48 -89 -48q-2 1 -5 1h-7q-77 0 -166 -31q74 -66 136 -193q61 -125 60 -276q0 -155 -36 -278 q-34 -120 -114 -240t-194 -210t-262 -144q-124 -46 -229 -46q-19 0 -39 2q-120 10 -182 70q-58 56 -58 123v9q4 72 34 154t108 113q50 20 92 20q24 0 44 -6q58 -17 94 -77q25 -42 25 -82q0 -18 -5 -36q-16 -58 -82 -90q-46 -22 -81 -22q-16 0 -30 5q-44 15 -71.5 48t-39.5 3 q-2 -6 -3 -12q0 -28 46 -74q50 -50 141 -51q12 -1 22 1q106 6 230 63.5t266 224.5q142 166 182 358q18 87 18 163q0 89 -26 161q-48 132 -168 260q-232 -135 -408.5 -290t-320.5 -413.5t-283.5 -556t-212 -427t-142 -253t-188 -226.5t-226.5 -175t-231 -121q358 12 598 55.5 t400 136t237 191.5q75 96 75 172q0 71 -48 71q-8 0 -16 -2q-20 -4 -34 -4q-30 0 -38 17q-2 4 -1 8q0 21 47 41q33 15 68 16q23 0 48 -8q60 -16 70 -106q2 -17 2 -34q0 -74 -38 -148q-46 -92 -139.5 -177.5t-226 -151t-288.5 -97.5t-392 -52t-432 -29q-395 -10 -526 -27.5 t-210.5 -38.5t-183.5 -29q-123 8 -142 64zM698 628q2 -98 72 -224t223 -157q69 -14 141 -14q86 1 176 21q164 38 312.5 157.5t272 245t252 351.5t247 474.5t227.5 399t256 287.5t387 265q-102 52 -220 74q-71 14 -190 14q-79 0 -178 -6q-249 -15 -489 -92.5t-495 -230.5 t-471 -396t-324 -457q-109 -214 -155 -414q-44 -190 -44 -288v-10z" />
<glyph unicode="Q" horiz-adv-x="2349" d="M184 -792q10 194 47.5 320.5t128 251t246.5 247.5t710 399t825.5 512t408 474.5t182.5 494.5q21 116 21 211q0 116 -31 202q-56 157 -194 204q-53 18 -117 18q-100 0 -225 -46q-205 -74 -369 -203.5t-330.5 -368.5t-209.5 -446q-29 -139 -29 -242q0 -49 6 -89 q21 -125 116 -200q73 -58 176 -58q30 0 62 5q144 21 351 188q161 131 193 131q7 0 7 -8q0 -43 -119 -161q-112 -111 -285 -206q-160 -89 -317 -89q-12 0 -24 1q-169 7 -247.5 112.5t-90.5 323.5q-1 22 -1 46q0 197 91 420q101 250 302.5 473.5t470.5 366.5t464 148 q167 0 278 -89.5t149.5 -209t38.5 -274.5q-2 -205 -145 -535t-437.5 -609.5t-845.5 -537t-767 -454t-284 -371.5q-52 -134 -52 -275q0 -42 5 -84q20 -185 141.5 -341t311.5 -232q178 -71 360 -71h24q194 5 382 54t347.5 217t186.5 398q6 49 6 93q0 161 -78 255 q-98 118 -253 166q-109 34 -197 34q-36 0 -68 -6q-111 -20 -209.5 -93t-112.5 -175q-2 -22 -2 -40q0 -70 40 -96q39 -24 39 -48q0 -8 -4 -16q-7 -14 -24 -14q-21 0 -58 24q-65 41 -77 136q-2 14 -2 30q0 80 56 166q66 102 192 158q123 54 240 54h6q120 -2 240 -46 t198.5 -113t122.5 -171q43 -99 43 -264v-8q-7 -168 -138 -378.5t-368 -307.5t-498 -106q-276 1 -449 60.5t-291.5 159.5t-177.5 209.5t-88 318.5z" />
<glyph unicode="R" horiz-adv-x="4185" d="M120 -184q12 36 98 58q52 13 127 12q51 0 112 -6q70 -7 151 -6q94 0 202 9q200 17 316.5 76t308 243t361.5 508t290 625.5t306.5 608.5t378.5 468q-97 17 -293 21h-15q-192 0 -480 -93q-300 -97 -584 -310.5t-489.5 -477.5t-291.5 -543q-48 -155 -49 -270q0 -92 31 -159 q69 -150 296 -178q47 -6 91 -6q169 0 303 86q168 110 263 220q93 107 131 107l2 -1q18 -1 18 -21q0 -21 -20 -63q-39 -82 -196.5 -224t-323.5 -201q-132 -47 -274 -47q-36 0 -72 3q-180 15 -280 117t-128 250q-13 71 -14 144q0 78 16 160q30 156 149 369.5t292 411t403 364 t502 281.5q271 114 498 144q197 26 314 26h34q122 -4 247 -31q63 47 229 86.5t230 120.5q18 -15 18 -37q0 -11 -5 -25q-14 -39 -70 -71.5t-149.5 -60.5t-134.5 -58q121 -49 203 -147.5t98 -236.5q3 -29 3 -60q1 -114 -47 -247q-60 -168 -240.5 -337.5t-559.5 -347.5 q145 -104 191.5 -348.5t125.5 -474t252 -359.5q157 -117 335 -117q19 -1 37 1q199 14 307 112q108 100 138 216q15 58 15.5 115t-15.5 113q-30 112 -145 174q-64 34 -129 34q-52 0 -104 -22q-118 -48 -154 -140q-35 -88 -72 -88h-4q-24 2 -23 37q1 21 9 55q24 88 102 159 t176 95q37 9 76 9q64 1 130 -23q108 -38 184 -137t78 -252q-2 -139 -67.5 -270t-192 -219t-305.5 -100q-177 0 -321 50.5t-268 185.5t-180 328t-92 425.5t-133 318.5q-62 55 -130 55q-38 0 -78 -17q-111 -48 -159 -148t-182 -340t-330 -394t-262 -212q-15 -14 -16 -22 q0 -15 48 -15q41 0 117 11q215 32 371 124t231 206q64 97 98 96q6 0 11 -2q18 -10 18 -36q0 -24 -16 -63q-32 -79 -143.5 -179.5t-223.5 -148t-363 -95.5t-451 -60q-162 8 -308 8q-53 0 -104 -1q-61 -1 -110 -1q-105 0 -157 6q-76 8 -97 25t-21 71zM2101 1072 q325 109 533 230.5t368 319.5q144 177 144 371q0 21 -2 45q-18 220 -281 344q-173 -180 -362 -459.5t-400 -850.5z" />
<glyph unicode="S" horiz-adv-x="2599" d="M219 402q0 142 62 260t147.5 195t219.5 138t286 71q64 4 122 5q82 -1 152 -9q122 -14 260.5 -76.5t242.5 -181.5q105 -119 121 -251q4 -29 3 -57q0 -98 -45 -178q-58 -104 -138 -148q-51 -28 -76 -28q-14 0 -22 9q-7 9 -7 18q1 19 25 42q38 35 86 80t62 122q4 21 3 45 q1 62 -25 142q-36 110 -140.5 198.5t-236.5 130.5q-121 38 -268 38h-28q-164 -4 -329 -70t-258.5 -191.5t-98.5 -293.5v-18q1 -158 81 -284q86 -134 251 -216t345 -92q63 -4 129 -4q123 0 257 12q206 20 397.5 107t276.5 202t117 239q22 85 22 171q0 41 -5 81 q-15 126 -106.5 307.5t-212.5 385.5t-178.5 350.5t-66.5 271.5q-3 38 -3 74q0 85 15 161q21 110 102 237.5t215 188t259 60.5q153 0 251 -32t191.5 -120.5t119.5 -285.5q-12 -192 -62 -278.5t-128 -133t-158 -54.5q-15 -2 -29 -2q-63 0 -122 30q-72 36 -100 109 q-14 37 -14 73q0 35 13 68q28 68 76 91q20 9 32 9q19 0 24 -20q8 -34 -16 -58t-26 -86q0 -3 1 -7q0 -57 41 -87q39 -28 100 -28h16q72 4 129 72t74 172q5 28 5 58q0 80 -34 166q-46 120 -136 178q-90 60 -216 62h-12q-118 0 -198 -46q-84 -48 -141 -127t-88 -195 q-17 -65 -18 -132q0 -52 11 -104q24 -120 118.5 -290.5t202 -359.5t169.5 -368q62 -178 67 -312q0 -13 1 -27q0 -121 -41 -253q-45 -146 -155.5 -286.5t-299 -225t-377.5 -109.5t-410 -27q-225 2 -414 80.5t-284.5 179.5t-136.5 215.5t-41 246.5z" />
<glyph unicode="T" horiz-adv-x="2507" d="M216 -6q0 218 96 529.5t337 648.5t609.5 641.5t757 466.5t704.5 174q30 1 60 1q284 1 558 -103q302 -114 450 -120h25q132 0 233 48q112 54 142 150q10 33 10 61q0 55 -38 96q-57 60 -153 60q-2 -1 -5 -1q-98 -2 -156 -32q-35 -19 -57 -20q-13 0 -21 8q-4 4 -4 9 q0 19 60 53q76 42 148 51q99 0 164.5 -25.5t101.5 -78.5t36 -115q0 -112 -54.5 -184t-165 -119t-266.5 -48h-9q-151 1 -269 37q-46 14 -97 14q-83 0 -179 -38q-154 -62 -317 -230t-319 -502.5t-259 -583t-178.5 -424.5t-157 -300t-212 -225.5t-253.5 -149.5 q-98 -38 -197 -38q-25 0 -49 2q-124 13 -190 91q-61 73 -60 170v16q5 108 48.5 172t115.5 104q66 37 131 37l11 -1q72 -4 108 -43t48 -90q4 -16 4 -32q0 -35 -17 -71q-25 -52 -68 -75q-30 -16 -66 -16q-17 -1 -35 3q-58 10 -81 56.5t-35 57t-37.5 -12.5t-29.5 -107v-7 q1 -79 83 -123q50 -27 113 -26q45 0 97 14q124 32 229.5 103.5t208.5 208t181.5 307.5t159.5 373t141 342t158 334t196.5 336.5t194 226t173.5 125.5t138 64q13 5 13 11q1 22 -159 57q-143 32 -290 32q-64 0 -128 -6q-212 -20 -505.5 -135t-584.5 -318.5t-560.5 -519.5 t-409.5 -613q-138 -297 -176 -568q-14 -103 -15 -203q0 -162 38 -314q61 -246 209 -392.5t400 -200.5q151 -32 292 -31q94 0 184 14q222 36 415 128t315 176t208 158q62 53 92 53q12 0 20 -8q6 -7 6 -17q0 -33 -62 -103q-81 -90 -208 -184t-282.5 -172t-326 -133t-412.5 -55 q-258 0 -479 77t-362 252t-184.5 367t-43.5 398z" />
<glyph unicode="U" horiz-adv-x="3306" d="M462 899q0 259 104 477t289 426t423 374t472 270t432 147.5t446 44.5q192 -4 192 -56t-91 -75.5t-206 -105t-277.5 -236t-302.5 -342.5t-270 -421q157 -84 215 -223q50 -122 50 -268q0 -21 -1 -41q-8 -170 -154.5 -341.5t-395.5 -259.5q33 -234 167 -343 q134 -108 288 -125q20 -2 42 -2q142 0 340 98q228 113 456 335t382 478t229 528q60 217 60 398q0 46 -4 90q-19 216 -97 285q-59 52 -130 52q-22 1 -48 -5q-100 -22 -206 -135t-157.5 -247.5t-63.5 -275.5q-2 -28 -2 -51q-1 -99 39 -137q21 -20 44 -20q29 0 60 36 q44 51 72 51q6 0 12 -3q16 -8 16 -28q0 -16 -10 -40q-24 -54 -96 -102q-35 -24 -71 -24q-37 0 -75 26q-74 50 -82 174q-2 31 -3 63q0 96 21 204q28 144 118.5 296t185.5 228q95 77 171 95q56 14 97 13q14 1 26 -1q48 -6 109.5 -35.5t126 -120.5t87 -213.5t22.5 -277.5 q-9 -239 -127 -515t-258.5 -468t-348 -393t-413.5 -311t-319 -131.5t-203 -21.5q-70 0 -150 20t-178.5 88t-166.5 188t-85 257q-87 -21 -179 -21q-60 0 -121 9q-157 22 -261.5 97t-172.5 216t-68 352zM656 1094q-17 -90 -16 -174q0 -106 26 -204q46 -178 198 -280 q110 -74 264 -74q60 0 126 12q2 162 21 308.5t82 315t166 359.5q-37 6 -69 6q-59 0 -103 -19q-67 -29 -95 -88q-26 -55 -52 -55h-4q-18 3 -18 31q0 16 4 36q14 62 64 110t130 68q37 9 82 10q51 0 112 -13q139 264 312 482.5t381.5 396t368.5 240.5q-22 1 -44 1 q-134 1 -264 -21q-152 -24 -384 -107t-482 -257.5t-418.5 -349t-259 -354.5t-128.5 -380zM1363 387q247 87 377 242q105 124 104 293q0 41 -6 86q-32 224 -216 306q-77 -133 -150 -317q-74 -183 -93 -353q-16 -146 -16 -232v-25z" />
<glyph unicode="V" horiz-adv-x="2561" d="M350 842q0 200 95 409.5t330.5 482t614.5 526.5t668 328t522 74q159 -6 159 -48q-1 -45 -83 -69q-80 -23 -211.5 -113.5t-299.5 -281t-290.5 -392t-246.5 -467.5q93 -115 93 -246v-19q-7 -142 -71 -275t-248 -287l-32 -181q208 173 376 291.5t454.5 309.5t521 381.5 t373.5 391.5t184 396q22 96 22 165q1 71 -23 113q-46 83 -134 105q-32 8 -62 8q-51 0 -96 -24q-70 -38 -82 -94q-3 -14 -3 -27q-1 -37 27 -61q21 -18 47 -19q19 1 41 11q24 11 42 11q19 0 29 -13q9 -11 9 -23q0 -17 -16 -37q-28 -34 -80 -49q-16 -5 -32 -5q-38 0 -80 24 q-62 34 -78 118q-4 19 -4 37q0 63 42 125q54 80 164 110q53 14 102 15q53 0 101 -17q93 -32 147 -106t58 -222q-4 -171 -114 -400.5t-362 -472t-614.5 -487t-580 -397.5t-357.5 -272t-165 -265.5t-89 -240t-132 -140t-113 -49.5q-51 11 -81 51q-22 30 -22 93q0 20 2 44 q10 97 67.5 183.5t155 154t165 115.5t97.5 285q-141 -90 -295 -124q-70 -16 -134 -16q-76 0 -144 22q-124 40 -201 124.5t-105 180t-28 255.5zM530 745q18 -175 148 -285q106 -90 227 -90q29 0 57 5q154 25 305 142q46 281 95.5 447.5t101.5 280.5q-72 27 -130 27 q-42 0 -75 -14q-80 -34 -101 -84q-20 -49 -49 -50h-1q-23 1 -23 34q0 10 2 22q9 54 59 104t138 70q33 7 73 7q65 0 145 -20q96 241 242.5 470t369 455.5t418.5 314.5q-209 -8 -376.5 -49.5t-394.5 -153t-523 -362t-463 -498.5q-167 -250 -215 -424q-35 -128 -34 -255 q-1 -47 4 -94zM914 -336v-6q0 -39 19 -39q9 -1 23 9q44 30 77.5 92.5t92.5 236.5q-120 -96 -165 -162.5t-47 -130.5zM1403 603q157 181 189 332q10 49 10 94q0 91 -44 161q-106 -312 -155 -587z" />
<glyph unicode="W" horiz-adv-x="3825" d="M350 842q0 200 95 409.5t330.5 482t614.5 526.5t668 328t522 74q159 -6 159 -48q-1 -45 -83 -69q-80 -23 -211.5 -113.5t-299.5 -281t-287 -381.5t-254 -481q97 -112 97 -244v-18q-7 -142 -71 -275t-248 -287l-35 -163q197 166 275 216.5t157.5 109t221.5 144.5 q173 304 343 425q168 122 288 142q26 4 49 4q81 0 117 -56q25 -38 25 -82q0 -36 -18 -78q-39 -90 -132.5 -148t-237.5 -114t-242.5 -113t-160.5 -235q-38 -110 -37 -212q-1 -62 13 -122q38 -158 124 -250q88 -93 276 -114q29 -3 59 -3q164 1 353 97q224 114 430.5 347.5 t345.5 500.5q140 268 208 554q55 228 55 418q1 49 -3 95q-18 227 -88 299q-53 54 -118 54q-21 0 -44 -6q-91 -24 -174.5 -124t-137.5 -252t-62 -282q-2 -29 -1 -53q0 -89 23 -139q22 -46 49 -47q9 0 19 7q38 23 56 53.5t44 16.5q15 -8 16 -27q0 -14 -8 -35q-19 -50 -75 -90 q-30 -22 -65 -22q-30 0 -62 16q-70 34 -86 164q-6 50 -6 103q0 85 16 178q26 151 107 310t167.5 239t155.5 100q52 15 89 14q13 0 23 -2q42 -6 98 -36.5t115 -126.5t84.5 -208t25.5 -275q0 -250 -116.5 -556t-244 -507t-314.5 -413t-375 -326t-318.5 -140.5t-196 -26.5 t-188 28t-224.5 131q-104 102 -142 299q-10 50 -9 107q0 166 83 388q-160 -104 -239 -161t-157.5 -124t-276.5 -238q-123 -355 -184 -451t-129 -142.5t-113 -49.5q-51 11 -81 51q-27 36 -26 106v15q3 81 54.5 170.5t133.5 167t258 222.5l45 194q-141 -90 -295 -124 q-70 -16 -134 -16q-76 0 -144 22q-124 40 -201 124.5t-105 180t-28 255.5zM530 745q18 -175 148 -285q106 -90 227 -90q29 0 57 5q154 25 305 142q46 281 95.5 447.5t97.5 280.5q-77 40 -136 40q-29 0 -54 -10q-74 -29 -110 -91q-35 -60 -58 -60h-1q-17 1 -17 30q0 10 3 26 q9 54 59 108t134 74q28 7 61 7q68 0 161 -28q96 241 242.5 470t369 455.5t418.5 314.5q-209 -8 -376.5 -49.5t-394.5 -153t-523 -362t-463 -498.5q-167 -250 -215 -424q-35 -128 -34 -255q-1 -47 4 -94zM879 -352q9 -30 34 -31q15 -1 35 11q54 30 86.5 92.5t112.5 285.5 q-163 -140 -223 -225q-48 -68 -48 -113q0 -10 3 -20zM1403 603q157 181 189 332q10 49 10 94q0 91 -44 161q-106 -312 -155 -587zM2148 853q232 133 366 183t162 112q11 25 12 44q0 29 -26 46q-10 7 -26 7q-52 -1 -172 -71q-156 -92 -316 -321z" />
<glyph unicode="X" horiz-adv-x="4114" d="M509 188q8 76 28 149t76 139q57 66 121 94q56 24 123 25q9 0 19 -1q78 -4 136 -46q46 -34 47 -62q0 -7 -3 -14q-14 -34 -38 -31q-26 3 -64 31q-34 25 -98 25q-8 -1 -17 -1q-77 -4 -131 -62q-54 -60 -76 -132q-14 -46 -15 -103q0 -33 5 -69q14 -100 96 -156 q73 -49 184 -49q14 0 29 1q131 7 224.5 58.5t216.5 179.5t307.5 381.5t433.5 655.5q-123 278 -235.5 511t-223 413t-211 274t-236.5 111q-29 4 -56 4q-100 0 -174 -50q-93 -64 -139 -191q-30 -84 -31 -159q1 -40 9 -76q24 -108 94 -181t145 -87q38 -7 72.5 -7t65.5 7 q20 4 34 5q36 0 36 -25q0 -29 -101 -59q-51 -15 -99 -15q-51 0 -99 18q-90 34 -160 104t-96 178q-20 85 -21 161q0 21 2 41q7 94 59.5 198t162.5 183t221 79q139 0 234 -37.5t224 -152.5t278.5 -356.5t373.5 -702.5q136 244 261 448.5t267.5 354t252 215t201 107t176.5 55.5 q38 6 73 7q43 0 77 -10q64 -18 87 -70q13 -29 13 -58q0 -24 -9 -50q-19 -56 -87 -72q-34 -9 -80 -9q-46 1 -104 9q-64 10 -123 9q-48 0 -95 -6q-104 -14 -253.5 -160.5t-247 -291t-345.5 -600.5q170 -336 303.5 -569t230.5 -392t182 -231.5t192 -93.5q72 -14 136 -14 q30 0 58 3q88 10 172.5 68.5t138.5 145.5q55 86 77 208q12 65 12 126q0 52 -10 100q-20 104 -79.5 163t-154.5 83q-56 14 -112 14q-40 0 -82 -7q-98 -17 -168 -107q-70 -92 -76 -178q-1 -11 0 -21q0 -71 35 -110q33 -37 33 -66q0 -7 -2 -13q-6 -22 -30 -22q-14 0 -36 8 q-58 20 -89 120q-13 44 -13 92q0 64 22 134q40 124 137 200.5t195 86.5q41 4 79 4q54 0 103 -8q85 -14 186.5 -89t140 -186.5t38.5 -194.5q-7 -98 -29 -191.5t-85 -203.5t-161 -183.5t-286 -93.5q-208 7 -327.5 55t-234.5 162.5t-281 391.5t-338 622 q-149 -219 -324.5 -475.5t-345.5 -454.5t-314 -270.5t-284 -72.5t-236 52t-133 145t-37 184z" />
<glyph unicode="Y" horiz-adv-x="3102" d="M238 -622q0 126 76.5 213.5t213.5 114.5q44 9 98 9q113 0 268 -39q229 -59 651 -335q173 113 266.5 217.5t171 241t107.5 231.5q-185 56 -254 225q-53 130 -53 261q0 39 5 77q20 170 89.5 375.5t178 414t260.5 468.5q-77 143 -194.5 300.5t-248.5 241t-336 106.5 q-65 8 -126 8q-132 0 -245 -34q-167 -51 -267.5 -178t-133.5 -290q-11 -56 -11 -116q0 -112 40 -234q63 -187 226 -322.5t499 -141.5q16 -18 16 -34q0 -28 -49 -51q-194 10 -338 56t-252.5 141t-174.5 247.5t-71 302.5q-1 14 -1 29q0 135 45 271q51 151 150 251.5t264 162.5 q143 54 317 54q27 0 54 -2q206 -9 372.5 -77.5t322 -226t242.5 -314.5q65 110 150.5 229.5t191 238.5t188.5 143q65 -2 65 -47q0 -12 -4 -26q-56 -54 -56 -101.5t21.5 -103t71.5 -107.5t110 -67q192 200 366.5 303.5t352 163.5t347.5 60q334 0 334 -207q0 -116 -106 -216 t-256 -172.5t-414 -116.5q-141 -24 -303 -24q-142 0 -301 18q-78 -85 -191 -245.5t-223 -385.5q90 -239 127 -372.5t39 -263.5v-17q0 -121 -26 -236q-28 -122 -99 -223t-201 -161q-129 -60 -385 -60h-9q-88 -239 -239 -435t-305 -302q99 -87 200 -160.5t201 -92.5 q31 -6 62 -6q69 0 139 30q102 44 138 142q20 54 20 102q0 38 -13 72q-29 75 -110 100q-13 5 -27 5q-72 0 -164 -113q-59 8 -59 40q0 16 15 38q44 66 137 110q34 17 71 17q63 0 134 -48q111 -76 116 -215v-24q0 -121 -42 -194q-46 -81 -138.5 -131.5t-215.5 -50.5 q-131 0 -249 59t-338 221q-146 -98 -275 -136t-270 -53q-66 -7 -136 -7q-77 0 -156 8q-153 17 -246.5 70.5t-155.5 127t-62 198.5zM348 -618q8 -91 88.5 -169.5t203.5 -99.5q103 -18 221 -18q22 0 45 1q143 4 285.5 46t232.5 111q-57 55 -260 180.5t-334 156.5 q-91 22 -180 22q-40 0 -80 -4q-128 -14 -178 -74q-44 -53 -44 -129v-23zM1914 490q13 -274 216 -329q43 138 131.5 370.5t329.5 744.5q-64 150 -109.5 255t-102.5 213q-238 -381 -358 -681q-108 -271 -108 -520q0 -27 1 -53zM2244 133q253 0 357.5 95t138.5 260 q21 100 21 197q0 64 -9 128q-23 159 -103 350q-162 -369 -240.5 -577t-164.5 -453zM2498 1920q66 -148 106.5 -233.5t96.5 -227.5q52 124 125 240t227 312q-100 31 -173 121.5t-79 216.5q-72 -83 -149.5 -188.5t-153.5 -240.5zM3276 2125q126 -19 290 -19q67 0 140 4 q252 10 404 69t238 138q79 73 79 146q0 6 -1 13q-7 79 -98 101q-50 12 -118 12q-54 0 -120 -7q-148 -18 -355 -116t-459 -341z" />
<glyph unicode="Z" horiz-adv-x="4019" d="M565 -140q0 103 86 222.5t259.5 213t418.5 93.5q358 468 633 858t659 855q-162 30 -348.5 99t-451.5 168t-389 117q-55 8 -115 9q-75 0 -157 -13q-148 -23 -271 -156.5t-131 -291.5q-1 -13 0 -26q0 -140 78 -212q81 -76 202 -76h11q128 4 231.5 76t131.5 172q10 37 10 63 q0 45 -31 61q-40 19 -67 20q-6 0 -12 -1q-30 -5 -38 29q-1 3 0 6q0 30 68 44q17 4 35 3q55 1 99 -39q53 -46 54 -129q0 -9 -2 -19q-6 -96 -73 -192t-175.5 -144.5t-217.5 -55.5q-16 -1 -32 -1q-92 0 -174 35q-98 41 -155.5 135.5t-58.5 210.5v5q0 113 42 220 q42 110 139 204.5t233.5 146t258.5 51.5q152 0 375.5 -49.5t443.5 -130.5t596 -187q98 93 171 139t155.5 77t173.5 36q11 1 22 0q76 0 126 -31q45 -29 46 -80q0 -13 -4 -27q-14 -72 -107 -148t-259 -116q-130 -31 -244 -31q-32 0 -63 2q-228 -255 -472 -599t-822 -1101 q117 -7 382 -99.5t447 -178.5t364 -161q184 -76 304 -90q41 -5 81 -5l159 19q120 28 244 114q126 85 170 236q25 85 25 166q1 63 -15 123q-34 138 -172 210q-111 58 -214 58q-24 0 -48 -3q-124 -17 -203 -62q-79 -46 -137 -138q-55 -87 -56 -169v-9q4 -86 59 -138 q48 -45 115 -46q9 0 19 1q79 7 113.5 34.5t69.5 96.5q33 -38 33 -75q0 -15 -6 -31q-21 -52 -97 -90q-56 -28 -124 -28q-25 0 -51 4q-100 14 -165 76q-64 62 -68 172q0 7 -1 14q1 103 49 199q52 103 168.5 185.5t271.5 106.5q42 6 83 6q113 1 227 -47q154 -66 223 -187.5 t69 -266.5q0 -198 -106.5 -355t-289 -240t-409.5 -83q-179 0 -334 52t-371 162q-218 110 -502 230q-278 118 -373 117h-5q-90 -105 -190.5 -224t-238 -215.5t-264.5 -96.5q-117 0 -124 141zM730 -52q-7 -23 -7 -39q0 -40 43 -40q7 0 15 1q78 10 209 118.5t249 269.5 q-26 3 -51 3q-81 0 -158 -34q-101 -45 -186.5 -118t-113.5 -161zM2875 2222q37 -10 80 -10q62 0 134 22q121 38 182 86q44 34 44 61q1 11 -7 20q-15 20 -50 20q-21 1 -49 -7q-74 -20 -151 -59t-183 -133z" />
<glyph unicode="[" horiz-adv-x="1089" d="M-79 103q13 123 61.5 181t123 123.5t146 223t144.5 327t242 450t318.5 454.5t332.5 329.5t395.5 268t367 156.5t354.5 44q181 -5 318 -78t200.5 -172t69.5 -257q-1 -159 -53 -286.5t-154 -232.5t-241 -166.5t-303 -80t-298.5 11t-199.5 61t-119 101.5 q-122 -110 -309.5 -233t-338.5 -343t-210.5 -382t-85 -270.5t-104 -147t-13 -62.5t239.5 81t274.5 204.5t134.5 50.5q-62 -100 -164.5 -197t-228 -181t-297.5 -96q-137 12 -174 48.5t-15.5 86.5t73 83t95.5 59.5t121.5 264.5t202.5 430q-117 -147 -200 -250.5t-171 -194 t-164.5 -148.5t-113.5 -149.5t-45.5 -136t-45.5 -65t-85.5 -16t-80.5 105.5zM356 574q52 39 193.5 218.5t286.5 327t272 358t272.5 342t254.5 203t208.5 85.5t113.5 -64.5t-39 -172t-178 -227.5q52 -72 117 -115t230.5 -49t311.5 36t267 165.5t150 305.5t-18 309t-167 188.5 t-307.5 68t-406 -85.5t-498.5 -310t-482 -491.5t-345 -548.5t-236 -543zM1226 1412q194 118 319 242q-50 90 2.5 132.5t127.5 -12.5q140 134 97 166q-67 16 -239.5 -144t-306.5 -384z" />
<glyph unicode="\" horiz-adv-x="1409" d="M-367 2530l105 13l244 -429l750 -1201l571 -918l-148 -19l-646 1103z" />
<glyph unicode="]" horiz-adv-x="882" d="M-2511 -437q9 149 72.5 266.5t156 201t176 126.5t196.5 75l4 -59q-165 -75 -264.5 -149.5t-156 -195t-62 -244t64.5 -218.5t191 -147.5t312 -73t370.5 -0.5t358.5 79t340 147t316.5 248t265.5 311t239.5 387t229.5 433q-68 6 -75 37t13 53t105 20q192 387 246 493.5 t153.5 251.5t193.5 233.5t165 142.5t134 80.5t128 28.5q63 -2 91.5 -28t27 -67t-44 -81.5t-143 -48t-175 -51t-147.5 -109t-154.5 -174.5t-184 -324.5t-163.5 -346.5l227 6q150 300 248 469t187.5 273.5t170 174t145 115.5t113 88.5t107.5 53t110 -9.5t51 -83t-57 -101.5 t-135 -37t-162 -39.5t-171.5 -134.5t-193 -247.5t-277.5 -524q257 -13 305.5 -7.5t53.5 -42.5q-34 -68 -403 -57q-163 -322 -271 -519t-213 -359.5t-215.5 -293.5t-208.5 -214t-210 -132q234 35 345 70t242 97.5t226.5 136t136.5 157t32.5 124t18.5 69.5t46 18.5t19 -83 t-37.5 -166.5t-91 -148.5t-165.5 -129t-297 -143t-420.5 -96.5t-342.5 -72t-200 -44.5t-128.5 31.5t-8.5 59t-19 5t-212.5 -75.5t-412.5 -75.5q-253 12 -400 38.5t-257 96t-180 173.5t-75 283zM-744 -787q95 -15 186 11.5t202 96t211.5 172t216 263t244.5 375t209.5 375 t121.5 244.5q-140 4 -214 4q-111 -223 -203 -399t-226 -379.5t-281 -374.5t-467 -388z" />
<glyph unicode="^" horiz-adv-x="1905" d="M298 1336q3 55 131 167t209 160.5t240 115.5q-31 99 -8 171t74 120.5t115 55.5q58 -7 100.5 -58t35 -149.5t-125.5 -176.5q20 -37 83 -105.5t172.5 -117.5t160.5 -98t54 -130q-8 -69 -93 -78q-29 -3 -59 14.5t-48.5 58t-46 82.5t-150.5 121t-205 193 q-153 -46 -243.5 -100t-131.5 -98t-25.5 -106.5t-5 -117t-99.5 -57.5q-52 0 -93 31t-41 102zM984 1953.5q-14 -58.5 28 -104.5q66 28 71 96.5t-16.5 76t-45 -1t-37.5 -67z" />
<glyph unicode="_" horiz-adv-x="3911" d="M-431 -750q0 165 112 316.5t313 267.5t377 157t360.5 43.5t350 -46.5t256 -134.5t107.5 -190t-44 -231.5l299 -87q100 85 156.5 160.5t102.5 139.5q-101 49 -196 141t-152 183.5t-82.5 212.5t19 238t149 200t282.5 84q115 -1 194 -50.5t126.5 -143t51 -212.5 t-50.5 -255.5t-211 -352.5q68 -43 150 -66q99 99 201 139t195 33t165.5 -51.5t72.5 -117.5t-38.5 -119t-120.5 -69.5t-209.5 -1t-247.5 67.5q-57 -54 -94.5 -104t-98.5 -171q125 -46 506 -138t795.5 -126.5t613 4t347 165t215 278t52.5 330.5t-132.5 311t-259 187t-283.5 58 t-303 -41t-267 -132.5t-143 -187t-21.5 -210.5t96 -165t170 -50.5t127 49t80 19t27.5 -82.5t-96.5 -77t-209 -5.5t-209.5 97.5t-94 211.5t36 241t146 198.5t250.5 151.5t383.5 74.5q253 -17 393.5 -80t234 -162.5t142 -220.5t48.5 -231q0 -121 -26.5 -234t-90 -231 t-198 -236.5t-311 -176.5t-446.5 -69q-264 0 -622 52.5t-631.5 129t-365.5 110.5q-17 -71 -10 -174.5t69.5 -175.5t168.5 -82t164 48t104 63t80.5 -30.5t13 -80.5t-109 -73.5t-162.5 -28.5q-190 3 -292 85t-124 213.5t9 275.5q-150 59 -274 114q-254 -176 -427.5 -253 t-352.5 -124t-361 -55t-366 14t-311 73.5t-197.5 151.5t-70.5 248zM-305 -869.5q45 -136.5 220 -201t312.5 -73t272.5 -3t319.5 41.5t366.5 118.5t391 220.5l-259 104q-115 -115 -269.5 -178.5t-262 -72t-203.5 5.5t-170.5 55.5t-102 118.5t-3 143t91 118.5t223.5 63.5 t316.5 -25t368.5 -107q39 77 33.5 159.5t-82.5 159.5t-228.5 115.5t-314 41.5t-372 -58t-369 -171t-242 -275t-37.5 -301.5zM428.5 -719.5q41.5 -74.5 132.5 -96.5t195.5 -22t231.5 38.5t264 159.5q-330 122 -525.5 138.5t-267.5 -63.5t-30.5 -154.5zM1677 220.5 q16 -132.5 94.5 -253t236.5 -231.5q99 125 169 258.5t69 268.5t-54 221.5t-142.5 105.5t-185 -13t-149.5 -128t-38 -228.5zM1792 -687l193 -61q17 47 67 134t118 156q-82 29 -135 60q-59 -84 -114 -151.5t-129 -137.5zM2340 -412q51 -17 137 -35t155.5 -4.5t97.5 63.5 t-52 78t-169 3.5t-169 -105.5z" />
<glyph unicode="`" horiz-adv-x="715" d="M113 1305q1 31 14.5 53t35 38t58.5 17q46 -4 68 -49t66 -94t144.5 -119t120.5 -104q-2 -43 -31 -47h-5q-23 0 -42 9q-21 9 -140 94t-171.5 105t-83.5 40.5t-34 56.5z" />
<glyph unicode="a" horiz-adv-x="822" d="M-62 195q2 104 96 257t189.5 262.5t152 136.5t112.5 29q52 -3 84 -35q33 -33 50 -95q3 -11 3 -23q1 -65 -69 -195q-84 -156 -91 -270q-1 -12 -1 -23q0 -91 51 -99q10 -2 20 -2q47 0 89 36q52 42 80 68q22 20 55 21q9 0 19 -2q-3 -56 -55.5 -121t-105 -102.5t-130.5 -40.5 q-117 2 -136 181q-149 -176 -234 -177h-4q-82 -1 -128 45q-47 46 -47 149zM85 282q-8 -33 -8 -57q0 -65 62 -65h5q90 3 155.5 100.5t146.5 261.5q46 93 46 146q0 42 -28 60q-12 8 -26 9q-63 0 -179 -149q-142 -182 -174 -306z" />
<glyph unicode="b" horiz-adv-x="736" d="M-61 130q5 137 131.5 361t324.5 544t397.5 549t377 354.5t391.5 139.5q175 -20 181 -116q-21 -86 -97 -112q-64 -22 -158 -22q-18 0 -37 1h-16q-112 0 -246 -63q-142 -68 -269 -188t-284 -366t-213 -350q-27 -50 -28 -64q0 -5 4 -6q8 0 28 18q60 52 113 60q8 1 16 1 q43 0 77 -41q15 -18 16 -58q0 -64 -41 -186q-66 -196 -149.5 -325.5t-181 -195t-227.5 -65.5q-110 2 -110 130zM92 254q-6 -23 -6 -44q0 -50 35 -90q13 -15 31 -15q48 0 127 112q108 153 179 329q40 99 40 142q0 34 -24 34q-55 0 -106 -47.5t-153.5 -195t-122.5 -225.5z" />
<glyph unicode="c" horiz-adv-x="613" d="M-60 195q2 104 96 257t189.5 262.5t152 136.5t112.5 29q72 -6 115.5 -37.5t46.5 -92.5q-9 -27 -40 -27q-15 1 -36 7q-55 18 -108 17h-16q-61 -3 -190 -177q-130 -176 -164 -278q-10 -31 -11 -53q-1 -53 55 -63q13 -2 27 -2q65 0 121 56q68 68 102 104q26 28 46 29 q6 0 12 -3q7 -3 7 -14q0 -24 -36 -85q-52 -88 -134.5 -173.5t-176.5 -87.5q-82 0 -126 46.5t-44 148.5z" />
<glyph unicode="d" horiz-adv-x="856" d="M-60 195q2 104 96 257t189.5 262.5t163.5 139.5q62 27 100 26h8q40 -3 76 -51q5 -7 13 -7q47 0 195 255q172 296 371 525.5t376.5 354.5t392.5 141q176 -21 181 -119q-20 -85 -96 -111q-63 -21 -157 -21q-18 0 -38 1h-16q-111 0 -245 -64q-142 -69 -269.5 -188 t-285 -364.5t-228 -357t-173.5 -283.5q-102 -173 -124 -285q-8 -38 -8 -66q0 -58 30 -84q18 -15 41 -16q37 0 85 36q80 60 116 110q23 33 45 32q12 0 23 -9q-3 -61 -60.5 -142t-114.5 -122.5t-165 -48.5q-104 4 -109 182q-149 -176 -234 -177h-4q-82 -1 -128 45 q-47 46 -47 149zM99 262q-4 -18 -4 -33q0 -55 52 -60h9q60 1 130 91q74 98 150 257q44 93 44 146q0 37 -22 53q-9 6 -20 6q-57 0 -178 -171q-144 -203 -161 -289z" />
<glyph unicode="e" horiz-adv-x="682" d="M-57 130q0 163 112.5 362t224.5 291t213 94q86 0 127 -29t41 -83q0 -80 -76.5 -170.5t-197.5 -164t-210 -120t-96 -108.5q-1 -7 -1 -13q0 -49 48 -67q21 -8 47 -8q41 0 95 19q88 31 165.5 76t105 73t47 8.5t-6.5 -56.5t-103 -100t-170 -100.5t-215 -37.5q-150 0 -150 134 zM157 411q169 83 277 171q95 77 95 124q0 7 -2 13q-13 42 -48 42q-5 -1 -11 -1q-44 -8 -103 -56.5t-125 -138.5t-83 -154z" />
<glyph unicode="f" horiz-adv-x="616" d="M-1314 -1083q20 85 96 111q64 23 158 23q18 0 37 -1h17q114 0 264 59q161 64 328.5 289t347 614.5t352.5 728.5h-32q-255 0 -264 46l1 36q3 39 74 39q12 0 27 -1q60 -5 137 -5q48 0 103 2q223 470 485.5 801t533.5 523t572 314t694 146q274 0 437 -30t310.5 -89 t250.5 -138t160.5 -177.5t57.5 -245.5q-8 -138 -85.5 -261t-227 -226.5t-319 -154.5t-400.5 -67q-262 1 -412.5 35t-279.5 120t-184 192q-36 70 -36 101q0 16 10 22q5 3 10 3q27 0 69 -71q50 -84 176.5 -176.5t329.5 -126.5q118 -20 237 -20q89 0 179 10q212 26 384.5 103 t282 181t143.5 234q14 54 14 105q0 71 -28 137q-47 112 -196.5 209t-341.5 140t-397 45q-14 1 -28 1q-193 0 -409 -33q-233 -34 -458.5 -127.5t-463.5 -265.5t-382 -335t-299 -400t-278 -483q161 0 395 -3v-10q0 -99 -100 -99h-334q-115 -218 -232.5 -462.5t-273.5 -579 t-308.5 -503t-330 -275t-392.5 -122.5q-176 21 -181 118z" />
<glyph unicode="g" horiz-adv-x="686" d="M-3215 -774q0 128 80 233.5t191 158.5q74 37 103 37q13 0 17 -9q1 -3 1 -7q0 -23 -49 -51q-56 -32 -133.5 -104.5t-104.5 -183.5q-8 -30 -8 -64q0 -89 54 -200q73 -153 270 -265.5t495 -130.5q72 -4 145 -4q229 0 466 42q312 57 663 221.5t671 447.5t472 521 q106 166 106 192q0 4 -3 4q-5 0 -17 -9q-56 -43 -98 -43q-8 0 -16 2q-47 10 -68 65q-15 36 -15 126q0 46 4 106q11 177 92.5 310t163 194.5t180.5 61.5q168 -13 175 -130q-5 -177 -97 -381t-260 -473t-424.5 -522.5t-615 -464.5t-674.5 -301.5t-706 -90.5 q-333 0 -496.5 54.5t-296 150.5t-200 227t-67.5 280zM136 232q1 -53 35 -53q24 0 63 24q97 59 172 192t80 245q1 8 1 16q0 95 -60 101h-7q-62 0 -137 -93q-80 -99 -114 -222q-33 -119 -33 -205v-5z" />
<glyph unicode="h" horiz-adv-x="844" d="M-81 109q20 97 51 190t161 358.5t336.5 564t365 461t254.5 242.5t172 122.5t169 42.5q75 -17 88 -103q-13 -81 -63.5 -119t-124 -59.5t-157.5 -50t-251 -172t-318.5 -344t-328.5 -522.5q118 91 179.5 126.5t126.5 37.5h6q61 0 85 -32q27 -34 27 -94t-67 -206 q-68 -146 -126 -272q-42 -90 -42 -132q0 -18 6 -26q16 -22 42 -22q12 0 28 5q46 15 112 66q41 32 65 32q15 0 25 -12q5 -6 5 -15q1 -33 -73 -99q-92 -83 -188 -83q-85 0 -129 78q-17 30 -17 69q0 59 41 141q68 134 132 296q30 76 30 116q0 46 -38 46q-2 0 -4 1 q-70 0 -133 -49q-65 -50 -130.5 -124t-108 -184t-60.5 -184t-32 -138q-13 -62 -73 -62h-6q-37 5 -37 109z" />
<glyph unicode="i" horiz-adv-x="519" d="M-39 133q0 137 59 268t165 300t175 177q14 2 26 2q46 0 58 -25q8 -16 8 -33q0 -15 -7 -31q-14 -33 -96.5 -113t-154.5 -213t-90 -209q-6 -26 -7 -47q1 -41 25 -63q15 -13 36 -13q30 -1 74 27q74 46 106 84q24 27 44 26q8 0 14 -4q26 -14 16 -49t-71.5 -92t-121.5 -90 t-159 -36q-99 1 -99 134zM467 1092q-5 19 -5 34q0 35 28 52q42 24 98 24q48 -9 54 -64q-4 -67 -30 -90q-23 -20 -65 -20h-11q-50 2 -69 64z" />
<glyph unicode="j" horiz-adv-x="560" d="M-1361 -1083q20 85 77 107q28 10 68 10q44 0 104 -13q38 -8 78 -8q83 0 179 33q142 50 328 240t352 442.5t306 509t185 396.5q13 40 13 67q0 50 -48 50q-14 0 -32 -4h-16q-76 0 -76 44q0 50 61 50q3 0 6 -1h14q57 0 112 19q60 21 116 23h16q45 0 76 -8q38 -8 26 -46 t-105 -41q-42 -177 -175.5 -446t-301 -533.5t-362 -496.5t-412 -369t-408.5 -143q-176 21 -181 118zM444 1092q-5 19 -5 34q0 35 29 52q41 24 97 24q48 -9 54 -64q-3 -67 -29 -90q-24 -20 -66 -20h-12q-50 3 -68 64z" />
<glyph unicode="k" horiz-adv-x="830" d="M-86 109q20 97 51 190t161 358.5t336.5 564t365 461t254.5 242.5t172 122.5t169 42.5q75 -17 88 -103q-13 -81 -63.5 -119t-124 -59.5t-157.5 -50t-251 -172t-318.5 -344t-328.5 -522.5q118 91 179.5 126.5t126.5 37.5h6q62 0 86 -32q27 -34 27 -95q-1 -59 -51 -147 t-140 -138t-194 -67q33 -133 68.5 -194t85.5 -87q29 -15 59 -15q21 -1 42 7q52 18 111 70q39 34 59 34q11 0 17 -9q3 -4 3 -10q1 -31 -77 -109q-92 -92 -191 -95q-115 0 -162 59t-77.5 150.5t-33.5 254.5q113 17 180.5 46t122.5 131q24 44 24 69q0 33 -41 33q-2 0 -4 1 q-70 0 -133 -49q-65 -50 -130.5 -124t-108 -184t-60.5 -184t-29.5 -134.5t-81.5 -65.5q-37 5 -37 109z" />
<glyph unicode="l" horiz-adv-x="543" d="M-53 114q2 92 33 185t161.5 358.5t337 564t364.5 461t254 242.5t172 122.5t169 42.5q75 -17 88 -103q-13 -81 -63 -119t-124 -59.5t-158 -50t-251 -172t-318 -344t-277.5 -444t-182.5 -384t-62 -206.5q-1 -12 -2 -22q0 -47 26 -58q9 -4 19 -4q25 0 59 24q48 34 90 74 q31 31 54 32q8 0 14 -4q26 -14 15.5 -49t-65.5 -88.5t-105 -82t-149 -31.5q-99 1 -99 115z" />
<glyph unicode="m" horiz-adv-x="1228" d="M-12 27q7 51 81 185.5t125.5 246.5t61.5 165q5 26 5 47t-5 37q-10 31 -62 35h-9q-45 0 -79 -35q-36 -39 -58 -56t-50 9q20 70 54 111t62 61t62 33.5t86 13.5q36 0 62 -10.5t46 -29.5t32 -44t10 -49.5t21.5 10.5t63.5 65.5t72 42.5t75 17q27 -7 44.5 -17.5t31.5 -32.5 t17 -112q53 72 94.5 103t76 41.5t56.5 12.5q34 -3 55.5 -14.5t33.5 -35.5q13 -24 15 -67q0 -6 -1 -12q-1 -37 -13 -76q-16 -45 -107.5 -261t-97 -245.5t5.5 -52.5t40 -31q8 -2 17 -2q22 0 48 14q36 18 56 38t39 33.5t42 8.5q-2 -30 -13 -50t-46.5 -56t-87.5 -55t-106 -21 q-30 2 -63 14.5t-49 44.5q-16 33 -21 71q-1 9 -1 18q0 32 13 69q17 49 79 177q60 128 92 207q24 60 24 93q0 10 -2 18q-10 32 -47.5 31t-78 -36t-65.5 -76.5t-82 -194.5t-94.5 -239.5t-66 -128.5t-61.5 -51.5t-65 -9.5q-24 11 -23 36.5t51 129.5t108 235q58 130 80 210 q18 64 18 92q0 7 -2 12q-6 24 -32 28q-5 1 -9 1q-23 1 -55 -15q-38 -18 -73.5 -70t-70 -150t-88 -207t-100 -191.5t-80.5 -96.5t-57 -14q-31 3 -35 28z" />
<glyph unicode="n" horiz-adv-x="924" d="M-6 40q5 34 57.5 127.5t124.5 256.5q72 162 86 217q8 29 7 51q0 20 -6 33q-13 29 -44 36t-61.5 -6t-54.5 -38.5t-34.5 -39t-25.5 -13.5t-22 19q7 37 22 62.5t48.5 58.5t81 54.5t103.5 21.5q38 -6 62 -16.5t43 -31.5q19 -20 27 -50q4 -15 3 -38q0 -20 -3 -46 q80 91 130.5 127t75.5 43t57 10q30 -3 48.5 -14t36.5 -36q20 -27 21 -70q-1 -40 -25 -109q-26 -73 -106 -251q-78 -176 -90 -224q-4 -16 -4 -30q0 -26 14 -46q16 -20 43 -21q11 0 24 4q44 12 80 42.5t53.5 43t40.5 4.5q-2 -25 -26 -55.5t-59 -62t-82.5 -44.5t-93.5 -15 q-37 2 -62.5 10.5t-48.5 48.5q-24 42 -24 79q0 36 19 86q20 52 62.5 138.5t84 182.5t47 137t-9.5 57t-46.5 11t-67.5 -32t-67 -61.5t-52.5 -84t-71 -162.5t-105.5 -219.5t-82 -139t-50.5 -39.5t-48.5 -6q-25 6 -29 40z" />
<glyph unicode="o" horiz-adv-x="761" d="M-58 187q4 181 101 307.5t187.5 201t147.5 126.5t119 58q56 -2 86.5 -16t64.5 -31q36 -17 96 -23q14 -2 28 -2q46 0 98 16q20 6 36 6q34 0 41 -33q-11 -53 -84 -79q-42 -15 -89 -14q-35 0 -72 8q-18 4 -31 4q-47 0 -48 -46q-1 -7 1 -15q1 -9 2 -20q0 -79 -68 -237 q-78 -180 -192 -287.5t-229 -110.5q-185 5 -195 187zM88 330q-19 -46 -20 -81q0 -49 38 -79q39 -31 77 -30q24 0 48 13q60 34 121.5 123t117.5 212q40 89 40 148q0 22 -6 40q-12 38 -44 38q-22 0 -56 -20q-80 -48 -175 -151t-141 -213z" />
<glyph unicode="p" horiz-adv-x="942" d="M-1286 -1080q8 74 89 107q66 27 160 27q21 0 43 -2h27q113 0 255 56q158 64 338.5 296t339.5 595t184 414t-19 25q-20 -11 -34 -11q-15 0 -21 15q-3 6 -3 12q0 28 43 72q51 53 102 128.5t70.5 142.5t61.5 113.5t135 52.5q72 -1 72 -39q0 -32 -41 -43q-44 -12 -64 -37 q-5 -6 -5 -10q0 -5 11 -5q13 0 42 8q30 9 61 9q37 0 75 -13q68 -23 98 -105q15 -40 15 -81q0 -45 -17 -93q-34 -90 -136.5 -193t-109.5 -163v-12q0 -49 50 -60q13 -3 27 -3q43 0 89 29q60 37 122.5 99.5t115.5 66.5q-14 -72 -70 -149.5t-122.5 -120t-145.5 -47.5 q-9 -1 -17 -1q-69 0 -121 39q-58 43 -63 139v11q0 91 81 179q85 93 144 177q39 54 39 100q0 25 -12 49q-20 39 -64 39q-27 0 -63 -15q-93 -40 -158.5 -174t-177 -387t-255 -541.5t-314 -466t-326 -262.5t-339.5 -85q-192 14 -192 118z" />
<glyph unicode="q" horiz-adv-x="797" d="M-986 -1355q0 43 63.5 85t188 51.5t246.5 30t223.5 104t199.5 206.5t177.5 260t134.5 291.5t84 296.5q12 60 12 92q0 39 -17 39q-3 0 -6 -1q-40 -12 -73 -53t-105 -50q-9 -1 -18 -1q-59 0 -93 52q-31 49 -31 140q0 23 2 48q9 126 91.5 286.5t184 237.5t168 98.5 t142.5 21.5q53 -6 77 -36t28 -90v-5q0 -65 -85 -283q-90 -228 -154 -482t-151 -455.5t-175 -333.5t-177 -230.5t-155 -148.5q-16 -12 -16 -19q0 -8 24 -8q34 0 118 17q191 38 352.5 129t240 181.5t118 189.5t41.5 175t35 91q3 1 6 1q27 0 32 -137q-40 -197 -141.5 -333 t-244 -221.5t-298.5 -134.5t-333.5 -57t-331 -64t-233.5 -69q-59 3 -97.5 24t-53.5 64zM132 180q10 -45 41 -45q28 0 73 39q94 79 155 175t105 215q25 66 25 104q0 31 -16 43q-17 14 -41 14q-26 0 -59 -15q-65 -30 -138 -118t-119 -207q-32 -83 -32 -150q0 -29 6 -55z" />
<glyph unicode="r" horiz-adv-x="682" d="M-18 32q0 27 14.5 67t69 160t94.5 205q42 86 52 152q6 36 5 64q0 24 -4 42q-9 40 -39 56q-21 10 -45 10q-11 0 -23 -2q-5 -1 -10 -1q-28 0 -39 31q0 43 37.5 56t72.5 13q40 0 86 -16t73 -65q18 -32 18 -104q0 -37 -5 -84q70 162 127.5 212t137.5 52q71 -2 108.5 -15.5 t77.5 -20t112 -6.5q-44 -48 -44 -79q0 -5 1 -9q1 -3 1 -7q0 -27 -66 -27q-4 0 -9 -1q-70 -1 -151 23q-33 9 -62 10q-45 0 -79 -24q-55 -39 -141.5 -193.5t-143 -281t-91 -182.5t-79.5 -68q-34 0 -43 7t-13 26z" />
<glyph unicode="s" horiz-adv-x="603" d="M-121 139q7 63 52.5 95.5t68.5 71t44.5 55.5t39.5 -11q4 -6 4 -15q0 -29 -45 -84q-25 -32 -25 -58q0 -33 41 -58q31 -18 61 -18l87 37q74 62 74 174q-1 112 -39 212q-30 78 -29 137q0 17 2 32q11 69 68 117t150 59q80 -5 107 -34t44.5 -51t43 -31t25.5 -65 q-34 -24 -62 -24q-22 0 -41 16q-42 34 -94 50q-14 4 -27 5q-35 0 -62 -32q-19 -22 -18 -54q1 -30 17 -69q36 -79 46 -176q4 -34 4 -67q0 -61 -13 -115q-20 -84 -92 -161t-195 -91q-118 11 -171.5 49.5t-65.5 103.5z" />
<glyph unicode="t" horiz-adv-x="588" d="M-39 178q0 78 63 223.5t183 332.5q-62 4 -62 37q0 5 1 9q9 42 119 65q59 83 155 200.5t136 137t71 19.5q25 -4 37 -18t4 -52t-79 -106.5t-151 -172.5q105 -30 216 -30h26h22q104 0 104 -37q0 -23 -68 -24q-68 0 -88 -24q-12 -14 -116 -14q-69 0 -179 6 q-82 -125 -156.5 -259.5t-92.5 -195.5q-14 -50 -14 -87q0 -9 1 -17q5 -43 51 -53q8 -2 16 -2q38 0 72 40q33 39 34 76q0 10 -2 19q-3 13 -4 24q0 29 21 52q20 21 47 21q12 0 28 -5q30 -10 31 -53q0 -22 -9 -56q-25 -94 -75.5 -149.5t-99 -70t-92.5 -14.5q-43 0 -86.5 29.5 t-53.5 68t-10 80.5z" />
<glyph unicode="u" horiz-adv-x="838" d="M-57 139q0 42 26.5 132.5t121.5 282.5t124 256t65.5 64t56.5 -28q10 -13 10 -32q0 -22 -12 -51q-22 -56 -88 -175t-111.5 -225.5t-48.5 -153.5v-10q0 -39 21 -57q24 -20 55 -14t67 32.5t65.5 65t58.5 92t79.5 159t103 210.5t76 138.5t41 41t46.5 8.5q32 -3 36 -18 t-1.5 -45t-54.5 -118t-122.5 -247t-87.5 -214q-8 -29 -8 -51q0 -20 6 -33q13 -29 44 -36q10 -2 20 -2q22 0 46 10q34 15 72.5 44.5t52.5 47t29.5 17.5t21.5 -17q-9 -32 -46 -74.5t-74.5 -73t-81.5 -48.5t-97 -23q-38 6 -62 15.5t-43.5 31t-26.5 51.5q-4 16 -4 39q0 20 3 45 q-80 -93 -130.5 -129t-75 -42t-56.5 -9q-31 3 -58.5 19.5t-43 49.5t-15.5 74z" />
<glyph unicode="v" horiz-adv-x="935" d="M-80 757q71 69 147 104t201 37q78 -2 116.5 -32t55 -58.5t43.5 -23t67 41.5t88 38q5 0 10 -1q42 -1 72 -19q34 -22 76 -84q37 -54 105 -54q11 0 23 2q84 10 154 36q20 7 36 7q39 0 52 -45q-42 -62 -147 -90q-100 -26 -161 -26h-6q-1 0 -3 1q-60 0 -97 -62 q-37 -63 -94 -141t-149 -170t-169.5 -143t-115 -63t-120.5 -12q-84 6 -99 34t-12 56.5t76 90t159 150.5t122 199q19 57 19 101q0 43 -17 75q-34 66 -100 74q-21 3 -44 4q-48 0 -102 -14q-78 -20 -121 -40q-13 -6 -23 -6q-26 0 -42 33zM214 185q-25 -20 -25 -30q0 -11 29 -11 l1 -1q56 1 142 75q87 74 169.5 175t107.5 185q10 34 10 59q0 37 -22 57q-13 11 -35 10q-41 0 -114 -38q0 -10 1 -20q0 -94 -43 -185q-47 -101 -108 -168t-113 -108z" />
<glyph unicode="w" horiz-adv-x="1347" d="M-80 744q69 67 153 100.5t167 37.5q91 -5 155 -42q65 -36 91 -134q7 -26 7 -55q0 -78 -53 -174q-72 -131 -162 -227q-58 -62 -57 -85q-1 -13 17 -15h6q49 0 139 67q95 71 157 153q62 84 114 146q37 44 64 44q12 0 22 -8q13 -10 13 -29q0 -29 -31 -77q-52 -80 -52 -182 t58 -124q16 -6 34 -6q47 0 106 42q80 58 118 148q24 57 25 117q0 35 -8 69q-21 96 -55 124q-32 26 -83 26h-5q-5 0 -10 -1q-48 0 -72 15q-26 16 -35 66q-1 5 -1 10q0 43 65 78q39 21 116 21q67 1 159 -15q95 -16 162 -17q76 1 116 21q27 13 46 13q34 0 37 -46 q-5 -47 -83 -95q-53 -32 -123 -33q-33 -1 -71 7q-26 5 -44 6q-42 0 -42 -28q0 -14 10 -34q39 -76 40 -171v-7q-2 -100 -51 -208t-121.5 -174t-146.5 -69q-77 1 -127 19q-50 17 -88 74q-30 44 -29 92q1 14 3 29q2 9 1 15q0 14 -8 14q-13 0 -51 -42q-70 -77 -142 -123.5 t-130 -61.5t-139 -19q-72 4 -92.5 34.5t-17.5 58.5t66 77.5t155 158.5t134 207q23 53 24 95q0 36 -17 65q-35 64 -103 70q-15 1 -31 1q-54 1 -116 -17q-79 -22 -123 -40q-11 -4 -20 -5q-29 0 -40 43z" />
<glyph unicode="x" horiz-adv-x="1035" d="M-191 203q5 79 26 113t57 46q21 7 39 7q14 -1 26 -5q28 -10 52 -42q17 -23 17 -52q0 -14 -4 -28q-10 -48 -46 -64q-36 -14 -10 -44q19 -21 60 -21q16 0 36 3q69 12 145 62.5t144 145.5t111 171q27 48 27 90q0 23 -9 45q-26 60 -74 75q-21 7 -44 7q-29 0 -61 -11 q-57 -19 -99 -44q-17 -10 -29 -10q-19 0 -27 20q-4 8 -3 18q1 28 35 62q46 45 98 67q52 24 106 26h9q51 0 117 -26q72 -28 96 -148q136 105 221.5 150.5t191.5 53.5q82 -8 107.5 -36.5t25.5 -70.5q-7 -45 -49 -65q-24 -11 -55 -12q-22 0 -46 6q-32 8 -68 8q-30 0 -62 -6 q-70 -12 -164 -78t-144 -156q-48 -87 -48 -167q0 -87 50 -127q43 -35 91 -35q5 0 10 1q54 4 102 22q13 5 23 4q27 0 31 -34q1 -4 1 -8q0 -40 -55 -74q-60 -36 -114 -40q-11 -1 -22 -1q-42 -1 -84 9q-52 12 -89.5 62t-50.5 150q-129 -142 -211.5 -182.5t-159.5 -45.5 q-64 2 -112.5 25.5t-81.5 65t-33 118.5z" />
<glyph unicode="y" horiz-adv-x="994" d="M-3035 -777q0 134 74.5 254t179.5 177q80 44 130 44q15 0 27 -4q18 -7 18 -16q0 -19 -63 -50q-97 -47 -165.5 -130t-87.5 -200q-4 -26 -4 -54q0 -97 50 -212q63 -149 247.5 -259.5t494.5 -130.5q83 -5 166 -5q229 0 458 40q314 55 665 219.5t660.5 452.5t406.5 472 t122 417q11 94 11 168q0 110 -23 176q-38 112 -128 165q-59 34 -116 34q-32 0 -63 -11q-88 -29 -119 -82q-16 -29 -33 -29q-15 0 -30 21q-10 13 -10 29q0 40 58 99q81 82 221 82q178 0 274 -160q85 107 182 127q25 5 54 5q80 0 188 -41q91 43 140 51q16 3 31 3q34 0 67 -13 q47 -17 48 -73q-8 -38 -77 -38q-4 0 -9 1h-6q-72 0 -118 -58q-49 -60 -128 -246t-298 -509t-457.5 -574t-597 -462t-674.5 -300t-706 -89q-333 0 -496.5 53t-296 149t-200 227t-67.5 280zM432 94q219 372 274 495q19 41 19 73q0 61 -73 82q-18 6 -35 6q-89 0 -164 -138 q27 -75 27 -181q0 -141 -48 -337z" />
<glyph unicode="z" horiz-adv-x="881" d="M-70 64q7 61 58.5 94.5t109.5 42.5t132 129t159 214q80 88 80 115q0 26 -47 52q-40 23 -114 35q-27 4 -54 4q-44 0 -86 -12q-66 -20 -92 -62q-23 -37 -45 -37h-4q-23 4 -28 41q-1 6 -1 11q0 33 24 71q28 44 81 78t144 38q80 -3 153.5 -28.5t132.5 -38.5q25 -5 49 -5 q33 0 64 10q54 18 112 26q27 4 48 4q24 0 38 -5q28 -9 32 -41q-7 -72 -67 -72t-124 -32t-117.5 -112t-140.5 -162.5t-132 -223.5q45 -46 152 -69q38 -8 74 -8q65 1 124 27q91 42 131 69q39 27 57 27h1q18 -1 22 -32q0 -3 1 -7q-1 -30 -35 -76q-38 -52 -116 -92t-195 -40 q-127 0 -185 27q-58 26 -114 48q-31 12 -61 12q-25 0 -49 -8q-54 -18 -78 -47q-22 -29 -53 -29h-3q-32 2 -38 64z" />
<glyph unicode="{" horiz-adv-x="1444" d="M323 -268q0 97 30.5 245t207 368.5t224 341.5t-28 233t-185.5 121t-109.5 61.5t211 99t461 172t544 602.5t496.5 597t405 125q171 -15 176 -104q-8 -96 -80 -110t-169.5 8.5t-234.5 -41.5t-273.5 -230.5t-364 -552.5t-860.5 -562q198 -152 176.5 -354.5t-190.5 -382 t-257 -396t-12.5 -371t248 -150.5t284.5 75.5t162.5 38t-91 -140t-362.5 -122.5q-242 25 -325 161t-83 268z" />
<glyph unicode="|" horiz-adv-x="657" d="M-1360 -727q0 58 30.5 93.5t84 46t103.5 -22.5t61 -88t52.5 -124t196.5 -104t346.5 42t341.5 245.5t250 345.5t153 291t4 114q-153 -109 -200 -98.5t-68.5 65.5t-10.5 232t92.5 310t163 194.5t180.5 61.5q168 -13 175 -130q-5 -177 -110.5 -465.5t-182.5 -447t-201 -338 t-251 -296t-283.5 -183.5t-346.5 -67q-207 0 -319 43t-186.5 124t-74.5 156zM109 231.5q1 -87.5 98 -28.5t172 192t80.5 244.5t-59.5 117.5q-64 6 -144 -93t-114 -222t-33 -210.5z" />
<glyph unicode="}" horiz-adv-x="1910" d="M-825 -593q7 96 79.5 108.5t170.5 -9t234.5 42.5t272.5 229.5t364 552t860 563.5q-199 152 -176.5 354t190.5 381t256 396.5t13.5 372t-248 150.5t-285.5 -75t-162.5 -37.5t92 140t361.5 120.5q242 -24 326 -160t84 -269q0 -96 -30.5 -244.5t-207 -369.5t-224 -342 t27 -232t185 -120.5t109.5 -62.5t-210.5 -98.5t-460.5 -172t-544 -603t-497 -596.5t-404 -123q-171 14 -176 104z" />
<glyph unicode="~" horiz-adv-x="12" d="M0 1412q0 50 19 99t71 114t130 111t188.5 71.5t223 24t218.5 -19t205.5 -52.5t193 -74.5t150.5 -36.5t114 44q-44 54 -49 108t14 111t71.5 98t117.5 35t106 -74.5t25 -139.5t-133 -150q67 -76 143 -106t159.5 -32t188.5 19.5t165 99.5q-73 46 -112.5 123.5t-25 145.5 t54.5 105t107 40q78 -5 111.5 -61t36.5 -114.5t-12 -109.5t-52 -103q41 -38 122 -63.5t170 -24.5t167.5 24t105.5 45q-52 47 -68.5 106.5t4 110.5t69 95.5t101.5 55.5t93.5 -5t62.5 -71.5t13 -111.5t-48.5 -105t-107.5 -86q20 -18 60 -37.5t127 -26t215.5 0.5t263 40 t313.5 88.5t321 79t248.5 -9.5t176 -102.5t82.5 -186.5q-7 -111 -54.5 -158.5t-74.5 -76t-55.5 -19t-49 34.5t-3 69.5t5 98.5t-84 92t-217 34.5t-294 -30.5t-286.5 -49t-244 -30t-199.5 2t-172 44t-139.5 95q-82 -54 -167.5 -82.5t-180.5 -23.5t-173.5 32.5t-147.5 78.5 q-40 -49 -92.5 -90t-128.5 -58.5t-160 -21t-169.5 22t-155 71.5t-110.5 90q-92 -57 -153.5 -74.5t-167.5 0t-202.5 63.5t-245.5 88.5t-267.5 33t-212 -53.5t-136.5 -99.5t-52.5 -119t11 -120.5t87 -85.5t104.5 -9.5t70 17.5t59 -23.5t20.5 -58.5t-52.5 -42.5q-17 -3 -38 -3 q-39 0 -93 8q-86 11 -146 42.5t-101.5 82t-50.5 136.5zM1570.5 1875.5q-12.5 -55.5 44.5 -131.5q85 60 89.5 107.5t-22 76t-63 16t-49 -68zM2284 1838q8 -42 89 -107q40 62 41.5 117t-26 93.5t-57.5 22t-42.5 -50t-4.5 -75.5zM3024 1835q-13 -53 44 -125q74 51 88 95.5t9 89 t-35.5 54.5t-61.5 -25.5t-44 -88.5z" />
<glyph unicode="&#xa1;" horiz-adv-x="1013" d="M-699 -632q13 76 59.5 111.5t116 55.5t148.5 47t236 161.5t283.5 304t222.5 349t121 253t48.5 75.5t57.5 -31q-19 -77 -114 -281.5t-242 -405.5t-295.5 -353.5t-238.5 -227.5t-161.5 -115t-158.5 -41q-70 16 -83 98zM587 1134q6 131 121 131q128 0 128 -129 q0 -118 -123 -118q-120 0 -126 116z" />
<glyph unicode="&#xa2;" horiz-adv-x="1171" d="M161 201q0 50 22.5 145.5t85 221t160.5 218t163 114.5t137 6q58 73 123 125.5t115 75.5t68.5 28t31.5 5q9 -7 10 -21q-2 -18 -32.5 -33.5t-69.5 -42t-77 -69.5t-80 -95q48 -29 71 -54t32 -56.5t-7 -42t-36.5 -1.5t-54.5 39t-61 32q-52 -65 -119 -197t-108 -273.5 t-41 -196.5q80 -10 176 28.5t133.5 80t51.5 60t38.5 1.5t-5.5 -82.5t-107.5 -126.5t-165 -83.5t-152.5 -27.5q-13 -48 -13.5 -179.5t3.5 -178.5t-16 -73q-24 10 -40.5 50t-29 160t-5.5 222q-91 16 -135 61t-55 90.5t-11 69.5zM326.5 264q4.5 -97 51.5 -110q42 170 92 284.5 t93 196t106 179.5q-75 4 -163.5 -97.5t-136 -228.5t-43 -224z" />
<glyph unicode="&#xa3;" horiz-adv-x="3299" d="M163 -185q10 56 39.5 82.5t100.5 51.5t177.5 25t185 -7.5t164 36t248 193.5t293 326.5t241 383.5t191.5 372t275.5 445.5t408.5 442.5t462 246t451 84q177 -3 314.5 -80t196 -190.5t63.5 -229.5q-13 -172 -123.5 -341t-289.5 -294t-384 -181.5t-363 -49t-258 56.5 t-132 142.5t0 168t73.5 62t8.5 -68.5t4 -127t178 -110.5t330 -5t364 129t287 221t153 244.5t12.5 235.5t-135.5 169t-250 68.5t-372.5 -23.5t-442 -173t-373.5 -327t-298.5 -446t-286 -523t-336 -487.5t-448.5 -406q231 -36 469.5 -63t450 -13t421.5 105.5t305.5 205.5 t145.5 183t85 42.5t-50 -156.5t-216 -242.5t-347.5 -197.5t-527.5 -101q-251 0 -415.5 34.5t-250.5 54.5t-122.5 39t-81 22t-106 -34t-165 -61.5t-179.5 -20t-103 22t-42 65.5zM254 -165q2 -20 101 -28q156 33 164 50.5t-160 28.5q-107 -31 -105 -51zM861 755q1 16 17 24 t79.5 2.5t163.5 -10.5t183.5 6.5t252.5 53.5l-96 -160q-96 -15 -148.5 -13.5t-55.5 1.5q-120 4 -217 25.5t-138 38t-41 32.5zM1631 715l111 201q141 22 237 22q23 0 46 -1q111 -7 205 -27q87 -23 129 -53q21 -15 21 -25t-18 -14q-41 -9 -82.5 1.5t-125.5 12.5t-200 -13.5 t-323 -103.5z" />
<glyph unicode="&#xa4;" horiz-adv-x="1800" d="M391 317q0 48 33.5 81.5t122.5 74.5q-7 -70 21 -97t108 -3q-56 -103 -89.5 -136.5t-81.5 -33.5q-47 0 -80.5 33.5t-33.5 80.5zM391 1188q0 47 33.5 80.5t80.5 33.5q48 0 81.5 -33.5t89.5 -136.5q-80 24 -108 -3t-21 -97q-89 41 -122.5 74.5t-33.5 81.5zM483 752 q0 177 124 302t301 125q179 0 303.5 -125t124.5 -302q0 -176 -125 -301t-303 -125q-175 0 -300 125t-125 301zM599 753q0 -128 90.5 -218.5t218.5 -90.5t218.5 90.5t90.5 218.5q0 129 -90 219t-219 90q-128 0 -218.5 -90t-90.5 -219zM1145 373q79 -24 107 3t22 97 q89 -41 122.5 -74.5t33.5 -81.5q0 -47 -33.5 -80.5t-81.5 -33.5q-47 0 -80.5 33.5t-89.5 136.5zM1145 1132q56 103 89.5 136.5t80.5 33.5q48 0 81.5 -33.5t33.5 -80.5q0 -48 -33.5 -81.5t-122.5 -74.5q6 70 -22 97t-107 3z" />
<glyph unicode="&#xa5;" horiz-adv-x="3692" d="M562 2113q14 164 69.5 277t165.5 180.5t221 67.5q139 0 248.5 -40.5t241.5 -173t261 -330t383 -718.5q112 257 237 461.5t267.5 354t252 215t201 107t176.5 55.5t164 0t96 -125q-38 -111 -106.5 -128.5t-183 0t-218.5 3.5t-253.5 -160.5t-283 -384.5t-293.5 -553 q163 -624 100 -937.5t-223 -486.5t-361 -245t-414 -72q-188 0 -321.5 78.5t-204 209t-70.5 228.5q0 122 30.5 207.5t116 159t202 98t223 2.5t195.5 -96t122 -192t-7.5 -218t-79.5 -108.5t-48.5 20t22.5 67.5t26 125t-70 167.5t-165.5 111.5t-210.5 2t-170.5 -105.5 t-63.5 -192t55.5 -216t161 -159.5t256 -63t339 63t338 237t172.5 502t-66.5 620t-213.5 537t-248.5 459.5t-261.5 339t-275 146.5t-239 -52.5t-139.5 -190.5t-13 -228.5t94 -181t145.5 -87.5t138 0t69.5 -16.5t-100.5 -62.5t-203.5 -6.5t-178.5 121.5t-104 307zM1619 652 q60 125 191 187.5t303 74.5q18 -89 24 -155q-119 12 -226 -23.5t-161 -80.5t-131 -3zM1649 384q59 125 190 187.5t310 77.5q12 -92 0 -158q-101 12 -208.5 -23.5t-161 -80.5t-130.5 -3zM2298 942q119 -12 226.5 23.5t161 80.5t130.5 3q-59 -125 -190 -187.5t-304 -74.5 q-18 89 -24 155zM2328 674q119 -12 226 23.5t160.5 80.5t131.5 3q-60 -125 -191 -187.5t-319 -77.5q-2 92 -8 158z" />
<glyph unicode="&#xa6;" horiz-adv-x="7070" d="M357 -341q0 225 160 386t364.5 211t388.5 11t415 -190q225 195 422.5 258t400 57t448.5 -116t416.5 -279.5t261.5 -264.5q146 117 317.5 157t316 7.5t218.5 -113.5q217 141 598 338q-44 122 -154.5 254.5t-293.5 160.5t-271.5 -33t-123.5 -160t-83 -83t-37 99t116 177.5 t349 104.5q224 -14 358 -121.5t251 -342.5q362 169 629.5 194.5t458 -29.5t315 -167t176 -247t51.5 -228q0 -37 -4 -74q-13 -148 -90 -270.5t-182 -184.5t-201 -74q-18 -135 -128.5 -269.5t-296.5 -195t-366.5 -22t-249 149.5t-40.5 216t99 157t157.5 38.5t127 -81.5 t11.5 -158.5t-117.5 -86.5t-108.5 84t28 111.5t130 -36.5q10 86 -79 97.5t-133 -80t-12.5 -162t132 -124t267 -33t293.5 132.5t145 253q-220 -11 -394.5 35.5t-290 128.5t-199.5 253q-137 -103 -252.5 -265.5t-307 -352.5t-362 -277t-296.5 -87q-219 8 -353.5 75.5 t-222.5 180.5t-127 302q-115 -34 -246 -18q-128 -186 -290 -264.5t-358.5 -95.5t-354 29t-306 139t-276.5 284q-273 -107 -543 -94t-470.5 161.5t-200.5 436.5zM490.5 -225.5q-41.5 -144.5 18 -292.5t207.5 -226.5t348.5 -93t450.5 73.5q-65 107 -73 265.5t45.5 288 t138.5 217.5q-293 189 -534.5 178.5t-400.5 -138.5t-200.5 -272.5zM1553.5 -387q-21.5 -201 49.5 -315q277 181 449 372q-161 160 -334 267q-143 -123 -164.5 -324zM1668 -783q79 -134 198 -223.5t257 -133.5t321 -38.5t315.5 83t199.5 175.5q-217 70 -349.5 139.5 t-257 170.5t-243.5 206q-208 -221 -441 -379zM1787 25q154 -102 338 -276q121 107 247 170t302.5 39.5t327 -156t186.5 -327t3 -316.5q100 0 213 25q-14 207 123 430q-92 143 -300.5 324.5t-436 269t-428 67t-328 -87t-247.5 -162.5zM2202 -337q191 -203 410.5 -332.5 t400.5 -140.5q57 108 -11 298t-194.5 279.5t-295.5 72.5t-310 -177zM3545 -775q98 6 232 85q-88 115 -169 205q-85 -146 -63 -290zM3548 -887q-3 -109 80 -214t210.5 -171.5t293.5 -55.5t325 108.5t299 243.5t240.5 283t300.5 295q-96 235 -179 431q-226 -101 -554 -310 q76 -150 62 -284t-125 -237t-285 -111.5t-384 130.5q-177 -91 -284 -108zM3712 -379l192 -226q250 173 505 328q-188 112 -389.5 74t-307.5 -176zM3964 -678q113 -108 288.5 -88.5t232.5 149.5t-25 277q-313 -218 -496 -338zM5234 84q65 -197 164 -426q207 125 410.5 111 t355 -152.5t181.5 -430.5q125 13 221.5 121.5t105 300t-80 366.5t-276.5 261.5t-486.5 43.5t-594.5 -195zM5437 -427q35 -148 135.5 -228.5t255 -130t374.5 -40.5q-12 228 -146 357t-295 136t-324 -94z" />
<glyph unicode="&#xa7;" horiz-adv-x="2053" d="M266 77q0 106 63 190t144 116t158 25t125.5 -46.5t59.5 -98t-22 -105t-67.5 -54.5t-45 16t13 39t38.5 65t-23 80.5t-99 34.5t-123.5 -38t-87 -122t-9 -167t86 -149t174 -83t180.5 2t136.5 73.5t104 132t44.5 174.5t-50 235t-107.5 299.5t-79.5 300.5t-4 243.5t78.5 202.5 t174.5 190t282 119q-8 70 5.5 164.5t51 174t118.5 146t199 99.5q74 20 149 20q60 0 142.5 -14.5t160.5 -59t137 -138.5q44 -72 44 -157q0 -26 -11 -95.5t-78.5 -137.5t-139 -91t-138.5 -17t-120.5 44t-64.5 97t22.5 105.5t67.5 54.5t44.5 -16.5t-12.5 -39t-35.5 -61 t18.5 -76.5t90.5 -38t118 34t89.5 117t13 171t-82.5 154t-168 79t-180.5 -2t-143.5 -78t-107.5 -133t-38 -176t53 -234t108 -293.5t79.5 -300.5t4 -243.5t-78.5 -202.5t-175 -190.5t-288 -116.5q11 -61 -2 -156t-48.5 -173t-134.5 -156.5t-186 -99t-152 -20.5 q-68 0 -145.5 11t-156 57t-126.5 121.5t-48 191.5zM1018.5 1204q-7.5 -93 36 -237t107.5 -308.5t77 -245.5q142 26 227.5 96t130.5 155t53 178t-36 236.5t-107.5 308t-85.5 244.5q-134 -25 -219.5 -95t-130.5 -154.5t-52.5 -177.5z" />
<glyph unicode="&#xa8;" horiz-adv-x="793" d="M157 1098q0 35 29 52q41 24 97 24q48 -9 54 -64q-3 -67 -29 -90q-24 -20 -66 -20h-11q-51 3 -69 65q-5 18 -5 33zM444 1065.5q-18 61.5 23.5 85.5t97.5 24q48 -9 54 -64q-3 -67 -29 -90q-24 -20 -66 -20h-11q-51 3 -69 64.5z" />
<glyph unicode="&#xa9;" horiz-adv-x="4697" d="M849 1076q0 515 268 762q313 291 378 390t191 -246l230 487l112 107q79 -115 143 -330q299 130 566 130q553 0 952 -565q180 47 222 138q158 -102 165 -180q4 -17 4 -29q0 -61 -37 -100q-44 -49 -174 -114q179 -637 1 -1066.5t-505 -719.5t-808 -349q-98 -8 -190 -8 q-302 0 -544 76q-316 91 -517 299t-200 494t533 586q47 504 -206 1055q-426 -298 -380 -874q72 -79 288 193q145 17 185 -152q42 -166 -191 -346q-116 -13 -65 89q191 59 93 235q-145 -93 -230 -286q-224 -12 -275 154q-9 90 -9 170zM1255 98.5q105 -246.5 296 -381 t516.5 -179.5t691.5 17.5t646.5 398t391 705t-54.5 832.5q-320 -104 -653 44q-93 -160 -126 -337q339 -233 543 127l68 -29l19 -145q-159 -208 -87 -532q-145 116 -140 329q-208 -39 -404 48q-42 -76 135 -323.5t183 -410.5t-118 -334t-421.5 -211t-490.5 138t-246 327 t-25 276.5t92.5 199.5t198.5 115q24 187 220 353q69 42 188 86q12 251 136 507q-43 199 -422 174q176 -239 176 -411.5t-109 -295.5t-596 -367l6 -416q-25 -325 34 -423t174 -146l-49 -68q-145 35 -246 94.5t-136.5 135.5t-6.5 407l16 302q-505 -360 -400 -606.5zM1731 1740 l225 349l-87 89q-122 -187 -138 -438zM1807 1623l323 256l-102 132q-128 -156 -176 -239t-45 -149zM1844 940q370 205 455 295t93 233.5t-195 342.5l-353 -276q-31 -390 0 -595zM2146 208q148 -288 333 -346.5t359.5 10.5t245.5 211.5t-76.5 282.5t-213.5 275.5t-95 357.5 q-148 48 -307 -228q154 -31 242.5 -111.5t118.5 -218.5t-70 -202t-248.5 18.5t-195.5 384.5q-241 -146 -93 -434zM2206 2168l38 -54l68 -86q254 119 435 57.5t294.5 -195t253 -155.5t297.5 20l-193 236q-221 216 -499 275t-694 -98zM2381 642q-31 -143 24.5 -222t155 -107 t101.5 112.5t-281 216.5z" />
<glyph unicode="&#xab;" horiz-adv-x="1275" d="M105 681q2 27 29.5 57.5t74 40.5t79 -2t88.5 10t107 79.5t73 127t53.5 115.5t94.5 51q68 -2 71 -57t-38 -72t-58.5 -68t-63.5 -118t-196 -158q27 -99 72 -169t103 -107t103 -42t68 -39t7.5 -81.5t-71.5 -49.5q-113 0 -185 102.5t-115 177t-95 161.5q-65 -33 -116 -25 t-85 66zM489 652q128 71 196 151.5t108 182t84.5 133.5t112.5 36q88 -12 96 -72q-1 -51 -27.5 -70t-62.5 -4t-71 -17.5t-68 -141t-162 -185.5q65 -20 114.5 -70.5t85.5 -107.5t70.5 -88t83 -23t53.5 -56q-7 -47 -34.5 -70t-79.5 -17q-78 1 -159.5 120t-167 155.5t-125 73.5 t-47.5 70z" />
<glyph unicode="&#xad;" horiz-adv-x="1540" d="M276 649q1 21 16.5 32t79.5 2t161.5 1.5t236.5 39t234 28.5l45 -1q109 -8 202 -35q86 -31 128 -69q20 -21 20 -35q0 -12 -17 -17q-41 -12 -82 1.5t-110 16.5t-146.5 -11t-172.5 -37.5t-146.5 -24.5t-54.5 -1q-118 0 -214.5 24.5t-137.5 44t-42 41.5z" />
<glyph unicode="&#xae;" horiz-adv-x="2765" d="M568 1900q0 211 109.5 408.5t305.5 302.5t400 105q209 0 404 -105t305.5 -302.5t110.5 -408.5q0 -214 -108.5 -408.5t-302.5 -302t-409 -107.5q-211 0 -405 107.5t-302 302t-108 408.5zM638 1900q0 -195 99.5 -372.5t277 -276t368.5 -98.5q195 0 373 98.5t276 276 t98 372.5q0 194 -99.5 373.5t-278.5 277t-369 97.5q-185 0 -365 -97.5t-280 -277t-100 -373.5zM919 1403v40q55 0 78.5 12.5t32.5 38.5q8 20 8 108v602q0 86 -3 102q-8 26 -30 40t-73 14v42h445q168 0 255 -75.5t87 -182.5q0 -87 -59 -154t-196 -102l241 -343q44 -63 78 -84 q22 -14 61 -18v-40h-212l-339 467h-87v-355q7 -39 32.5 -55.5t104.5 -16.5v-40h-424zM1206 1921q137 0 199 26.5t95.5 75t33.5 108.5q0 92 -65.5 156t-164.5 64q-46 0 -98 -17v-413z" />
<glyph unicode="&#xaf;" horiz-adv-x="1302" d="M252 1099q1 19 12.5 29t58 6t120 1.5t177 31.5t173.5 26q17 0 34 -1q81 -8 150 -32q64 -28 95 -63q15 -19 15 -31q0 -11 -13 -16q-30 -11 -60.5 1.5t-82 15t-109 -10t-128 -34t-109 -22t-40.5 -0.5q-88 0 -159.5 22t-102 39.5t-31.5 37.5z" />
<glyph unicode="&#xb0;" horiz-adv-x="1126" d="M415 1498q3 133 74 225.5t137.5 147t108 92.5t87.5 42q41 -1 63 -55t30 -109q1 -7 1 -15q0 -57 -50 -173q-57 -132 -140.5 -210.5t-167.5 -81.5q-136 4 -143 137zM534 1616.5q-31 -72.5 12 -106t83 -11.5q40 23 80.5 81.5t77.5 140t23 125t-66.5 11.5t-115.5 -100 t-94 -140.5z" />
<glyph unicode="&#xb2;" horiz-adv-x="1296" d="M79 1531q0 38 32.5 66.5t107.5 33t165 -39.5q70 44 134 76.5t190.5 119.5t236.5 203.5t128 244.5t-30.5 215.5t-154 115.5t-233 -34.5t-184.5 -162.5t-46.5 -173.5t57 -92.5t112.5 -5t93 99q38 -1 18 -66t-82.5 -104.5t-146 -29.5t-121 71t-31 144.5t76.5 186t176 169 t243 67.5q95 -1 175 -40.5t121.5 -122.5t41.5 -165q0 -18 -7.5 -83.5t-67.5 -177t-245.5 -254.5t-373.5 -235q44 -21 110.5 -33t132 -13t133 21.5t147.5 56.5t111 15t33 -68q0 -30 -14 -56.5t-73.5 -30t-301.5 -9.5q-201 3 -358 71q-84 -41 -126 -52.5t-85.5 -9t-67 24.5 t-26.5 57zM146 1533.5q-6 -20.5 32 -18t116 33.5q-36 21 -89 13t-59 -28.5z" />
<glyph unicode="&#xb3;" horiz-adv-x="1195" d="M77 1718q0 41 29 97.5t83.5 78.5t102 16t85 -38.5t34.5 -78t-37.5 -74.5t-58.5 -21.5t14.5 37.5t31 56.5t-27 38.5t-53.5 15.5t-67 -24.5t-38 -82t23.5 -118t111 -98.5t195.5 -37t223.5 63.5t165 151t56 185t-56 172t-153.5 87.5t-219 -38.5q-32 35 -26.5 61.5t158 116.5 t383.5 241q-50 38 -102 42t-130 -43.5t-155.5 -25.5t-134.5 7t-95 -6t-46.5 45.5t16.5 75.5t111 43q87 -8 168.5 -52t160.5 0t130 32t134 -60q68 40 95.5 51.5t72 8.5t67.5 -25.5t25 -57.5q-1 -38 -33.5 -65.5t-85 -32t-123.5 32.5q-75 -56 -156 -100.5t-285 -172.5 q123 3 209.5 -55.5t117.5 -155.5t14.5 -186t-51.5 -145.5t-87 -107t-141 -100t-191 -52.5q-83 1 -155.5 13.5t-143 47.5t-104.5 76t-47.5 77.5t-13.5 83.5zM1175 2539q43 -16 73.5 -9t37 28.5t-32 19t-78.5 -38.5z" />
<glyph unicode="&#xb4;" horiz-adv-x="715" d="M113 1047q20 34 120.5 104t144.5 119t66 94t68 49q37 -1 58.5 -17t35 -38t14.5 -53q-3 -36 -34 -56.5t-83.5 -40.5t-171.5 -105t-140 -94q-19 -9 -42 -9h-5q-29 4 -31 47z" />
<glyph unicode="&#xb6;" horiz-adv-x="4145" d="M90 -437q9 149 72.5 266.5t156 201t176 126.5t196.5 75l4 -59q-165 -75 -264.5 -149.5t-156 -195t-62 -244t64.5 -218.5t191 -147.5t312 -73t370.5 -0.5t358.5 79t340 147t316.5 248t265.5 311t239.5 387t272.5 543q192 387 246 493.5t139.5 250t297.5 333.5 q-455 -93 -751.5 -207t-486.5 -246.5t-285 -231t-142.5 -194t-45.5 -185t45 -127t104.5 -41t75 181t158 321.5t362.5 139.5t99.5 -89t-78.5 -203.5t6 -238t-136 -209.5t-240.5 -112.5t-260.5 -3.5t-191.5 85.5t-98.5 134.5t-29 145.5t33.5 162.5t116 194.5t221.5 213.5 t329 217t438 200.5t468 144t432 72t419 24q146 -7 184.5 -20.5t56.5 -61.5q-8 -39 -78 -57.5t-186 -94t-233.5 -187t-222 -271.5t-240 -456.5t-297.5 -596.5t-267 -462.5t-215.5 -293.5t-217.5 -225.5t-230 -168.5t-244.5 -118t-214.5 -44.5t-128.5 31.5t-8.5 59t-19 5 t-212.5 -75.5t-412.5 -75.5q-253 12 -400 38.5t-257 96t-180 173.5t-75 283zM1857 -787q95 -15 186 11.5t202 96t211.5 172t216 263t244.5 375t236.5 423t200.5 410.5t191 371t187.5 273.5t195 195t223.5 166.5q-112 13 -214.5 -9.5t-231.5 -107.5t-249 -258t-222.5 -388.5 t-206.5 -438.5t-196 -406t-226 -386.5t-281 -374.5t-467 -388z" />
<glyph unicode="&#xb7;" horiz-adv-x="2405" d="M66 592v5q12 8 37.5 19.5t58 34t47 51.5t36 55.5t43.5 42.5t41.5 19.5t37 0t28 -16t40.5 -41.5t89 -68t97 -49.5t67.5 -8t58.5 18t75 41.5t162 84q74 25 127.5 34t90.5 10t88.5 -8t106 -27t93.5 -39.5t92 -54.5t85.5 -47t65 -11.5t64.5 13.5t76 39t73 54t51.5 49.5 t42.5 28t42.5 -1.5t47 -26t37.5 -43.5t27.5 -46t44 -47t54 -34.5t43.5 -25l1 -5q-20 -14 -44.5 -24t-54 -34.5t-44 -47t-27.5 -46t-37 -43.5t-47 -26.5t-42.5 -2t-42.5 28t-52 50t-73 54.5t-75.5 39t-64.5 13.5t-65.5 -12t-85.5 -47t-92 -54t-93.5 -40t-106 -27.5t-88.5 -8 t-90.5 10t-127.5 35q-115 57 -161.5 83.5t-75.5 42t-58.5 18t-67.5 -8.5t-97 -49.5t-88.5 -67.5t-40.5 -42t-28.5 -16.5t-37 0t-41.5 20t-43.5 42.5t-36 55t-47 52t-58 34.5t-37.5 18.5zM370 254q83 121 170.5 182.5t151 43t119.5 -53t174 -73.5q-132 -38 -201 -105 t-89 -110t-40.5 -42.5t-51 46t-87 86.5t-146.5 26zM370 946q90 -15 146 26t86.5 86.5t51.5 46t40.5 -42.5t88.5 -110t201 -105q-118 -39 -174 -73.5t-119 -53t-151 43t-170 182.5zM713 -40q0 58 28.5 125t69.5 107t92.5 67t102 37t200.5 13q143 -4 194 -13.5t102 -37 t92.5 -67t70 -106.5t28.5 -125q-27 24 -55 39t-61.5 16t-69.5 -10t-77 -23.5t-81.5 1t-64.5 60.5q-17 -45 -20 -81q-28 34 -36.5 83t-3.5 86t29 88q-13 36 -33 44.5t-37 0t-31 -44.5q24 -51 29 -88t-3.5 -85.5t-35.5 -83.5q-4 36 -21 82q-24 -47 -64 -60.5t-81.5 -1 t-77.5 23.5t-69 10t-61.5 -16.5t-54.5 -39.5zM713 1236q26 -23 54.5 -38.5t61.5 -16.5t69 10t77.5 23.5t81.5 -1t64 -60.5q17 45 21 81q27 -34 35.5 -83t3.5 -86t-29 -87q14 -37 31 -45t37 0.5t33 44.5q-24 51 -29 88t3.5 86t36.5 83q3 -36 20 -81q24 47 64.5 60.5t81.5 0.5 t77 -23.5t69.5 -10t61.5 16t55 39.5q0 -58 -28.5 -125t-70 -107t-92.5 -67t-102 -37t-194 -13q-150 3 -200.5 13t-102 37t-92.5 67t-69.5 106.5t-28.5 124.5zM840 592q-2 -17 33 -38.5t99.5 -53t137 -43.5t96 -11.5t67.5 7.5t100.5 30.5t122.5 60t67 51.5t-55 51.5 t-124 59.5q-67 24 -111 28.5t-67.5 5t-95.5 -15t-128 -43t-98 -50t-44 -39.5zM939.5 592.5q1.5 9.5 31.5 21.5t70 27t91 23.5t67.5 8.5t48 -2.5t79.5 -15.5t87.5 -32.5t39 -28t-47.5 -28.5t-87 -32.5t-71.5 -16.5t-48 -4t-68 6.5t-97.5 23.5t-71 28.5t-23.5 21zM1413 353 q118 39 174 73.5t119.5 53t151 -43t170.5 -182.5q-90 15 -146.5 -26t-87 -86.5t-51 -46t-40.5 42.5t-89 110t-201 105zM1414 847q132 38 201 105t88.5 110t40.5 42.5t51.5 -46t86.5 -86.5t146 -26q-82 -121 -170 -182.5t-151 -43t-119 53t-174 73.5z" />
<glyph unicode="&#xb8;" horiz-adv-x="902" d="M200 -423q4 26 49 10t100 -14.5t111.5 36.5t71 101t-63.5 71q-77 -7 -91.5 27.5t33.5 88t122 119.5q52 -7 151 4q-121 -88 -172 -154q73 -6 115 -46.5t43 -110.5q0 -11 -12 -52t-60 -85t-106 -61t-138 -17q-56 0 -88 15t-48 32.5t-17 35.5z" />
<glyph unicode="&#xb9;" horiz-adv-x="805" d="M174 2074v2q348 283 524.5 417.5t226.5 153.5v-4q0 -58 -61 -183q-62 -127 -260.5 -405.5t-242.5 -410t-11.5 -135.5t65.5 2.5t29.5 -31t-79.5 -40.5q-83 3 -125 52q-38 77 -1.5 173.5t230 349.5t354.5 514l-293 -232l-308 -246q-47 -10 -48 23z" />
<glyph unicode="&#xbb;" horiz-adv-x="1342" d="M249 1039q6 47 34 70t80 18q78 -2 159.5 -121t167 -155.5t125 -73.5t47.5 -70q-109 -51 -186.5 -141t-117.5 -192t-84.5 -133.5t-112.5 -35.5q-88 11 -97 72q1 50 28 69.5t63 4t71 17.5t68 141.5t167 188.5q-70 16 -119.5 66.5t-85.5 108t-70.5 88.5t-81.5 28t-55 50z M576 256.5q-3 54.5 38 72t58 68t63.5 117.5t196.5 159q-28 99 -72.5 169t-102.5 106.5t-103 41.5t-68 39t-8 82t72 49q113 0 184.5 -102.5t114.5 -176.5t95 -161q65 6 113.5 -21.5t73.5 -85.5q-14 -61 -53.5 -75.5t-75 -9t-53.5 35.5t-74.5 8t-107.5 -79t-72.5 -127 t-53 -116t-95.5 -51q-67 3 -70 57.5z" />
<glyph unicode="&#xbc;" horiz-adv-x="2764" d="M189 -243l768 1070l1010 1411l346 479l105 -2l-1185 -1705l-867 -1247zM481 2094v2q348 283 524.5 417.5t226.5 153.5v-4q0 -58 -61 -183q-62 -127 -260.5 -405.5t-242.5 -410t-11.5 -135.5t65.5 2.5t29.5 -31t-79.5 -40.5q-83 3 -125 52q-38 77 -1.5 173.5t230 349.5 t354.5 514l-293 -232l-308 -246q-47 -10 -48 23zM1260 475q0 43 36.5 75t121.5 37.5t139 -20.5q123 61 227.5 133.5t215.5 184.5t174.5 214t68.5 226q3 69 64 74q0 -20 0.5 -106.5t-68.5 -218.5t-264 -317.5t-313 -236.5q83 -39 150.5 -54.5t105.5 -15.5q105 145 200 254 t155.5 170t133.5 57q-233 -232 -374 -491q70 -6 135 13.5t138.5 72t107 31.5t35.5 -76q0 -34 -22 -69t-136 -58.5t-302 -8.5q-40 -66 -90.5 -210.5t-14.5 -149t72 3.5t32.5 -34t-88.5 -45q-91 2 -137 58q-41 84 -1.5 190.5t107.5 208.5q-177 35 -285 96q-74 -56 -121 -69 t-97.5 -11t-76.5 27.5t-29 64.5zM1324 480.5q6 -25.5 49 -22.5t105 42q-65 23 -112.5 14.5t-41.5 -34z" />
<glyph unicode="&#xbd;" horiz-adv-x="2702" d="M189 -243l768 1070l1010 1411l346 479l105 -2l-1185 -1705l-867 -1247zM481 2094v2q348 283 524.5 417.5t226.5 153.5v-4q0 -58 -61 -183q-62 -127 -260.5 -405.5t-242.5 -410t-11.5 -135.5t65.5 2.5t29.5 -31t-79.5 -40.5q-83 3 -125 52q-38 77 -1.5 173.5t230 349.5 t354.5 514l-293 -232l-308 -246q-47 -10 -48 23zM1263 130q0 39 32.5 67t107.5 32.5t165 -39.5q70 44 134 76.5t190.5 119.5t236.5 203.5t128.5 244.5t-30.5 215.5t-154.5 115.5t-232.5 -34.5t-184.5 -162.5t-47 -173.5t57 -92.5t112.5 -4.5t93 98.5q38 -1 18 -65.5 t-82.5 -104.5t-146 -29.5t-120.5 71t-30.5 144t76 186.5t175.5 169t243 67q95 0 175 -40t122 -123t42 -165q0 -18 -7.5 -83.5t-68 -177t-246 -254.5t-373.5 -235q44 -21 111 -33t132 -12.5t132.5 21.5t147.5 56.5t111 15t33 -68.5q0 -30 -14 -56.5t-73 -29.5t-302 -10 q-201 3 -358 71q-84 -41 -125.5 -52.5t-85.5 -9t-67.5 24.5t-26.5 57zM1330.5 133q-6.5 -21 32 -18t115.5 33q-36 21 -88.5 13.5t-59 -28.5z" />
<glyph unicode="&#xbe;" horiz-adv-x="2758" d="M189 -243l768 1070l1010 1411l346 479l105 -2l-1185 -1705l-867 -1247zM319 1718q0 41 29 97.5t83.5 78.5t102 16t85 -38.5t34.5 -78t-37.5 -74.5t-58.5 -21.5t14.5 37.5t31 56.5t-27 38.5t-53.5 15.5t-67 -24.5t-38 -82t23.5 -118t111 -98.5t195.5 -37t223.5 63.5 t165 151t56 185t-56 172t-153.5 87.5t-219 -38.5q-32 35 -26.5 61.5t158 116.5t383.5 241q-50 38 -102 42t-130 -43.5t-155.5 -25.5t-134.5 7t-95 -6t-46.5 45.5t16.5 75.5t111 43q87 -8 168.5 -52t160.5 0t130 32t134 -60q68 40 95.5 51.5t72 8.5t67.5 -25.5t25 -57.5 q-1 -38 -33.5 -65.5t-85 -32t-123.5 32.5q-75 -56 -156 -100.5t-285 -172.5q123 3 209.5 -55.5t117.5 -155.5t14.5 -186t-51.5 -145.5t-87 -107t-141 -100t-191 -52.5q-83 1 -155.5 13.5t-143 47.5t-104.5 76t-47.5 77.5t-13.5 83.5zM1260 475q0 43 36.5 75t121.5 37.5 t139 -20.5q123 61 227.5 133.5t215.5 184.5t174.5 214t68.5 226q3 69 64 74q0 -20 0.5 -106.5t-68.5 -218.5t-264 -317.5t-313 -236.5q83 -39 150.5 -54.5t105.5 -15.5q105 145 200 254t155.5 170t133.5 57q-233 -232 -374 -491q70 -6 135 13.5t138.5 72t107 31.5t35.5 -76 q0 -34 -22 -69t-136 -58.5t-302 -8.5q-40 -66 -90.5 -210.5t-14.5 -149t72 3.5t32.5 -34t-88.5 -45q-91 2 -137 58q-41 84 -1.5 190.5t107.5 208.5q-177 35 -285 96q-74 -56 -121 -69t-97.5 -11t-76.5 27.5t-29 64.5zM1324 480.5q6 -25.5 49 -22.5t105 42 q-65 23 -112.5 14.5t-41.5 -34zM1417 2539q43 -16 73.5 -9t37 28.5t-32 19t-78.5 -38.5z" />
<glyph unicode="&#xbf;" horiz-adv-x="1207" d="M-222 -436q11 96 66.5 202t195 204.5t393.5 205.5t315.5 218.5t19.5 169.5t-108.5 47.5t-90.5 -86.5q-65 7 -62.5 50t34.5 76t80.5 48t94 7.5t91.5 -37t71.5 -74t27 -105t-27 -133t-116.5 -147.5t-319 -168t-356.5 -197t-147 -266t66 -206.5t191 -34.5t134 84t-0.5 117.5 t-62.5 21t-82 -16.5t-72.5 54t15.5 96t92.5 59t114 -1t111.5 -82.5t44.5 -150t-51.5 -138t-104.5 -92.5t-159 -34q-79 0 -122 6t-114.5 40.5t-118.5 103.5q-43 65 -43 159zM809 1135q6 131 121 131q128 0 128 -129q0 -118 -123 -118q-120 0 -126 116z" />
<glyph unicode="&#xc0;" horiz-adv-x="3199" d="M328 14q0 104 55 190t127 122t150 30t126 -52t52 -106t-24 -118t-110 -69.5t-132 30t-52 97.5t32 78t22 38t-58.5 -20.5t-79.5 -125.5t14.5 -196.5t227.5 -134t398 20t528 197.5t664 549t544 660t440 538t470 468t552 316q-32 28 -252 26t-558 -56t-662 -144t-642 -258 t-548 -346t-385 -376t-216 -425.5t23 -410t378 -192.5t512 168t286 324t76 244t34 102t28 -88t-30 -234t-226 -336t-436 -244t-412 -22t-306 175.5t-132 398t194 524t510 502t624 362.5t660 236t691.5 135t596.5 33q192 -6 270 -28t114 -62q-8 -36 -60 -52t-132 -44 t-240 -120t-340 -286t-346 -448t-250 -440t-160 -340t-150 -296t-180 -298.5t-246 -237.5q344 79 461.5 148t215 168t151 176.5t84 47.5t-37.5 -124.5t-163 -186.5t-229 -167t-307.5 -102.5t-249.5 -41.5t-148 -43t-116.5 1.5t-0.5 74.5t132 52t202 93.5t228 295.5t234 430 l-197 8q-371 -428 -571 -617t-532 -345t-696 -171q-272 3 -382 109.5t-112 235.5zM1250 2598q1 31 14.5 53t35 38t58.5 17q46 -4 68 -49t66 -94t144.5 -119t120.5 -104q-2 -43 -31 -47h-5q-23 0 -42 9q-21 9 -140 94t-171.5 105t-83.5 40.5t-34 56.5zM2686 910l192 -8 q72 196 172 372t228 372q-156 -156 -276 -324t-316 -412z" />
<glyph unicode="&#xc1;" horiz-adv-x="3199" d="M328 14q0 104 55 190t127 122t150 30t126 -52t52 -106t-24 -118t-110 -69.5t-132 30t-52 97.5t32 78t22 38t-58.5 -20.5t-79.5 -125.5t14.5 -196.5t227.5 -134t398 20t528 197.5t664 549t544 660t440 538t470 468t552 316q-32 28 -252 26t-558 -56t-662 -144t-642 -258 t-548 -346t-385 -376t-216 -425.5t23 -410t378 -192.5t512 168t286 324t76 244t34 102t28 -88t-30 -234t-226 -336t-436 -244t-412 -22t-306 175.5t-132 398t194 524t510 502t624 362.5t660 236t691.5 135t596.5 33q192 -6 270 -28t114 -62q-8 -36 -60 -52t-132 -44 t-240 -120t-340 -286t-346 -448t-250 -440t-160 -340t-150 -296t-180 -298.5t-246 -237.5q344 79 461.5 148t215 168t151 176.5t84 47.5t-37.5 -124.5t-163 -186.5t-229 -167t-307.5 -102.5t-249.5 -41.5t-148 -43t-116.5 1.5t-0.5 74.5t132 52t202 93.5t228 295.5t234 430 l-197 8q-371 -428 -571 -617t-532 -345t-696 -171q-272 3 -382 109.5t-112 235.5zM1378 2340q20 34 120.5 104t144.5 119t66 94t68 49q37 -1 58.5 -17t35 -38t14.5 -53q-3 -36 -34 -56.5t-83.5 -40.5t-171.5 -105t-140 -94q-19 -9 -42 -9h-5q-29 4 -31 47zM2686 910l192 -8 q72 196 172 372t228 372q-156 -156 -276 -324t-316 -412z" />
<glyph unicode="&#xc2;" horiz-adv-x="3199" d="M328 14q0 104 55 190t127 122t150 30t126 -52t52 -106t-24 -118t-110 -69.5t-132 30t-52 97.5t32 78t22 38t-58.5 -20.5t-79.5 -125.5t14.5 -196.5t227.5 -134t398 20t528 197.5t664 549t544 660t440 538t470 468t552 316q-32 28 -252 26t-558 -56t-662 -144t-642 -258 t-548 -346t-385 -376t-216 -425.5t23 -410t378 -192.5t512 168t286 324t76 244t34 102t28 -88t-30 -234t-226 -336t-436 -244t-412 -22t-306 175.5t-132 398t194 524t510 502t624 362.5t660 236t691.5 135t596.5 33q192 -6 270 -28t114 -62q-8 -36 -60 -52t-132 -44 t-240 -120t-340 -286t-346 -448t-250 -440t-160 -340t-150 -296t-180 -298.5t-246 -237.5q344 79 461.5 148t215 168t151 176.5t84 47.5t-37.5 -124.5t-163 -186.5t-229 -167t-307.5 -102.5t-249.5 -41.5t-148 -43t-116.5 1.5t-0.5 74.5t132 52t202 93.5t228 295.5t234 430 l-197 8q-371 -428 -571 -617t-532 -345t-696 -171q-272 3 -382 109.5t-112 235.5zM1871 1470q7 54 81.5 74t153 85t125.5 148q-36 70 -18.5 121.5t47.5 77.5t69 30q49 -7 70.5 -43t8 -83.5t-77.5 -96.5q17 -50 51 -83.5t113.5 -67t109.5 -72t31 -90.5q-5 -45 -70 -56 q-17 -2 -43 9.5t-30 37.5t-20.5 51.5t-99 70.5t-105.5 96q-29 -69 -77.5 -123.5t-122 -100.5t-121.5 -48q-32 0 -51 14.5t-24 48.5zM2686 910l192 -8q72 196 172 372t228 372q-156 -156 -276 -324t-316 -412z" />
<glyph unicode="&#xc3;" horiz-adv-x="3197" d="M328 14q0 104 55 190t127 122t150 30t126 -52t52 -106t-24 -118t-110 -69.5t-132 30t-52 97.5t32 78t22 38t-58.5 -20.5t-79.5 -125.5t14.5 -196.5t227.5 -134t398 20t528 197.5t664 549t544 660t440 538t470 468t552 316q-32 28 -252 26t-558 -56t-662 -144t-642 -258 t-548 -346t-385 -376t-216 -425.5t23 -410t378 -192.5t512 168t286 324t76 244t34 102t28 -88t-30 -234t-226 -336t-436 -244t-412 -22t-306 175.5t-132 398t194 524t510 502t624 362.5t660 236t691.5 135t596.5 33q192 -6 270 -28t114 -62q-8 -36 -60 -52t-132 -44 t-240 -120t-340 -286t-346 -448t-250 -440t-160 -340t-150 -296t-180 -298.5t-246 -237.5q344 79 461.5 148t215 168t151 176.5t84 47.5t-37.5 -124.5t-163 -186.5t-229 -167t-307.5 -102.5t-249.5 -41.5t-148 -43t-116.5 1.5t-0.5 74.5t132 52t202 93.5t228 295.5t234 430 l-197 8q-371 -428 -571 -617t-532 -345t-696 -171q-272 3 -382 109.5t-112 235.5zM1284 2543q0 48 25.5 81.5t65.5 56t107 24.5q70 -2 123 -23t99.5 -66.5t92 -94t92.5 -48t74.5 28t22.5 58t-25 41.5t-47 0.5t-44 21t-4 60.5t70 29q59 0 103.5 -37t44.5 -114q0 -83 -56 -127 t-147 -45q-104 3 -165 28.5t-100.5 68t-69.5 82t-61 52t-60.5 0t-39 -49.5t11.5 -45.5t36.5 -32t8.5 -52.5t-25.5 -39.5t-44.5 -10.5q-44 0 -66 30.5t-22 122.5zM2686 910l192 -8q72 196 172 372t228 372q-156 -156 -276 -324t-316 -412z" />
<glyph unicode="&#xc4;" horiz-adv-x="3194" d="M328 14q0 104 55 190t127 122t150 30t126 -52t52 -106t-24 -118t-110 -69.5t-132 30t-52 97.5t32 78t22 38t-58.5 -20.5t-79.5 -125.5t14.5 -196.5t227.5 -134t398 20t528 197.5t664 549t544 660t440 538t470 468t552 316q-32 28 -252 26t-558 -56t-662 -144t-642 -258 t-548 -346t-385 -376t-216 -425.5t23 -410t378 -192.5t512 168t286 324t76 244t34 102t28 -88t-30 -234t-226 -336t-436 -244t-412 -22t-306 175.5t-132 398t194 524t510 502t624 362.5t660 236t691.5 135t596.5 33q192 -6 270 -28t114 -62q-8 -36 -60 -52t-132 -44 t-240 -120t-340 -286t-346 -448t-250 -440t-160 -340t-150 -296t-180 -298.5t-246 -237.5q344 79 461.5 148t215 168t151 176.5t84 47.5t-37.5 -124.5t-163 -186.5t-229 -167t-307.5 -102.5t-249.5 -41.5t-148 -43t-116.5 1.5t-0.5 74.5t132 52t202 93.5t228 295.5t234 430 l-197 8q-371 -428 -571 -617t-532 -345t-696 -171q-272 3 -382 109.5t-112 235.5zM2686 910l192 -8q72 196 172 372t228 372q-156 -156 -276 -324t-316 -412zM2829 2184q0 35 29 52q41 24 97 24q48 -9 54 -64q-3 -67 -29 -90q-24 -20 -66 -20h-11q-51 3 -69 65q-5 18 -5 33z M3116 2151.5q-18 61.5 23.5 85.5t97.5 24q48 -9 54 -64q-3 -67 -29 -90q-24 -20 -66 -20h-11q-51 3 -69 64.5z" />
<glyph unicode="&#xc5;" horiz-adv-x="3199" d="M328 14q0 104 55 190t127 122t150 30t126 -52t52 -106t-24 -118t-110 -69.5t-132 30t-52 97.5t32 78t22 38t-58.5 -20.5t-79.5 -125.5t14.5 -196.5t227.5 -134t398 20t528 197.5t664 549t544 660t440 538t470 468t552 316q-32 28 -252 26t-558 -56t-662 -144t-642 -258 t-548 -346t-385 -376t-216 -425.5t23 -410t378 -192.5t512 168t286 324t76 244t34 102t28 -88t-30 -234t-226 -336t-436 -244t-412 -22t-306 175.5t-132 398t194 524t510 502t624 362.5t660 236t691.5 135t596.5 33q192 -6 270 -28t114 -62q-8 -36 -60 -52t-132 -44 t-240 -120t-340 -286t-346 -448t-250 -440t-160 -340t-150 -296t-180 -298.5t-246 -237.5q344 79 461.5 148t215 168t151 176.5t84 47.5t-37.5 -124.5t-163 -186.5t-229 -167t-307.5 -102.5t-249.5 -41.5t-148 -43t-116.5 1.5t-0.5 74.5t132 52t202 93.5t228 295.5t234 430 l-197 8q-371 -428 -571 -617t-532 -345t-696 -171q-272 3 -382 109.5t-112 235.5zM2686 910l192 -8q72 196 172 372t228 372q-156 -156 -276 -324t-316 -412zM2692 2013q9 196 204 196q194 0 209 -192q-9 -218 -202 -218q-211 0 -211 214zM2785 2011q0 -119 116 -119 q107 0 112 120q-5 106 -115 106q-113 0 -113 -107z" />
<glyph unicode="&#xc6;" horiz-adv-x="4724" d="M328 14q0 104 55 190t127 122t150 30t126 -52t52 -106t-24 -118t-110 -69.5t-132 30t-52 97.5t32 78t22 38t-58.5 -20.5t-79.5 -125.5t14.5 -196.5t227.5 -134t398 20t528 197.5t638 536t521.5 644t466 551t492.5 484t552 316q-32 28 -252 26t-558 -56t-662 -144 t-642 -258t-548 -346t-381 -370t-216 -456t19 -416t378 -162t512 158.5t286 324t76 253.5t34 102t37.5 -81.5t-33 -250t-235.5 -342.5t-433 -228t-412 -22t-292 156t-132 398t171.5 545.5t510 502t632.5 360.5t660 236t691.5 135t596.5 33q192 -6 270 -28t114 -62 q-8 -36 -60 -52t-132 -44t-240 -120t-340 -286t-346 -448t-250 -440t-160 -340t-150 -296t-180 -298.5t-246 -237.5q335 55 486 155.5t257 238.5l2 136q2 183 41 344.5t114 334t187 357.5t314.5 392.5t394 318t328 134t216 3t138 -96.5t49 -189t-84.5 -182.5t-176 -68.5 t-89 42.5t66 36t117.5 38t61 165.5t-118 157.5t-308 -51.5t-343 -215t-244 -264t-28 -293t202 -227.5t361.5 -56.5t424.5 125t357.5 282t267.5 341.5t127 334t-24 236.5t-120 92.5t-132 2.5t-87.5 -56t-49.5 -77.5t-2 -47t20 11t39 45.5t79 20t67.5 -34t26 -74.5t-22 -97 t-78.5 -65.5t-105.5 0t-88 83.5t-13 138.5t62 120t93.5 85t148.5 35q80 0 132.5 -39.5t94.5 -106t47 -210.5q-4 -150 -66 -304t-194 -346t-355 -364t-533.5 -233t-554 53t-291.5 400q-104 -157 -212 -424t-101.5 -553.5t154.5 -441t417.5 -156.5t395.5 119.5t165.5 262 t0.5 257.5t-142.5 156t-186.5 22.5t-106.5 -101.5t18 -127.5t23 -72t-71.5 14t-61.5 129.5t46 159t177 92.5t208.5 -10t172 -146.5t64.5 -311.5t-136 -339t-263 -216.5t-342.5 -72q-149 0 -273 36.5t-234.5 142t-163.5 304.5q-146 -147 -280 -222t-307.5 -102.5 t-249.5 -41.5t-148 -43t-116.5 1.5t-0.5 74.5t132 52t202 93.5t228 295.5t234 430l-197 8q-371 -428 -571 -617t-532 -345t-696 -171q-272 3 -382 109.5t-112 235.5zM2686 910l192 -8q72 196 172 372t228 372q-156 -156 -276 -324t-316 -412z" />
<glyph unicode="&#xc7;" horiz-adv-x="2265" d="M315 485q0 269 136 585.5t356 604t528 509.5t582.5 333.5t501.5 117.5q347 -9 465.5 -102t129.5 -245q0 -206 -113.5 -360.5t-296.5 -241t-343 -99.5t-282 29.5t-164 108t-41.5 120t23 54.5t38.5 -60t99 -99t268 -38.5t378 104.5t264 231.5t60.5 240t-97 172.5t-246.5 77 t-371 -28t-623 -292t-730.5 -713.5t-352 -839t85 -553.5t358.5 -249t422.5 -21.5t324 178.5t172 345.5t-73 309.5t-216 109t-196 -29.5t-108 -20t21.5 60t156.5 76.5t258.5 -9.5t213 -159t72 -250.5t-46.5 -270.5t-169.5 -244.5t-267 -181.5t-363 -67.5q-275 0 -461.5 104 t-269.5 286.5t-83 417.5zM760 -767q4 26 49 10t100 -14.5t111.5 36.5t71 101t-63.5 71q-77 -7 -91.5 27.5t33.5 88t122 119.5q52 -7 151 4q-121 -88 -172 -154q73 -6 115 -46.5t43 -110.5q0 -11 -12 -52t-60 -85t-106 -61t-138 -17q-56 0 -88 15t-48 32.5t-17 35.5z" />
<glyph unicode="&#xc8;" horiz-adv-x="2142" d="M290 421q2 188 45 353.5t121 345.5t223 397t348 404t403.5 292.5t362 137.5t266.5 5.5t159.5 -104.5t44 -193.5t-93.5 -187t-194.5 -70.5t-103.5 39t83 37.5t145.5 51t66 169.5t-129.5 163t-331 -30.5t-380 -197t-260 -224t-129.5 -193.5t-36.5 -182.5t64.5 -153.5 t131 -93.5t206 -42t309 15t430.5 121.5t447 255t303.5 341t130 349.5t-26.5 242.5t-133 94.5t-146 2.5t-97 -57t-55 -79.5t-2 -48t22.5 11.5t43 46.5t87.5 20t75 -35t29 -76t-24.5 -99t-87 -67t-116.5 0t-98 85.5t-14.5 142t64 124t103.5 86.5t169 34.5q89 0 147 -40 t104.5 -108.5t52.5 -215.5q-5 -154 -73.5 -326t-212 -343.5t-396 -328t-552.5 -221.5t-510 -55t-317.5 77t-145.5 153t-34 180l6 51q-145 -210 -253 -479t-103 -533.5t119.5 -409.5t315 -194t387.5 -10.5t313.5 147t163.5 280t-26 287t-155 142.5t-190.5 2.5t-133 -113 t25.5 -111.5t50 -60t-86 -13t-83 117.5t54 173.5t174 103.5t240.5 -19t202 -157t62 -311t-161.5 -360.5t-337.5 -217.5t-326.5 -53.5q-147 0 -276.5 40.5t-236 125.5t-167 222t-65.5 344zM712 2597q1 31 14.5 53t35 38t58.5 17q46 -4 68 -49t66 -94t144.5 -119t120.5 -104 q-2 -43 -31 -47h-5q-23 0 -42 9q-21 9 -140 94t-171.5 105t-83.5 40.5t-34 56.5z" />
<glyph unicode="&#xc9;" horiz-adv-x="2202" d="M291 421q2 188 45 353.5t121 345.5t223 397t348 404t403.5 292.5t362 137.5t266.5 5.5t159.5 -104.5t44 -193.5t-93.5 -187t-194.5 -70.5t-103.5 39t83 37.5t145.5 51t66 169.5t-129.5 163t-331 -30.5t-380 -197t-260 -224t-129.5 -193.5t-36.5 -182.5t64.5 -153.5 t131 -93.5t206 -42t309 15t430.5 121.5t447 255t303.5 341t130 349.5t-26.5 242.5t-133 94.5t-146 2.5t-97 -57t-55 -79.5t-2 -48t22.5 11.5t43 46.5t87.5 20t75 -35t29 -76t-24.5 -99t-87 -67t-116.5 0t-98 85.5t-14.5 142t64 124t103.5 86.5t169 34.5q89 0 147 -40 t104.5 -108.5t52.5 -215.5q-5 -154 -73.5 -326t-212 -343.5t-396 -328t-552.5 -221.5t-510 -55t-317.5 77t-145.5 153t-34 180l6 51q-145 -210 -253 -479t-103 -533.5t119.5 -409.5t315 -194t387.5 -10.5t313.5 147t163.5 280t-26 287t-155 142.5t-190.5 2.5t-133 -113 t25.5 -111.5t50 -60t-86 -13t-83 117.5t54 173.5t174 103.5t240.5 -19t202 -157t62 -311t-161.5 -360.5t-337.5 -217.5t-326.5 -53.5q-147 0 -276.5 40.5t-236 125.5t-167 222t-65.5 344zM1075 2348q20 34 120.5 104t144.5 119t66 94t68 49q37 -1 58.5 -17t35 -38t14.5 -53 q-3 -36 -34 -56.5t-83.5 -40.5t-171.5 -105t-140 -94q-19 -9 -42 -9h-5q-29 4 -31 47z" />
<glyph unicode="&#xca;" horiz-adv-x="2142" d="M290 421q2 188 45 353.5t121 345.5t223 397t348 404t403.5 292.5t362 137.5t266.5 5.5t159.5 -104.5t44 -193.5t-93.5 -187t-194.5 -70.5t-103.5 39t83 37.5t145.5 51t66 169.5t-129.5 163t-331 -30.5t-380 -197t-260 -224t-129.5 -193.5t-36.5 -182.5t64.5 -153.5 t131 -93.5t206 -42t309 15t430.5 121.5t447 255t303.5 341t130 349.5t-26.5 242.5t-133 94.5t-146 2.5t-97 -57t-55 -79.5t-2 -48t22.5 11.5t43 46.5t87.5 20t75 -35t29 -76t-24.5 -99t-87 -67t-116.5 0t-98 85.5t-14.5 142t64 124t103.5 86.5t169 34.5q89 0 147 -40 t104.5 -108.5t52.5 -215.5q-5 -154 -73.5 -326t-212 -343.5t-396 -328t-552.5 -221.5t-510 -55t-317.5 77t-145.5 153t-34 180l6 51q-145 -210 -253 -479t-103 -533.5t119.5 -409.5t315 -194t387.5 -10.5t313.5 147t163.5 280t-26 287t-155 142.5t-190.5 2.5t-133 -113 t25.5 -111.5t50 -60t-86 -13t-83 117.5t54 173.5t174 103.5t240.5 -19t202 -157t62 -311t-161.5 -360.5t-337.5 -217.5t-326.5 -53.5q-147 0 -276.5 40.5t-236 125.5t-167 222t-65.5 344zM344 2160q7 54 81.5 74t153 85t125.5 148q-36 70 -18.5 121.5t47.5 77.5t69 30 q49 -7 70.5 -43t8 -83.5t-77.5 -96.5q17 -50 51 -83.5t113.5 -67t109.5 -72t31 -90.5q-5 -45 -70 -56q-17 -2 -43 9.5t-30 37.5t-20.5 51.5t-99 70.5t-105.5 96q-29 -69 -77.5 -123.5t-122 -100.5t-121.5 -48q-32 0 -51 14.5t-24 48.5z" />
<glyph unicode="&#xcb;" horiz-adv-x="2139" d="M290 421q2 188 45 353.5t121 345.5t223 397t348 404t403.5 292.5t362 137.5t266.5 5.5t159.5 -104.5t44 -193.5t-93.5 -187t-194.5 -70.5t-103.5 39t83 37.5t145.5 51t66 169.5t-129.5 163t-331 -30.5t-380 -197t-260 -224t-129.5 -193.5t-36.5 -182.5t64.5 -153.5 t131 -93.5t206 -42t309 15t430.5 121.5t447 255t303.5 341t130 349.5t-26.5 242.5t-133 94.5t-146 2.5t-97 -57t-55 -79.5t-2 -48t22.5 11.5t43 46.5t87.5 20t75 -35t29 -76t-24.5 -99t-87 -67t-116.5 0t-98 85.5t-14.5 142t64 124t103.5 86.5t169 34.5q89 0 147 -40 t104.5 -108.5t52.5 -215.5q-5 -154 -73.5 -326t-212 -343.5t-396 -328t-552.5 -221.5t-510 -55t-317.5 77t-145.5 153t-34 180l6 51q-145 -210 -253 -479t-103 -533.5t119.5 -409.5t315 -194t387.5 -10.5t313.5 147t163.5 280t-26 287t-155 142.5t-190.5 2.5t-133 -113 t25.5 -111.5t50 -60t-86 -13t-83 117.5t54 173.5t174 103.5t240.5 -19t202 -157t62 -311t-161.5 -360.5t-337.5 -217.5t-326.5 -53.5q-147 0 -276.5 40.5t-236 125.5t-167 222t-65.5 344zM1227 2613q0 35 29 52q41 24 97 24q48 -9 54 -64q-3 -67 -29 -90q-24 -20 -66 -20 h-11q-51 3 -69 65q-5 18 -5 33zM1514 2580.5q-18 61.5 23.5 85.5t97.5 24q48 -9 54 -64q-3 -67 -29 -90q-24 -20 -66 -20h-11q-51 3 -69 64.5z" />
<glyph unicode="&#xcc;" horiz-adv-x="2514" d="M152 125q0 81 34.5 155.5t109.5 137t151 93.5t148 40t143.5 -14t103.5 -73.5t32 -103.5t-28 -109.5t-93 -81.5t-118.5 -11.5t-80 60t-23.5 85.5t25 79t82.5 62t-8 24t-117.5 -14.5t-110 -57.5t-110.5 -117.5t-30 -176t89 -169.5t202 -95t358.5 -9t433 93.5t360.5 209.5 t290.5 314.5t232 369.5t216.5 414.5t312 469t406 411t419.5 272.5t354 143q-59 24 -204.5 13t-364 -51t-427.5 -99t-425.5 -157.5t-380 -216t-258.5 -216t-142.5 -194t-45.5 -185t57 -153.5t140 -79t172 7.5t173.5 76t128 135t25.5 151t5 93t46.5 2.5t42 -92t-29 -173.5 t-136 -180t-214.5 -121.5t-260.5 -33t-206 71t-98.5 134.5t-29 145.5t33.5 162.5t116 194.5t221.5 213.5t329 217t455.5 194.5t500.5 138t431 75t390 30q115 -10 159 -20.5t62 -58.5q-18 -33 -64.5 -40.5t-95 -14.5t-156 -45.5t-304 -157.5t-392.5 -282.5t-351.5 -377 t-255.5 -390t-216.5 -407t-254.5 -423.5t-302.5 -333.5t-343 -219t-344 -113t-373.5 -34.5q-229 5 -330 44.5t-165 103.5t-83 135.5t-19 129.5zM1346 2593q1 31 14.5 53t35 38t58.5 17q46 -4 68 -49t66 -94t144.5 -119t120.5 -104q-2 -43 -31 -47h-5q-23 0 -42 9 q-21 9 -140 94t-171.5 105t-83.5 40.5t-34 56.5z" />
<glyph unicode="&#xcd;" horiz-adv-x="2514" d="M152 125q0 81 34.5 155.5t109.5 137t151 93.5t148 40t143.5 -14t103.5 -73.5t32 -103.5t-28 -109.5t-93 -81.5t-118.5 -11.5t-80 60t-23.5 85.5t25 79t82.5 62t-8 24t-117.5 -14.5t-110 -57.5t-110.5 -117.5t-30 -176t89 -169.5t202 -95t358.5 -9t433 93.5t360.5 209.5 t290.5 314.5t232 369.5t216.5 414.5t312 469t406 411t419.5 272.5t354 143q-59 24 -204.5 13t-364 -51t-427.5 -99t-425.5 -157.5t-380 -216t-258.5 -216t-142.5 -194t-45.5 -185t57 -153.5t140 -79t172 7.5t173.5 76t128 135t25.5 151t5 93t46.5 2.5t42 -92t-29 -173.5 t-136 -180t-214.5 -121.5t-260.5 -33t-206 71t-98.5 134.5t-29 145.5t33.5 162.5t116 194.5t221.5 213.5t329 217t455.5 194.5t500.5 138t431 75t390 30q115 -10 159 -20.5t62 -58.5q-18 -33 -64.5 -40.5t-95 -14.5t-156 -45.5t-304 -157.5t-392.5 -282.5t-351.5 -377 t-255.5 -390t-216.5 -407t-254.5 -423.5t-302.5 -333.5t-343 -219t-344 -113t-373.5 -34.5q-229 5 -330 44.5t-165 103.5t-83 135.5t-19 129.5zM1159 2329q20 34 120.5 104t144.5 119t66 94t68 49q37 -1 58.5 -17t35 -38t14.5 -53q-3 -36 -34 -56.5t-83.5 -40.5t-171.5 -105 t-140 -94q-19 -9 -42 -9h-5q-29 4 -31 47z" />
<glyph unicode="&#xce;" horiz-adv-x="2514" d="M152 125q0 81 34.5 155.5t109.5 137t151 93.5t148 40t143.5 -14t103.5 -73.5t32 -103.5t-28 -109.5t-93 -81.5t-118.5 -11.5t-80 60t-23.5 85.5t25 79t82.5 62t-8 24t-117.5 -14.5t-110 -57.5t-110.5 -117.5t-30 -176t89 -169.5t202 -95t358.5 -9t433 93.5t360.5 209.5 t290.5 314.5t232 369.5t216.5 414.5t312 469t406 411t419.5 272.5t354 143q-59 24 -204.5 13t-364 -51t-427.5 -99t-425.5 -157.5t-380 -216t-258.5 -216t-142.5 -194t-45.5 -185t57 -153.5t140 -79t172 7.5t173.5 76t128 135t25.5 151t5 93t46.5 2.5t42 -92t-29 -173.5 t-136 -180t-214.5 -121.5t-260.5 -33t-206 71t-98.5 134.5t-29 145.5t33.5 162.5t116 194.5t221.5 213.5t329 217t455.5 194.5t500.5 138t431 75t390 30q115 -10 159 -20.5t62 -58.5q-18 -33 -64.5 -40.5t-95 -14.5t-156 -45.5t-304 -157.5t-392.5 -282.5t-351.5 -377 t-255.5 -390t-216.5 -407t-254.5 -423.5t-302.5 -333.5t-343 -219t-344 -113t-373.5 -34.5q-229 5 -330 44.5t-165 103.5t-83 135.5t-19 129.5zM727 2081q7 54 81.5 74t153 85t125.5 148q-36 70 -18.5 121.5t47.5 77.5t69 30q49 -7 70.5 -43t8 -83.5t-77.5 -96.5 q17 -50 51 -83.5t113.5 -67t109.5 -72t31 -90.5q-5 -45 -70 -56q-17 -2 -43 9.5t-30 37.5t-20.5 51.5t-99 70.5t-105.5 96q-29 -69 -77.5 -123.5t-122 -100.5t-121.5 -48q-32 0 -51 14.5t-24 48.5z" />
<glyph unicode="&#xcf;" horiz-adv-x="2514" d="M152 125q0 81 34.5 155.5t109.5 137t151 93.5t148 40t143.5 -14t103.5 -73.5t32 -103.5t-28 -109.5t-93 -81.5t-118.5 -11.5t-80 60t-23.5 85.5t25 79t82.5 62t-8 24t-117.5 -14.5t-110 -57.5t-110.5 -117.5t-30 -176t89 -169.5t202 -95t358.5 -9t433 93.5t360.5 209.5 t290.5 314.5t232 369.5t216.5 414.5t312 469t406 411t419.5 272.5t354 143q-59 24 -204.5 13t-364 -51t-427.5 -99t-425.5 -157.5t-380 -216t-258.5 -216t-142.5 -194t-45.5 -185t57 -153.5t140 -79t172 7.5t173.5 76t128 135t25.5 151t5 93t46.5 2.5t42 -92t-29 -173.5 t-136 -180t-214.5 -121.5t-260.5 -33t-206 71t-98.5 134.5t-29 145.5t33.5 162.5t116 194.5t221.5 213.5t329 217t455.5 194.5t500.5 138t431 75t390 30q115 -10 159 -20.5t62 -58.5q-18 -33 -64.5 -40.5t-95 -14.5t-156 -45.5t-304 -157.5t-392.5 -282.5t-351.5 -377 t-255.5 -390t-216.5 -407t-254.5 -423.5t-302.5 -333.5t-343 -219t-344 -113t-373.5 -34.5q-229 5 -330 44.5t-165 103.5t-83 135.5t-19 129.5zM1901 2617q0 35 29 52q41 24 97 24q48 -9 54 -64q-3 -67 -29 -90q-24 -20 -66 -20h-11q-51 3 -69 65q-5 18 -5 33zM2188 2584.5 q-18 61.5 23.5 85.5t97.5 24q48 -9 54 -64q-3 -67 -29 -90q-24 -20 -66 -20h-11q-51 3 -69 64.5z" />
<glyph unicode="&#xd0;" horiz-adv-x="3438" d="M321 -160q8 60 81 96.5t177.5 34t272 -22.5t226.5 2t212 141.5t317 321t300.5 446.5t256.5 507.5t297.5 554.5t252 376.5t164.5 154.5q-113 33 -259 38.5t-334 -23.5t-421.5 -105.5t-490.5 -270t-409.5 -388t-239 -350.5t-126.5 -275.5t-49.5 -233t28 -217.5t123 -155 t177.5 -56.5t189 20t207 96.5t197.5 189.5t128 237.5t44.5 227t-69.5 179.5t-175 37t-169 -130t-93 -215.5t-3.5 -236.5t125.5 -138.5t175.5 -1l-66 -66q-89 -11 -173 20t-115 121t-21 229.5t89.5 272.5t190.5 181.5t209 18t143.5 -121.5t33 -231.5t-81 -287.5t-167.5 -261 t-213.5 -185.5t-224 -98t-211 -16t-192 53t-144 105.5t-82.5 145.5t-27.5 222.5t35.5 266.5t127.5 297t250 353.5t353.5 345.5t426.5 284t483 187t505 62t401.5 -53.5q7 5 45 27t102 48.5t148 37.5q24 -46 -25 -52.5t-122.5 -44t-75.5 -41.5q87 -39 178 -122.5t179 -224 t114.5 -317.5t26.5 -388q0 -216 -74.5 -422.5t-180 -364t-230.5 -297.5t-296 -250.5t-347 -172.5t-355.5 -98t-441.5 -41t-456 15t-246.5 -7t-132.5 -57.5t-226 -40.5q-133 5 -178.5 34t-48.5 94zM518.5 -174q24.5 -29 122.5 -26.5t168 50.5q-83 19 -164.5 27t-116 -7 t-10 -44zM1180 -91q168 -14 375.5 -14t376 27t336 84.5t328 151t305.5 245.5t264 341.5t170.5 335.5t62.5 366t-16 387t-81.5 272t-155 201.5t-181.5 121.5q-9 -6 -66 -56t-149 -174t-173.5 -267.5t-180 -324t-196.5 -413.5t-262.5 -510.5t-338 -456t-418.5 -317.5z M1527 610l77 116q79 30 162 99t192 137q-67 -122 -120 -216q-105 -69 -182.5 -92t-128.5 -44zM2045 857l111 223q176 92 293 110.5t219 15.5q84 -5 121.5 -20t39.5 -26q-5 -30 -29.5 -33.5t-69 -3t-130 -17.5t-205 -57t-350.5 -192z" />
<glyph unicode="&#xd1;" horiz-adv-x="3718" d="M158 126q5 84 37.5 150t110.5 120t167.5 70.5t164.5 2t112.5 -75t25.5 -116.5t-49.5 -93t-88 -47.5t-105.5 7.5t-75 74t-5 100t50.5 51t50.5 19t-20 20t-115 -31t-117.5 -83t-50.5 -130t49.5 -170.5t168 -128.5t208 -56.5t257.5 2.5t308 61.5t395.5 147t461.5 263.5 t479 506.5t530.5 684t526.5 543t492.5 312t336.5 133.5t45 49t-190 34t-337.5 -5.5t-463.5 -53t-513.5 -117t-516 -220t-466 -312.5t-362.5 -364t-237.5 -365t-85.5 -354.5t120 -270.5t281 -60.5t270.5 103.5t228 197.5t155 216.5t69.5 168.5t62.5 66.5t-17.5 -183 t-200 -342.5t-288 -244t-278.5 -95t-259.5 14.5t-198 112.5t-111 227t11 339.5t221 417.5t363 388.5t428 300t506 239.5t527 162.5t478 84t419 26.5t350 -20t178 -65.5t-14 -82.5t-240 -111.5t-540.5 -459t-498.5 -665.5t-281 -573t-165 -420.5t-37.5 -139t102.5 100 t268 344t429 590t473 574t395 365t363 256t324 170.5t357.5 122t450.5 59.5q189 -8 302.5 -58.5t119.5 -107.5q-36 -51 -75.5 -42.5t-72 68t-227 63.5t-430 -52t-496 -182t-540 -357t-557 -557.5t-480.5 -617t-359 -513.5t-248 -283.5t-147.5 -51t-60 95t88 318t198.5 478.5 t307.5 547.5t460.5 561.5t52.5 108t-426.5 -384t-584.5 -733t-586 -691.5t-556 -339t-566 -183.5t-416.5 -42q-160 12 -235.5 28.5t-163.5 72.5t-130 133.5t-52 179.5zM2241 1726q0 48 25.5 81.5t65.5 56t107 24.5q70 -2 123 -23t99.5 -66.5t92 -94t92.5 -48t74.5 28 t22.5 58t-25 41.5t-47 0.5t-44 21t-4 60.5t70 29q59 0 103.5 -37t44.5 -114q0 -83 -56 -127t-147 -45q-104 3 -165 28.5t-100.5 68t-69.5 82t-61 52t-60.5 0t-39 -49.5t11.5 -45.5t36.5 -32t8.5 -52.5t-25.5 -39.5t-44.5 -10.5q-44 0 -66 30.5t-22 122.5z" />
<glyph unicode="&#xd2;" horiz-adv-x="2605" d="M360 600q0 144 41.5 343t149.5 441.5t251.5 437t312 350.5t312.5 255t288 160t285 61q164 0 203 -48t121.5 -45.5t167 -26.5t166 -105.5t139 -207t62.5 -444.5q-25 -267 -95.5 -466t-207.5 -444t-328 -468t-437.5 -400.5t-403.5 -225.5t-315 -55q-214 12 -356.5 86 t-218 215t-106.5 289.5t-31 297.5zM534 500q8 -214 87.5 -373t215.5 -225t304 -64t332.5 80t367 257.5t366 402t300 513.5t159 604t-25 476.5t-138.5 224.5t-208 62q-11 -128 -50 -224t-131 -213t-209 -223.5t-277.5 -200t-378.5 -154.5q-66 -113 -81 -283.5t24 -295.5 t128 -162.5t234.5 -16t255 102.5t160 119.5t66 22.5t-14.5 -61t-138 -127.5t-220.5 -130.5t-232.5 -40t-206.5 72t-129 181t-29 287.5t65.5 302.5q-194 -43 -402 -72q-93 -192 -147.5 -410t-46.5 -432zM611 2595q1 31 14.5 53t35 38t58.5 17q46 -4 68 -49t66 -94t144.5 -119 t120.5 -104q-2 -43 -31 -47h-5q-23 0 -42 9q-21 9 -140 94t-171.5 105t-83.5 40.5t-34 56.5zM779 1450q247 33 373 70q42 118 120 259t182.5 273.5t216.5 228.5t204 149t224 112q-246 32 -431 -75.5t-381 -292.5t-323 -375.5t-185 -348.5zM1298 1563q210 79 379.5 191 t286 234.5t181.5 234t55 228.5q-122 -25 -253 -97.5t-269.5 -205t-256 -305.5t-123.5 -280z" />
<glyph unicode="&#xd3;" horiz-adv-x="2603" d="M360 600q0 144 41.5 343t149.5 441.5t251.5 437t312 350.5t312.5 255t288 160t285 61q164 0 203 -48t121.5 -45.5t167 -26.5t166 -105.5t139 -207t62.5 -444.5q-25 -267 -95.5 -466t-207.5 -444t-328 -468t-437.5 -400.5t-403.5 -225.5t-315 -55q-214 12 -356.5 86 t-218 215t-106.5 289.5t-31 297.5zM418 2337q20 34 120.5 104t144.5 119t66 94t68 49q37 -1 58.5 -17t35 -38t14.5 -53q-3 -36 -34 -56.5t-83.5 -40.5t-171.5 -105t-140 -94q-19 -9 -42 -9h-5q-29 4 -31 47zM534 500q8 -214 87.5 -373t215.5 -225t304 -64t332.5 80 t367 257.5t366 402t300 513.5t159 604t-25 476.5t-138.5 224.5t-208 62q-11 -128 -50 -224t-131 -213t-209 -223.5t-277.5 -200t-378.5 -154.5q-66 -113 -81 -283.5t24 -295.5t128 -162.5t234.5 -16t255 102.5t160 119.5t66 22.5t-14.5 -61t-138 -127.5t-220.5 -130.5 t-232.5 -40t-206.5 72t-129 181t-29 287.5t65.5 302.5q-194 -43 -402 -72q-93 -192 -147.5 -410t-46.5 -432zM779 1450q247 33 373 70q42 118 120 259t182.5 273.5t216.5 228.5t204 149t224 112q-246 32 -431 -75.5t-381 -292.5t-323 -375.5t-185 -348.5zM1298 1563 q210 79 379.5 191t286 234.5t181.5 234t55 228.5q-122 -25 -253 -97.5t-269.5 -205t-256 -305.5t-123.5 -280z" />
<glyph unicode="&#xd4;" horiz-adv-x="2605" d="M204 2173q7 54 81.5 74t153 85t125.5 148q-36 70 -18.5 121.5t47.5 77.5t69 30q49 -7 70.5 -43t8 -83.5t-77.5 -96.5q17 -50 51 -83.5t113.5 -67t109.5 -72t31 -90.5q-5 -45 -70 -56q-17 -2 -43 9.5t-30 37.5t-20.5 51.5t-99 70.5t-105.5 96q-29 -69 -77.5 -123.5 t-122 -100.5t-121.5 -48q-32 0 -51 14.5t-24 48.5zM360 600q0 144 41.5 343t149.5 441.5t251.5 437t312 350.5t312.5 255t288 160t285 61q164 0 203 -48t121.5 -45.5t167 -26.5t166 -105.5t139 -207t62.5 -444.5q-25 -267 -95.5 -466t-207.5 -444t-328 -468t-437.5 -400.5 t-403.5 -225.5t-315 -55q-214 12 -356.5 86t-218 215t-106.5 289.5t-31 297.5zM534 500q8 -214 87.5 -373t215.5 -225t304 -64t332.5 80t367 257.5t366 402t300 513.5t159 604t-25 476.5t-138.5 224.5t-208 62q-11 -128 -50 -224t-131 -213t-209 -223.5t-277.5 -200 t-378.5 -154.5q-66 -113 -81 -283.5t24 -295.5t128 -162.5t234.5 -16t255 102.5t160 119.5t66 22.5t-14.5 -61t-138 -127.5t-220.5 -130.5t-232.5 -40t-206.5 72t-129 181t-29 287.5t65.5 302.5q-194 -43 -402 -72q-93 -192 -147.5 -410t-46.5 -432zM779 1450q247 33 373 70 q42 118 120 259t182.5 273.5t216.5 228.5t204 149t224 112q-246 32 -431 -75.5t-381 -292.5t-323 -375.5t-185 -348.5zM1298 1563q210 79 379.5 191t286 234.5t181.5 234t55 228.5q-122 -25 -253 -97.5t-269.5 -205t-256 -305.5t-123.5 -280z" />
<glyph unicode="&#xd5;" horiz-adv-x="2601" d="M360 600q0 144 41.5 343t149.5 441.5t251.5 437t312 350.5t312.5 255t288 160t285 61q164 0 203 -48t121.5 -45.5t167 -26.5t166 -105.5t139 -207t62.5 -444.5q-25 -267 -95.5 -466t-207.5 -444t-328 -468t-437.5 -400.5t-403.5 -225.5t-315 -55q-214 12 -356.5 86 t-218 215t-106.5 289.5t-31 297.5zM470 2544q0 48 25.5 81.5t65.5 56t107 24.5q70 -2 123 -23t99.5 -66.5t92 -94t92.5 -48t74.5 28t22.5 58t-25 41.5t-47 0.5t-44 21t-4 60.5t70 29q59 0 103.5 -37t44.5 -114q0 -83 -56 -127t-147 -45q-104 3 -165 28.5t-100.5 68t-69.5 82 t-61 52t-60.5 0t-39 -49.5t11.5 -45.5t36.5 -32t8.5 -52.5t-25.5 -39.5t-44.5 -10.5q-44 0 -66 30.5t-22 122.5zM534 500q8 -214 87.5 -373t215.5 -225t304 -64t332.5 80t367 257.5t366 402t300 513.5t159 604t-25 476.5t-138.5 224.5t-208 62q-11 -128 -50 -224t-131 -213 t-209 -223.5t-277.5 -200t-378.5 -154.5q-66 -113 -81 -283.5t24 -295.5t128 -162.5t234.5 -16t255 102.5t160 119.5t66 22.5t-14.5 -61t-138 -127.5t-220.5 -130.5t-232.5 -40t-206.5 72t-129 181t-29 287.5t65.5 302.5q-194 -43 -402 -72q-93 -192 -147.5 -410t-46.5 -432 zM779 1450q247 33 373 70q42 118 120 259t182.5 273.5t216.5 228.5t204 149t224 112q-246 32 -431 -75.5t-381 -292.5t-323 -375.5t-185 -348.5zM1298 1563q210 79 379.5 191t286 234.5t181.5 234t55 228.5q-122 -25 -253 -97.5t-269.5 -205t-256 -305.5t-123.5 -280z" />
<glyph unicode="&#xd6;" horiz-adv-x="2600" d="M360 540q0 130 41.5 309t149.5 397t251.5 393t312 315.5t312.5 229.5t288 144t285 55q164 0 203 -43t121.5 -41t167 -24t166 -95t139 -186t62.5 -400q-25 -240 -95.5 -419.5t-207.5 -400t-328 -421t-437.5 -360.5t-403.5 -203t-315 -49q-214 11 -356.5 77.5t-218 193.5 t-106.5 260.5t-31 267.5zM534 450q8 -193 87.5 -336t215.5 -202.5t304 -57.5t332.5 72t367 232t366 362t300 462t159 543.5t-25 429t-138.5 202t-208 55.5q-11 -115 -50 -201.5t-131 -191.5t-209 -201t-277.5 -180t-378.5 -139q-66 -102 -81 -255.5t24 -266t128 -146 t234.5 -14.5t255 92t160 107.5t66 20.5t-14.5 -54.5t-138 -115t-220.5 -117.5t-232.5 -36t-206.5 64.5t-129 163t-29 259t65.5 272.5q-194 -39 -402 -65q-93 -173 -147.5 -369t-46.5 -389zM779 1305q247 30 373 63q42 106 120 233t182.5 246.5t216.5 205.5t204 134t224 101 q-246 29 -431 -68t-381 -263.5t-323 -338t-185 -313.5zM1298 1407q210 71 379.5 171.5t286 211t181.5 211t55 205.5q-122 -23 -253 -88t-269.5 -184.5t-256 -275t-123.5 -251.5zM2352 2623q0 35 29 52q41 24 97 24q48 -9 54 -64q-3 -67 -29 -90q-24 -20 -66 -20h-11 q-51 3 -69 65q-5 18 -5 33zM2639 2590.5q-18 61.5 23.5 85.5t97.5 24q48 -9 54 -64q-3 -67 -29 -90q-24 -20 -66 -20h-11q-51 3 -69 64.5z" />
<glyph unicode="&#xd7;" horiz-adv-x="1516" d="M352 187q0 8 4 16q10 22 36 20.5t65 19.5q102 79 243 216l35 -38q-145 -146 -203 -254q-21 -35 -18.5 -58.5t-17.5 -40.5q-11 -8 -22 -8q-12 0 -26 9q-27 17 -52 31q-13 24 -31 53q-13 18 -13 34zM355 755q0 16 12 35q19 29 31 53q25 14 53 31q13 9 25 9t22 -9 q20 -17 17.5 -40.5t18.5 -58.5q58 -108 203 -253l-35 -38q-141 136 -243 216q-39 21 -65 19.5t-36 20.5q-3 7 -3 15zM769 527q136 141 216 244q21 38 19.5 64t20 36.5t50.5 -8.5t53 -32q14 -25 31 -52q9 -13 9 -25t-9 -22q-17 -21 -40 -18t-58 -19q-108 -57 -254 -203z M770 416l38 35q146 -146 254 -203q35 -22 58.5 -19t40.5 -17q8 -11 8 -22q0 -12 -8 -26q-18 -27 -32 -52q-24 -13 -52.5 -32t-50.5 -8.5t-20.5 36.5t-19.5 64q-79 103 -216 244z" />
<glyph unicode="&#xd8;" horiz-adv-x="2603" d="M360 600q0 144 41.5 343t149.5 441.5t251.5 437t312 350.5t312.5 258t288 160t285 58q164 0 201 -90q206 -1 290.5 -30t166 -105.5t139 -207t62.5 -444.5q-25 -267 -95.5 -466t-216.5 -476.5t-327 -502t-385.5 -366t-400.5 -195t-362 -53.5q-201 5 -350 82.5 t-224.5 218.5t-106.5 289.5t-31 297.5zM479 -378l147 226q68 -42 137 -77l-106 -172zM534 500q8 -214 87.5 -373t215.5 -225t304 -64t370.5 88t370 240t328 394t297 531t159 604t-25 476.5t-138.5 224.5t-257.5 45.5t-297.5 -88t-287 -214t-256 -305.5t-66.5 -231.5 t84.5 -26t89 17t-21 -95t-150.5 -63t-118.5 105t36.5 238.5t170.5 267.5t219 225.5t201.5 158t209.5 106q-140 56 -357.5 -60.5t-413.5 -301.5t-323 -375.5t-228 -419.5t-155.5 -447t-46.5 -432zM722 -12l477 770l901 1443l142 240q65 5 126 -1l-895 -1529l-621 -1013 q-69 27 -130 90zM2305 2558l89 159l127 -6l-93 -162q-60 11 -123 9z" />
<glyph unicode="&#xd9;" horiz-adv-x="3310" d="M467 899q0 259 104 477t289 426t423 374t472 270t432 147.5t446 44.5q192 -4 192 -56t-91 -75.5t-206 -105t-277.5 -236t-302.5 -342.5t-270 -421q157 -84 214.5 -223t49.5 -308.5t-154.5 -341.5t-395.5 -260q33 -234 167.5 -342.5t288 -125.5t381.5 96t456 335 t382 477.5t229 528t56 488.5t-97 285t-178.5 46.5t-206 -135t-157 -247t-63.5 -275.5t37.5 -187.5t103.5 15.5t83.5 48t6 -68t-95.5 -102t-145.5 2t-83 173.5t18.5 267.5t118.5 296t185.5 228t171 94.5t123.5 12t109 -35.5t126 -120t87 -213.5t22.5 -277.5 q-9 -239 -127 -515t-258.5 -468t-348 -393t-413.5 -311t-319 -131.5t-203 -21.5q-70 0 -150 20t-178.5 88t-166.5 188t-85 257q-143 -34 -300 -12t-261.5 97t-172.5 216t-68 352zM661.5 1094.5q-37.5 -200.5 9 -378t199 -280t389.5 -62.5q2 162 21 308.5t82 315t166 359.5 q-104 16 -172 -13t-95.5 -88t-55.5 -55t-13.5 66.5t64 110.5t129.5 68t194 -3q139 264 312 482.5t381.5 396t368.5 240.5q-156 4 -307.5 -20.5t-384 -107t-482.5 -257t-418.5 -349t-259 -354t-128 -380zM690 2599q1 31 14.5 53t35 38t58.5 17q46 -4 68 -49t66 -94 t144.5 -119t120.5 -104q-2 -43 -31 -47h-5q-23 0 -42 9q-21 9 -140 94t-171.5 105t-83.5 40.5t-34 56.5zM1368 387q246 87 376.5 242t98.5 379t-216 306q-77 -133 -150.5 -317t-92.5 -353.5t-16 -256.5z" />
<glyph unicode="&#xda;" horiz-adv-x="3305" d="M462 899q0 259 104 477t289 426t423 374t472 270t432 147.5t446 44.5q192 -4 192 -56t-91 -75.5t-206 -105t-277.5 -236t-302.5 -342.5t-270 -421q157 -84 214.5 -223t49.5 -308.5t-154.5 -341.5t-395.5 -260q33 -234 167.5 -342.5t288 -125.5t381.5 96t456 335 t382 477.5t229 528t56 488.5t-97 285t-178.5 46.5t-206 -135t-157 -247t-63.5 -275.5t37.5 -187.5t103.5 15.5t83.5 48t6 -68t-95.5 -102t-145.5 2t-83 173.5t18.5 267.5t118.5 296t185.5 228t171 94.5t123.5 12t109 -35.5t126 -120t87 -213.5t22.5 -277.5 q-9 -239 -127 -515t-258.5 -468t-348 -393t-413.5 -311t-319 -131.5t-203 -21.5q-70 0 -150 20t-178.5 88t-166.5 188t-85 257q-143 -34 -300 -12t-261.5 97t-172.5 216t-68 352zM616 2336q20 34 120.5 104t144.5 119t66 94t68 49q37 -1 58.5 -17t35 -38t14.5 -53 q-3 -36 -34 -56.5t-83.5 -40.5t-171.5 -105t-140 -94q-19 -9 -42 -9h-5q-29 4 -31 47zM656.5 1094.5q-37.5 -200.5 9 -378t199 -280t389.5 -62.5q2 162 21 308.5t82 315t166 359.5q-104 16 -172 -13t-95.5 -88t-55.5 -55t-13.5 66.5t64 110.5t129.5 68t194 -3 q139 264 312 482.5t381.5 396t368.5 240.5q-156 4 -307.5 -20.5t-384 -107t-482.5 -257t-418.5 -349t-259 -354t-128 -380zM1363 387q246 87 376.5 242t98.5 379t-216 306q-77 -133 -150.5 -317t-92.5 -353.5t-16 -256.5z" />
<glyph unicode="&#xdb;" horiz-adv-x="3305" d="M177 2174q7 54 81.5 74t153 85t125.5 148q-36 70 -18.5 121.5t47.5 77.5t69 30q49 -7 70.5 -43t8 -83.5t-77.5 -96.5q17 -50 51 -83.5t113.5 -67t109.5 -72t31 -90.5q-5 -45 -70 -56q-17 -2 -43 9.5t-30 37.5t-20.5 51.5t-99 70.5t-105.5 96q-29 -69 -77.5 -123.5 t-122 -100.5t-121.5 -48q-32 0 -51 14.5t-24 48.5zM462 899q0 259 104 477t289 426t423 374t472 270t432 147.5t446 44.5q192 -4 192 -56t-91 -75.5t-206 -105t-277.5 -236t-302.5 -342.5t-270 -421q157 -84 214.5 -223t49.5 -308.5t-154.5 -341.5t-395.5 -260 q33 -234 167.5 -342.5t288 -125.5t381.5 96t456 335t382 477.5t229 528t56 488.5t-97 285t-178.5 46.5t-206 -135t-157 -247t-63.5 -275.5t37.5 -187.5t103.5 15.5t83.5 48t6 -68t-95.5 -102t-145.5 2t-83 173.5t18.5 267.5t118.5 296t185.5 228t171 94.5t123.5 12 t109 -35.5t126 -120t87 -213.5t22.5 -277.5q-9 -239 -127 -515t-258.5 -468t-348 -393t-413.5 -311t-319 -131.5t-203 -21.5q-70 0 -150 20t-178.5 88t-166.5 188t-85 257q-143 -34 -300 -12t-261.5 97t-172.5 216t-68 352zM656.5 1094.5q-37.5 -200.5 9 -378t199 -280 t389.5 -62.5q2 162 21 308.5t82 315t166 359.5q-104 16 -172 -13t-95.5 -88t-55.5 -55t-13.5 66.5t64 110.5t129.5 68t194 -3q139 264 312 482.5t381.5 396t368.5 240.5q-156 4 -307.5 -20.5t-384 -107t-482.5 -257t-418.5 -349t-259 -354t-128 -380zM1363 387 q246 87 376.5 242t98.5 379t-216 306q-77 -133 -150.5 -317t-92.5 -353.5t-16 -256.5z" />
<glyph unicode="&#xdc;" horiz-adv-x="3305" d="M462 899q0 259 104 477t289 426t423 374t472 270t432 147.5t446 44.5q192 -4 192 -56t-91 -75.5t-206 -105t-277.5 -236t-302.5 -342.5t-270 -421q157 -84 214.5 -223t49.5 -308.5t-154.5 -341.5t-395.5 -260q33 -234 167.5 -342.5t288 -125.5t381.5 96t456 335 t382 477.5t229 528t56 488.5t-97 285t-178.5 46.5t-206 -135t-157 -247t-63.5 -275.5t37.5 -187.5t103.5 15.5t83.5 48t6 -68t-95.5 -102t-145.5 2t-83 173.5t18.5 267.5t118.5 296t185.5 228t171 94.5t123.5 12t109 -35.5t126 -120t87 -213.5t22.5 -277.5 q-9 -239 -127 -515t-258.5 -468t-348 -393t-413.5 -311t-319 -131.5t-203 -21.5q-70 0 -150 20t-178.5 88t-166.5 188t-85 257q-143 -34 -300 -12t-261.5 97t-172.5 216t-68 352zM656.5 1094.5q-37.5 -200.5 9 -378t199 -280t389.5 -62.5q2 162 21 308.5t82 315t166 359.5 q-104 16 -172 -13t-95.5 -88t-55.5 -55t-13.5 66.5t64 110.5t129.5 68t194 -3q139 264 312 482.5t381.5 396t368.5 240.5q-156 4 -307.5 -20.5t-384 -107t-482.5 -257t-418.5 -349t-259 -354t-128 -380zM1363 387q246 87 376.5 242t98.5 379t-216 306q-77 -133 -150.5 -317 t-92.5 -353.5t-16 -256.5zM3107 2623q0 35 29 52q41 24 97 24q48 -9 54 -64q-3 -67 -29 -90q-24 -20 -66 -20h-11q-51 3 -69 65q-5 18 -5 33zM3394 2590.5q-18 61.5 23.5 85.5t97.5 24q48 -9 54 -64q-3 -67 -29 -90q-24 -20 -66 -20h-11q-51 3 -69 64.5z" />
<glyph unicode="&#xdd;" horiz-adv-x="3102" d="M238 -622q0 126 76.5 213.5t214 115t366 -31t650.5 -334.5q173 113 266.5 217.5t171 241t107.5 231.5q-185 56 -254 225t-48.5 338.5t90 375t178 414t260.5 468.5q-77 143 -194.5 300.5t-248.5 241t-336 107t-371.5 -27t-267 -177.5t-133.5 -290t29.5 -350t225.5 -322.5 t499 -141.5q43 -49 -33 -85q-194 10 -338 56t-252.5 141t-174.5 247.5t-71.5 302t45 300.5t149.5 251.5t264 162.5t371 52.5t372.5 -78t322 -226t242.5 -314.5q65 110 150.5 229.5t191 238.5t188.5 143q82 -3 61 -73q-56 -54 -56 -101.5t21.5 -103t71.5 -107.5t110 -67 q192 200 366.5 303.5t352 163.5t347.5 60q334 0 334 -207q0 -116 -106 -216t-256 -172.5t-414 -117t-604 -5.5q-78 -85 -191 -245.5t-223 -385.5q90 -239 127 -372.5t39 -263.5t-26 -252.5t-99 -223.5t-201.5 -161.5t-393.5 -59.5q-88 -239 -239 -435t-305 -302 q99 -87 200 -160.5t201 -93t201.5 24.5t137.5 142t7 173.5t-110 101t-191 -108.5q-89 12 -44.5 78t137.5 110.5t204.5 -31.5t116 -214.5t-41.5 -219t-138.5 -131t-215.5 -50.5q-131 0 -249 59t-338 221q-146 -98 -275 -136t-269.5 -53t-293 1.5t-246 70t-155.5 127 t-62 198.5zM348.5 -618q7.5 -91 88 -169.5t203.5 -99.5t266 -17t285.5 46t232.5 111q-57 55 -260 180.5t-334 157t-259.5 17.5t-179 -74.5t-43 -151.5zM1087 1849q20 34 120.5 104t144.5 119t66 94t68 49q37 -1 58.5 -17t35 -38t14.5 -53q-3 -36 -34 -56.5t-83.5 -40.5 t-171.5 -105t-140 -94q-19 -9 -42 -9h-5q-29 4 -31 47zM1914 489.5q13 -273.5 216 -328.5q43 138 131.5 370.5t329.5 744.5q-64 150 -109.5 255t-102.5 213q-238 -381 -358 -681t-107 -573.5zM2244 133q253 0 357.5 95t139 260.5t11.5 324.5t-103 350q-162 -369 -240.5 -577 t-164.5 -453zM2498 1920q66 -148 106.5 -233.5t96.5 -227.5q52 124 125 240t227 312q-100 31 -173 121.5t-79 216.5q-72 -83 -149.5 -188.5t-153.5 -240.5zM3276 2125q177 -26 429.5 -15.5t404.5 69.5t238 138t78.5 158.5t-98 101.5t-238.5 4.5t-355 -115.5t-459 -341z" />
<glyph unicode="&#xdf;" horiz-adv-x="984" d="M-1552 -647q1 58 35.5 99t99 44t100 -28t46.5 -86t52.5 -124t170.5 -94t327 37.5t348 232.5t232 353t211.5 611.5t240.5 640t287 433t358.5 363.5t317 199t282.5 59q90 -12 119.5 -38t47.5 -49.5t18 -67.5t-26.5 -134.5t-136.5 -237t-270 -268t-340 -211.5t-239.5 -153.5 t-53 -127t51.5 -191.5t59.5 -240t-8.5 -194t-87.5 -129.5t-124 -51.5t-116.5 8.5t-80.5 49t-25.5 77t34.5 69t86.5 17t67.5 -63t84.5 7t44 178t-60 233t-54 201.5t57.5 185t293.5 219t375 254.5t240 251.5t85.5 187t-62.5 92t-185 -17t-298.5 -174.5t-388 -415.5t-344 -608 t-195 -542t-105.5 -337.5t-147 -297t-230 -292t-283.5 -178.5t-364.5 -62q-172 0 -273.5 37t-184.5 118t-89 156z" />
<glyph unicode="&#xe0;" d="M-62 195q2 104 96 257t189.5 262.5t152 136.5t112.5 29q52 -3 84.5 -35t49.5 -94.5t-66.5 -218.5t-90.5 -269.5t50 -122.5t108.5 34t80 68.5t74.5 18.5q-3 -56 -55.5 -121t-105 -102.5t-130.5 -40.5q-117 2 -136 181q-149 -176 -234 -177t-132 45.5t-47 148.5zM85 281.5 q-32 -124.5 58.5 -121.5t156 100.5t146.5 261.5t18.5 206.5t-205.5 -140.5q-142 -182 -174 -306.5zM287 1305q1 31 14.5 53t35 38t58.5 17q46 -4 68 -49t66 -94t144.5 -119t120.5 -104q-2 -43 -31 -47h-5q-23 0 -42 9q-21 9 -140 94t-171.5 105t-83.5 40.5t-34 56.5z" />
<glyph unicode="&#xe1;" d="M-62 195q2 104 96 257t189.5 262.5t152 136.5t112.5 29q52 -3 84.5 -35t49.5 -94.5t-66.5 -218.5t-90.5 -269.5t50 -122.5t108.5 34t80 68.5t74.5 18.5q-3 -56 -55.5 -121t-105 -102.5t-130.5 -40.5q-117 2 -136 181q-149 -176 -234 -177t-132 45.5t-47 148.5zM85 281.5 q-32 -124.5 58.5 -121.5t156 100.5t146.5 261.5t18.5 206.5t-205.5 -140.5q-142 -182 -174 -306.5zM239 1047q20 34 120.5 104t144.5 119t66 94t68 49q37 -1 58.5 -17t35 -38t14.5 -53q-3 -36 -34 -56.5t-83.5 -40.5t-171.5 -105t-140 -94q-19 -9 -42 -9h-5q-29 4 -31 47z " />
<glyph unicode="&#xe2;" d="M-62 195q2 104 96 257t189.5 262.5t152 136.5t112.5 29q52 -3 84.5 -35t49.5 -94.5t-66.5 -218.5t-90.5 -269.5t50 -122.5t108.5 34t80 68.5t74.5 18.5q-3 -56 -55.5 -121t-105 -102.5t-130.5 -40.5q-117 2 -136 181q-149 -176 -234 -177t-132 45.5t-47 148.5zM85 281.5 q-32 -124.5 58.5 -121.5t156 100.5t146.5 261.5t18.5 206.5t-205.5 -140.5q-142 -182 -174 -306.5zM171 1063q7 54 81.5 74t153 85t125.5 148q-36 70 -18.5 121.5t47.5 77.5t69 30q49 -7 70.5 -43t8 -83.5t-77.5 -96.5q17 -50 51 -83.5t113.5 -67t109.5 -72t31 -90.5 q-5 -45 -70 -56q-17 -2 -43 9.5t-30 37.5t-20.5 51.5t-99 70.5t-105.5 96q-29 -69 -77.5 -123.5t-122 -100.5t-121.5 -48q-32 0 -51 14.5t-24 48.5z" />
<glyph unicode="&#xe3;" d="M-62 195q2 104 96 257t189.5 262.5t152 136.5t112.5 29q52 -3 84.5 -35t49.5 -94.5t-66.5 -218.5t-90.5 -269.5t50 -122.5t108.5 34t80 68.5t74.5 18.5q-3 -56 -55.5 -121t-105 -102.5t-130.5 -40.5q-117 2 -136 181q-149 -176 -234 -177t-132 45.5t-47 148.5zM85 281.5 q-32 -124.5 58.5 -121.5t156 100.5t146.5 261.5t18.5 206.5t-205.5 -140.5q-142 -182 -174 -306.5zM145 1153q0 48 25.5 81.5t65.5 56t107 24.5q70 -2 123 -23t99.5 -66.5t92 -94t92.5 -48t74.5 28t22.5 58t-25 41.5t-47 0.5t-44 21t-4 60.5t70 29q59 0 103.5 -37t44.5 -114 q0 -83 -56 -127t-147 -45q-104 3 -165 28.5t-100.5 68t-69.5 82t-61 52t-60.5 0t-39 -49.5t11.5 -45.5t36.5 -32t8.5 -52.5t-25.5 -39.5t-44.5 -10.5q-44 0 -66 30.5t-22 122.5z" />
<glyph unicode="&#xe4;" d="M-62 195q2 104 96 257t189.5 262.5t152 136.5t112.5 29q52 -3 84.5 -35t49.5 -94.5t-66.5 -218.5t-90.5 -269.5t50 -122.5t108.5 34t80 68.5t74.5 18.5q-3 -56 -55.5 -121t-105 -102.5t-130.5 -40.5q-117 2 -136 181q-149 -176 -234 -177t-132 45.5t-47 148.5zM85 281.5 q-32 -124.5 58.5 -121.5t156 100.5t146.5 261.5t18.5 206.5t-205.5 -140.5q-142 -182 -174 -306.5zM292 1098q0 35 29 52q41 24 97 24q48 -9 54 -64q-3 -67 -29 -90q-24 -20 -66 -20h-11q-51 3 -69 65q-5 18 -5 33zM579 1065.5q-18 61.5 23.5 85.5t97.5 24q48 -9 54 -64 q-3 -67 -29 -90q-24 -20 -66 -20h-11q-51 3 -69 64.5z" />
<glyph unicode="&#xe5;" d="M-62 195q2 104 96 257t189.5 262.5t152 136.5t112.5 29q52 -3 84.5 -35t49.5 -94.5t-66.5 -218.5t-90.5 -269.5t50 -122.5t108.5 34t80 68.5t74.5 18.5q-3 -56 -55.5 -121t-105 -102.5t-130.5 -40.5q-117 2 -136 181q-149 -176 -234 -177t-132 45.5t-47 148.5zM85 281.5 q-32 -124.5 58.5 -121.5t156 100.5t146.5 261.5t18.5 206.5t-205.5 -140.5q-142 -182 -174 -306.5zM362 1214q9 196 204 196q194 0 209 -192q-9 -218 -202 -218q-211 0 -211 214zM455 1212q0 -119 116 -119q107 0 112 120q-5 106 -115 106q-113 0 -113 -107z" />
<glyph unicode="&#xe6;" horiz-adv-x="1121" d="M-102 164q1 79 38 155t121 131.5t200 55t188 -21.5q65 113 82.5 173.5t-18.5 100.5t-107 40.5t-129.5 -53.5t-90 -104t-52 -29.5t-1.5 66.5t64.5 101.5t110.5 85t171 29.5q183 0 176 -190q133 182 280 182q89 -5 129 -58t45 -132q-2 -118 -83 -204t-200.5 -117.5 t-272.5 -17.5q-45 -216 9 -235.5t142 6t169 77t106 79t43.5 6t-7 -59.5t-99.5 -103t-167 -98.5t-218 -29.5q-159 -2 -149 131q-51 -60 -111 -100t-181 -42q-98 7 -139.5 51.5t-48.5 124.5zM39.5 280q-21.5 -74 6.5 -123.5t117 -45.5t148.5 60t100.5 211q-122 48 -236.5 10 t-136 -112zM591 462q152 -21 269.5 42.5t115 147.5t-61.5 103t-125.5 -36.5t-121.5 -123t-76 -133.5z" />
<glyph unicode="&#xe7;" horiz-adv-x="612" d="M-184 -395q4 24 44.5 9.5t90 -13t100 33t63.5 90.5t-57 64q-69 -6 -82 25t30 79t110 107q47 -6 136 4q-109 -79 -155 -139q66 -5 103.5 -41.5t38.5 -99.5q0 -10 -10.5 -47t-54 -76.5t-95.5 -54.5t-124 -15q-51 0 -79.5 13.5t-43 29t-15.5 31.5zM-60 195q2 104 96 257 t189.5 262.5t152 136.5t112.5 29q72 -6 115.5 -37.5t46.5 -92.5q-13 -41 -76 -20.5t-124 17.5t-190.5 -177.5t-164 -277t45 -116t148 54t102 104t57 25.5t-28.5 -99t-134.5 -173.5t-176.5 -87.5q-82 0 -126 46.5t-44 148.5z" />
<glyph unicode="&#xe8;" horiz-adv-x="679" d="M-57 130q0 163 112.5 362t224.5 291t213 94q86 0 127 -29t41 -83q0 -80 -76.5 -170.5t-197.5 -164t-210 -120t-96 -108t47 -81t142 11.5t165.5 76t105 73t47 8.5t-6.5 -56.5t-103 -100t-170 -100.5t-215 -37.5q-150 0 -150 134zM157 411q169 83 277 171t93 137 t-59.5 41.5t-103 -56.5t-124.5 -139t-83 -154zM193 1305q1 31 14.5 53t35 38t58.5 17q46 -4 68 -49t66 -94t144.5 -119t120.5 -104q-2 -43 -31 -47h-5q-23 0 -42 9q-21 9 -140 94t-171.5 105t-83.5 40.5t-34 56.5z" />
<glyph unicode="&#xe9;" horiz-adv-x="675" d="M-60 130q0 163 112.5 362t224.5 291t213 94q86 0 127 -29t41 -83q0 -80 -76.5 -170.5t-197.5 -164t-210 -120t-96 -108t47 -81t142 11.5t165.5 76t105 73t47 8.5t-6.5 -56.5t-103 -100t-170 -100.5t-215 -37.5q-150 0 -150 134zM154 411q169 83 277 171t93 137 t-59.5 41.5t-103 -56.5t-124.5 -139t-83 -154zM169 1047q20 34 120.5 104t144.5 119t66 94t68 49q37 -1 58.5 -17t35 -38t14.5 -53q-3 -36 -34 -56.5t-83.5 -40.5t-171.5 -105t-140 -94q-19 -9 -42 -9h-5q-29 4 -31 47z" />
<glyph unicode="&#xea;" horiz-adv-x="683" d="M-57 130q0 163 112.5 362t224.5 291t213 94q86 0 127 -29t41 -83q0 -80 -76.5 -170.5t-197.5 -164t-210 -120t-96 -108t47 -81t142 11.5t165.5 76t105 73t47 8.5t-6.5 -56.5t-103 -100t-170 -100.5t-215 -37.5q-150 0 -150 134zM114 1063q7 54 81.5 74t153 85t125.5 148 q-36 70 -18.5 121.5t47.5 77.5t69 30q49 -7 70.5 -43t8 -83.5t-77.5 -96.5q17 -50 51 -83.5t113.5 -67t109.5 -72t31 -90.5q-5 -45 -70 -56q-17 -2 -43 9.5t-30 37.5t-20.5 51.5t-99 70.5t-105.5 96q-29 -69 -77.5 -123.5t-122 -100.5t-121.5 -48q-32 0 -51 14.5t-24 48.5z M157 411q169 83 277 171t93 137t-59.5 41.5t-103 -56.5t-124.5 -139t-83 -154z" />
<glyph unicode="&#xeb;" horiz-adv-x="679" d="M-57 130q0 163 112.5 362t224.5 291t213 94q86 0 127 -29t41 -83q0 -80 -76.5 -170.5t-197.5 -164t-210 -120t-96 -108t47 -81t142 11.5t165.5 76t105 73t47 8.5t-6.5 -56.5t-103 -100t-170 -100.5t-215 -37.5q-150 0 -150 134zM157 411q169 83 277 171t93 137 t-59.5 41.5t-103 -56.5t-124.5 -139t-83 -154zM307 1098q0 35 29 52q41 24 97 24q48 -9 54 -64q-3 -67 -29 -90q-24 -20 -66 -20h-11q-51 3 -69 65q-5 18 -5 33zM594 1065.5q-18 61.5 23.5 85.5t97.5 24q48 -9 54 -64q-3 -67 -29 -90q-24 -20 -66 -20h-11q-51 3 -69 64.5z " />
<glyph unicode="&#xec;" horiz-adv-x="519" d="M-39 133q0 137 59 268t165 300t175 177q14 2 26 2q46 0 58 -25q8 -16 8 -33q0 -15 -7 -31q-14 -33 -96.5 -113t-154.5 -213t-90.5 -209.5t18 -109t110 14t106 83t59 23t16 -49t-72 -92.5t-121.5 -90t-159 -36q-99 1 -99 134zM183 1305q1 31 14.5 53t35 38t58.5 17 q46 -4 68 -49t66 -94t144.5 -119t120.5 -104q-2 -43 -31 -47h-5q-23 0 -42 9q-21 9 -140 94t-171.5 105t-83.5 40.5t-34 56.5z" />
<glyph unicode="&#xed;" horiz-adv-x="519" d="M-39 133q0 137 59 268t165 300t175 177q14 2 26 2q46 0 58 -25q8 -16 8 -33q0 -15 -7 -31q-14 -33 -96.5 -113t-154.5 -213t-90.5 -209.5t18 -109t110 14t106 83t59 23t16 -49t-72 -92.5t-121.5 -90t-159 -36q-99 1 -99 134zM233 1047q20 34 120.5 104t144.5 119t66 94 t68 49q37 -1 58.5 -17t35 -38t14.5 -53q-3 -36 -34 -56.5t-83.5 -40.5t-171.5 -105t-140 -94q-19 -9 -42 -9h-5q-29 4 -31 47z" />
<glyph unicode="&#xee;" horiz-adv-x="519" d="M-39 133q0 137 59 268t165 300t175 177q14 2 26 2q46 0 58 -25q8 -16 8 -33q0 -15 -7 -31q-14 -33 -96.5 -113t-154.5 -213t-90.5 -209.5t18 -109t110 14t106 83t59 23t16 -49t-72 -92.5t-121.5 -90t-159 -36q-99 1 -99 134zM54 1063q7 54 81.5 74t153 85t125.5 148 q-36 70 -18.5 121.5t47.5 77.5t69 30q49 -7 70.5 -43t8 -83.5t-77.5 -96.5q17 -50 51 -83.5t113.5 -67t109.5 -72t31 -90.5q-5 -45 -70 -56q-17 -2 -43 9.5t-30 37.5t-20.5 51.5t-99 70.5t-105.5 96q-29 -69 -77.5 -123.5t-122 -100.5t-121.5 -48q-32 0 -51 14.5t-24 48.5z " />
<glyph unicode="&#xef;" horiz-adv-x="519" d="M-39 133q0 137 59 268t165 300t175 177q14 2 26 2q46 0 58 -25q8 -16 8 -33q0 -15 -7 -31q-14 -33 -96.5 -113t-154.5 -213t-90.5 -209.5t18 -109t110 14t106 83t59 23t16 -49t-72 -92.5t-121.5 -90t-159 -36q-99 1 -99 134zM247 1098q0 35 29 52q41 24 97 24 q48 -9 54 -64q-3 -67 -29 -90q-24 -20 -66 -20h-11q-51 3 -69 65q-5 18 -5 33zM534 1065.5q-18 61.5 23.5 85.5t97.5 24q48 -9 54 -64q-3 -67 -29 -90q-24 -20 -66 -20h-11q-51 3 -69 64.5z" />
<glyph unicode="&#xf0;" horiz-adv-x="701" d="M-2250 1946q0 135 48 249.5t156 219.5t253.5 167t444.5 69q240 -7 463.5 -58.5t448 -175t379 -258t273 -280t200 -322t128.5 -348.5t47 -405q0 -133 -24.5 -261.5t-79.5 -251t-161 -209t-207 -86.5q-107 0 -155.5 69t-48.5 192t82.5 280.5t212 250t276.5 102.5 q-9 229 -113.5 476.5t-217.5 396.5t-296.5 306t-450 290t-545.5 156.5t-470.5 -4.5t-340.5 -153t-184.5 -286t43.5 -315.5t229.5 -232t362.5 -71.5t336.5 68.5t180.5 144t74 131.5t52 48t34 -46.5t-71.5 -163t-178 -180.5t-238 -85.5t-323 -8.5t-326 101.5t-214 212 t-79.5 271.5zM65 343.5q-15 -103.5 44.5 -150.5t153 25.5t152.5 225t64 336.5q-91 17 -180.5 -53t-154 -175t-79.5 -208.5zM80 1148q1 25 32 33.5t70 48t76 89.5t89 95q32 -57 49 -124q-94 -53 -160.5 -112.5t-105.5 -58.5t-50 29zM440 1504q164 115 263 143.5t171 38.5 q59 5 87 -1.5t31 -12.5q-1 -22 -17.5 -27.5t-48 -10t-89.5 -26.5t-133 -65t-208 -177q-19 64 -56 138z" />
<glyph unicode="&#xf1;" horiz-adv-x="924" d="M-6 40q5 34 57.5 127.5t124 256t86 217.5t1.5 84t-44 36t-61.5 -6t-54.5 -38.5t-34.5 -39t-25.5 -13.5t-22 19q7 37 22 62.5t48.5 58.5t81 54.5t103.5 21.5q38 -6 62 -16.5t43 -31.5t26.5 -50.5t0.5 -83.5q80 91 130.5 127t75.5 43t57 10q30 -3 48.5 -14t37 -36t20 -65.5 t-24 -113.5t-105.5 -250.5t-91.5 -225t11 -76t66.5 -16.5t80 42.5t53.5 43t40.5 4.5q-2 -25 -26 -55.5t-59 -62t-82.5 -44.5t-93.5 -15q-37 2 -62.5 10.5t-48.5 48.5t-24 76t19 88.5t62.5 139t84 182.5t47 137t-9.5 57t-46.5 11t-67.5 -32t-67 -61.5t-52.5 -84t-71 -162.5 t-105.5 -219.5t-82.5 -139t-50.5 -39.5t-48 -6q-25 6 -29 40zM234 1153q0 48 25.5 81.5t65.5 56t107 24.5q70 -2 123 -23t99.5 -66.5t92 -94t92.5 -48t74.5 28t22.5 58t-25 41.5t-47 0.5t-44 21t-4 60.5t70 29q59 0 103.5 -37t44.5 -114q0 -83 -56 -127t-147 -45 q-104 3 -165 28.5t-100.5 68t-69.5 82t-61 52t-60.5 0t-39 -49.5t11.5 -45.5t36.5 -32t8.5 -52.5t-25.5 -39.5t-44.5 -10.5q-44 0 -66 30.5t-22 122.5z" />
<glyph unicode="&#xf2;" horiz-adv-x="759" d="M-58 187q4 181 101 307.5t187.5 201t147.5 126.5t119 58q56 -2 86.5 -16t65 -31t95 -23.5t127 14.5t76.5 -27q-11 -53 -84 -78.5t-161 -6.5t-77.5 -57t-67 -256.5t-191.5 -288t-229 -110.5q-185 5 -195 187zM87.5 330.5q-46.5 -109.5 18.5 -160t125 -17.5 q60 34 121.5 123t117.5 212t34.5 188.5t-101 17.5t-174.5 -151t-141.5 -212.5zM283 1305q1 31 14.5 53t35 38t58.5 17q46 -4 68 -49t66 -94t144.5 -119t120.5 -104q-2 -43 -31 -47h-5q-23 0 -42 9q-21 9 -140 94t-171.5 105t-83.5 40.5t-34 56.5z" />
<glyph unicode="&#xf3;" horiz-adv-x="759" d="M-58 187q4 181 101 307.5t187.5 201t147.5 126.5t119 58q56 -2 86.5 -16t65 -31t95 -23.5t127 14.5t76.5 -27q-11 -53 -84 -78.5t-161 -6.5t-77.5 -57t-67 -256.5t-191.5 -288t-229 -110.5q-185 5 -195 187zM87.5 330.5q-46.5 -109.5 18.5 -160t125 -17.5 q60 34 121.5 123t117.5 212t34.5 188.5t-101 17.5t-174.5 -151t-141.5 -212.5zM293 1047q20 34 120.5 104t144.5 119t66 94t68 49q37 -1 58.5 -17t35 -38t14.5 -53q-3 -36 -34 -56.5t-83.5 -40.5t-171.5 -105t-140 -94q-19 -9 -42 -9h-5q-29 4 -31 47z" />
<glyph unicode="&#xf4;" horiz-adv-x="759" d="M-58 187q4 181 101 307.5t187.5 201t147.5 126.5t119 58q56 -2 86.5 -16t65 -31t95 -23.5t127 14.5t76.5 -27q-11 -53 -84 -78.5t-161 -6.5t-77.5 -57t-67 -256.5t-191.5 -288t-229 -110.5q-185 5 -195 187zM87.5 330.5q-46.5 -109.5 18.5 -160t125 -17.5 q60 34 121.5 123t117.5 212t34.5 188.5t-101 17.5t-174.5 -151t-141.5 -212.5zM213 1063q7 54 81.5 74t153 85t125.5 148q-36 70 -18.5 121.5t47.5 77.5t69 30q49 -7 70.5 -43t8 -83.5t-77.5 -96.5q17 -50 51 -83.5t113.5 -67t109.5 -72t31 -90.5q-5 -45 -70 -56 q-17 -2 -43 9.5t-30 37.5t-20.5 51.5t-99 70.5t-105.5 96q-29 -69 -77.5 -123.5t-122 -100.5t-121.5 -48q-32 0 -51 14.5t-24 48.5z" />
<glyph unicode="&#xf5;" horiz-adv-x="759" d="M-58 187q4 181 101 307.5t187.5 201t147.5 126.5t119 58q56 -2 86.5 -16t65 -31t95 -23.5t127 14.5t76.5 -27q-11 -53 -84 -78.5t-161 -6.5t-77.5 -57t-67 -256.5t-191.5 -288t-229 -110.5q-185 5 -195 187zM87.5 330.5q-46.5 -109.5 18.5 -160t125 -17.5 q60 34 121.5 123t117.5 212t34.5 188.5t-101 17.5t-174.5 -151t-141.5 -212.5zM234 1153q0 48 25.5 81.5t65.5 56t107 24.5q70 -2 123 -23t99.5 -66.5t92 -94t92.5 -48t74.5 28t22.5 58t-25 41.5t-47 0.5t-44 21t-4 60.5t70 29q59 0 103.5 -37t44.5 -114q0 -83 -56 -127 t-147 -45q-104 3 -165 28.5t-100.5 68t-69.5 82t-61 52t-60.5 0t-39 -49.5t11.5 -45.5t36.5 -32t8.5 -52.5t-25.5 -39.5t-44.5 -10.5q-44 0 -66 30.5t-22 122.5z" />
<glyph unicode="&#xf6;" horiz-adv-x="759" d="M-58 187q4 181 101 307.5t187.5 201t147.5 126.5t119 58q56 -2 86.5 -16t65 -31t95 -23.5t127 14.5t76.5 -27q-11 -53 -84 -78.5t-161 -6.5t-77.5 -57t-67 -256.5t-191.5 -288t-229 -110.5q-185 5 -195 187zM87.5 330.5q-46.5 -109.5 18.5 -160t125 -17.5 q60 34 121.5 123t117.5 212t34.5 188.5t-101 17.5t-174.5 -151t-141.5 -212.5zM337 1098q0 35 29 52q41 24 97 24q48 -9 54 -64q-3 -67 -29 -90q-24 -20 -66 -20h-11q-51 3 -69 65q-5 18 -5 33zM624 1065.5q-18 61.5 23.5 85.5t97.5 24q48 -9 54 -64q-3 -67 -29 -90 q-24 -20 -66 -20h-11q-51 3 -69 64.5z" />
<glyph unicode="&#xf7;" horiz-adv-x="1655" d="M200 999q107 0 191.5 -74.5t120 -194.5t21.5 -252q-65 75 -135 80.5t-133 -11.5q-52 47 -53.5 118.5t24.5 155t-36 178.5zM219 464q116 51 180.5 29t122.5 -81.5t85 -84t58.5 -22.5t40.5 26t-37.5 34t-60.5 54.5t0 164t70.5 218t87 155t16 117.5t-66 131.5t-89 103 t-15.5 86.5t89.5 92.5t95.5 98.5t31 60t31 -59.5t95.5 -98t89.5 -92.5t-15.5 -87t-89 -103t-66 -131t16 -117.5t87 -155t70.5 -218t0 -164t-60.5 -54.5t-37.5 -34.5t40.5 -26t58.5 22.5t85 83.5t122.5 82t180.5 -28.5q-88 -24 -118.5 -80t-47.5 -159.5t-124 -105.5 q-100 0 -210.5 41t-218 0t-207.5 -41q-107 2 -124 105t-47.5 159t-118.5 80zM322.5 1052.5q0.5 20.5 46 51t86.5 87t26 146.5q121 -83 182.5 -170.5t43 -151t-53 -119.5t-73.5 -174q-38 132 -105 201t-110 89t-42.5 40.5zM947.5 1016q-18.5 63 43 151t182.5 170 q-15 -90 26 -146t86.5 -86.5t46 -51.5t-42.5 -40.5t-110 -88.5t-105 -201q-39 118 -73.5 174t-53 119zM1121 479q-14 131 21.5 251t120 195t191.5 75q-62 -95 -36 -178.5t24.5 -155.5t-53.5 -119q-63 17 -133 12t-135 -80z" />
<glyph unicode="&#xf8;" horiz-adv-x="760" d="M-148 -56l119 132q-23 20 -28 111q4 181 113.5 375.5t237.5 259.5t249 58q71 97 168 173l38 -8q37 -22 -14.5 -61t-109.5 -129q58 -39 118.5 -45.5t127 14.5t76.5 -27q-11 -53 -84 -78.5t-143 -8.5t-63.5 -2t4 -83.5t-88.5 -242t-195.5 -280.5t-213.5 -103t-126 29 l-125 -114l-45 7zM77 195q66 76 188.5 253t189.5 308q-47 11 -107 -23.5t-144.5 -158.5t-112 -245t-14.5 -134zM146 152q25 -32 87 -0.5t140.5 139.5t129 236t28.5 194q-185 -340 -385 -569z" />
<glyph unicode="&#xf9;" horiz-adv-x="839" d="M-57 139q0 42 26.5 132.5t121.5 282.5t124 256t65.5 64t56.5 -27.5t-2 -83.5t-88 -175t-111.5 -225.5t-48.5 -153.5t21 -66.5t55 -14t67 32t65.5 65t58.5 92t79.5 159t103 210.5t76 138.5t41 41t46.5 8.5q32 -3 36 -18t-1.5 -45t-54.5 -118t-122.5 -247t-88 -214 t-1.5 -84t44 -36t65.5 8t73 44.5t52.5 47t29.5 17.5t21.5 -17q-9 -32 -46 -74.5t-74.5 -73t-81.5 -48.5t-97 -23q-38 6 -62 15.5t-43.5 31t-26.5 51.5t-1 84q-80 -93 -130.5 -129t-75 -42t-56.5 -9q-31 3 -58.5 19.5t-43 49.5t-15.5 74zM283 1305q1 31 14.5 53t35 38 t58.5 17q46 -4 68 -49t66 -94t144.5 -119t120.5 -104q-2 -43 -31 -47h-5q-23 0 -42 9q-21 9 -140 94t-171.5 105t-83.5 40.5t-34 56.5z" />
<glyph unicode="&#xfa;" horiz-adv-x="839" d="M-57 139q0 42 26.5 132.5t121.5 282.5t124 256t65.5 64t56.5 -27.5t-2 -83.5t-88 -175t-111.5 -225.5t-48.5 -153.5t21 -66.5t55 -14t67 32t65.5 65t58.5 92t79.5 159t103 210.5t76 138.5t41 41t46.5 8.5q32 -3 36 -18t-1.5 -45t-54.5 -118t-122.5 -247t-88 -214 t-1.5 -84t44 -36t65.5 8t73 44.5t52.5 47t29.5 17.5t21.5 -17q-9 -32 -46 -74.5t-74.5 -73t-81.5 -48.5t-97 -23q-38 6 -62 15.5t-43.5 31t-26.5 51.5t-1 84q-80 -93 -130.5 -129t-75 -42t-56.5 -9q-31 3 -58.5 19.5t-43 49.5t-15.5 74zM463 1047q20 34 120.5 104t144.5 119 t66 94t68 49q37 -1 58.5 -17t35 -38t14.5 -53q-3 -36 -34 -56.5t-83.5 -40.5t-171.5 -105t-140 -94q-19 -9 -42 -9h-5q-29 4 -31 47z" />
<glyph unicode="&#xfb;" horiz-adv-x="839" d="M-57 139q0 42 26.5 132.5t121.5 282.5t124 256t65.5 64t56.5 -27.5t-2 -83.5t-88 -175t-111.5 -225.5t-48.5 -153.5t21 -66.5t55 -14t67 32t65.5 65t58.5 92t79.5 159t103 210.5t76 138.5t41 41t46.5 8.5q32 -3 36 -18t-1.5 -45t-54.5 -118t-122.5 -247t-88 -214 t-1.5 -84t44 -36t65.5 8t73 44.5t52.5 47t29.5 17.5t21.5 -17q-9 -32 -46 -74.5t-74.5 -73t-81.5 -48.5t-97 -23q-38 6 -62 15.5t-43.5 31t-26.5 51.5t-1 84q-80 -93 -130.5 -129t-75 -42t-56.5 -9q-31 3 -58.5 19.5t-43 49.5t-15.5 74zM224 1063q7 54 81.5 74t153 85 t125.5 148q-36 70 -18.5 121.5t47.5 77.5t69 30q49 -7 70.5 -43t8 -83.5t-77.5 -96.5q17 -50 51 -83.5t113.5 -67t109.5 -72t31 -90.5q-5 -45 -70 -56q-17 -2 -43 9.5t-30 37.5t-20.5 51.5t-99 70.5t-105.5 96q-29 -69 -77.5 -123.5t-122 -100.5t-121.5 -48q-32 0 -51 14.5 t-24 48.5z" />
<glyph unicode="&#xfc;" horiz-adv-x="839" d="M-57 139q0 42 26.5 132.5t121.5 282.5t124 256t65.5 64t56.5 -27.5t-2 -83.5t-88 -175t-111.5 -225.5t-48.5 -153.5t21 -66.5t55 -14t67 32t65.5 65t58.5 92t79.5 159t103 210.5t76 138.5t41 41t46.5 8.5q32 -3 36 -18t-1.5 -45t-54.5 -118t-122.5 -247t-88 -214 t-1.5 -84t44 -36t65.5 8t73 44.5t52.5 47t29.5 17.5t21.5 -17q-9 -32 -46 -74.5t-74.5 -73t-81.5 -48.5t-97 -23q-38 6 -62 15.5t-43.5 31t-26.5 51.5t-1 84q-80 -93 -130.5 -129t-75 -42t-56.5 -9q-31 3 -58.5 19.5t-43 49.5t-15.5 74zM317 1098q0 35 29 52q41 24 97 24 q48 -9 54 -64q-3 -67 -29 -90q-24 -20 -66 -20h-11q-51 3 -69 65q-5 18 -5 33zM604 1065.5q-18 61.5 23.5 85.5t97.5 24q48 -9 54 -64q-3 -67 -29 -90q-24 -20 -66 -20h-11q-51 3 -69 64.5z" />
<glyph unicode="&#xfd;" horiz-adv-x="903" d="M0 -777q0 134 74.5 254t179.5 177t157 39.5t-45 -65t-165.5 -130.5t-87 -200t45 -266t248 -259.5t495 -130.5t624 35t664.5 219.5t660.5 452.5t406.5 472t122.5 417t-12.5 344.5t-128.5 164.5t-178.5 23.5t-118.5 -82.5t-63.5 -8t48 127.5t221 82.5q178 0 274 -160 q85 107 181.5 127t242.5 -36q91 43 140.5 51t97 -9.5t48.5 -73.5q-9 -40 -85.5 -37.5t-125 -57.5t-127.5 -246t-298 -509t-457.5 -574t-597 -462t-674.5 -300t-706 -89q-333 0 -496.5 53t-296 149t-200 227t-67.5 280zM3448 1047q20 34 120.5 104t144.5 119t66 94t68 49 q37 -1 58.5 -17t35 -38t14.5 -53q-3 -36 -34 -56.5t-83.5 -40.5t-171.5 -105t-140 -94q-19 -9 -42 -9h-5q-29 4 -31 47zM3467 94q219 372 274.5 495t-54 155.5t-199.5 -132.5q64 -175 -21 -518z" />
<glyph unicode="&#xff;" horiz-adv-x="995" d="M-3035 -777q0 134 74.5 254t179.5 177t157 39.5t-45 -65t-165.5 -130.5t-87 -200t45 -266t248 -259.5t495 -130.5t624 35t664.5 219.5t660.5 452.5t406.5 472t122.5 417t-12.5 344.5t-128.5 164.5t-178.5 23.5t-118.5 -82.5t-63.5 -8t48 127.5t221 82.5q178 0 274 -160 q85 107 181.5 127t242.5 -36q91 43 140.5 51t97 -9.5t48.5 -73.5q-9 -40 -85.5 -37.5t-125 -57.5t-127.5 -246t-298 -509t-457.5 -574t-597 -462t-674.5 -300t-706 -89q-333 0 -496.5 53t-296 149t-200 227t-67.5 280zM337 1098q0 35 29 52q41 24 97 24q48 -9 54 -64 q-3 -67 -29 -90q-24 -20 -66 -20h-11q-51 3 -69 65q-5 18 -5 33zM432 94q219 372 274.5 495t-54 155.5t-199.5 -132.5q64 -175 -21 -518zM624 1065.5q-18 61.5 23.5 85.5t97.5 24q48 -9 54 -64q-3 -67 -29 -90q-24 -20 -66 -20h-11q-51 3 -69 64.5z" />
<glyph unicode="&#x152;" horiz-adv-x="3290" d="M360 619q2 200 73.5 414t181.5 444t325 491t436 411.5t385 203.5t313 49q128 -4 234.5 -63.5t182 -158t100.5 -161.5q197 110 380 144t288 7.5t159.5 -104.5t44 -193.5t-93.5 -187t-194.5 -70.5t-103.5 39t83 37.5t145.5 51t66 169.5t-129.5 163t-331 -30.5t-278 -120.5 q35 -166 26.5 -305t-35 -269.5t-103.5 -347.5l-13 -26q51 -17 248 -7t484.5 105t469.5 273.5t289.5 352t127 341t-26.5 242.5t-133 94.5t-146 2.5t-97 -57t-55 -79.5t-2 -48t22.5 11.5t43 46.5t87.5 20t75 -35t29 -76t-24.5 -99t-87 -67t-116.5 0t-98 85.5t-14.5 142t64 124 t103.5 86.5t169 34.5q89 0 147 -40t104.5 -108.5t52.5 -215.5q-5 -154 -73.5 -312t-223 -349t-396 -342t-572.5 -206.5t-495 -28.5q-34 -88 -160 -301.5t-303 -417.5t-263 -266l7 -10q122 -146 322.5 -195t373.5 -8t311 146.5t177.5 291t-29 283t-157.5 128.5t-175.5 6.5 t-114 -96t17 -122t23 -73.5t-76 11.5t-63 117t47 154t156.5 98t225.5 -12t206 -154t62 -312.5t-152 -349.5t-326.5 -217t-332 -64.5q-147 0 -276.5 40.5t-226.5 113t-126 123.5l-40 -32q-225 -154 -363 -191t-273 -32q-209 29 -334.5 150t-180.5 304.5t-55 408.5zM527.5 602 q-0.5 -232 54 -397.5t164.5 -241.5t253.5 -86t295.5 59t257 169q-68 170 -73 371q8 200 53.5 354t132 342.5t230.5 405t315 381.5t274 228q-12 48 -82 151t-160 151.5t-231.5 48t-337.5 -100t-408.5 -312t-382 -490.5t-262 -539.5t-93 -493.5zM1622.5 548.5 q0.5 -225.5 57.5 -348.5q102 84 275.5 318.5t261 395.5t105.5 216q-166 31 -256.5 128.5t-81.5 217.5l-1 46q-145 -210 -253 -479t-107.5 -494.5zM2107 1567q-10 -61 5.5 -121t54 -101t73 -60.5t125.5 -47.5q66 129 105.5 270.5t54 328t-7.5 254.5q-13 -7 -89.5 -70.5 t-147 -143.5t-117 -164t-56.5 -145z" />
<glyph unicode="&#x153;" horiz-adv-x="1088" d="M-58 187q4 181 101 307.5t187.5 201t147.5 126.5t119 58q56 -2 90.5 -32t48.5 -114q169 143 270 145q86 0 127 -29t41 -83q0 -80 -76.5 -170.5t-197.5 -164t-210 -116t-96 -108t47 -85t142 11.5t165.5 76t105 73t47 8.5t-6.5 -56.5t-103 -100t-170 -100.5t-215 -37.5 q-150 0 -146 127q-108 -122 -223 -125q-185 5 -195 187zM87.5 330.5q-46.5 -109.5 18.5 -160t125 -17.5q60 34 121.5 123t117.5 212t34.5 188.5t-101 17.5t-174.5 -151t-141.5 -212.5zM557 413q182 83 290 171t93 137t-59.5 41.5t-114.5 -61.5t-119.5 -118.5t-89.5 -169.5z " />
<glyph unicode="&#x178;" horiz-adv-x="3102" d="M238 -622q0 126 76.5 213.5t214 115t366 -31t650.5 -334.5q173 113 266.5 217.5t171 241t107.5 231.5q-185 56 -254 225t-48.5 338.5t90 375t178 414t260.5 468.5q-77 143 -194.5 300.5t-248.5 241t-336 107t-371.5 -27t-267 -177.5t-133.5 -290t29.5 -350t225.5 -322.5 t499 -141.5q43 -49 -33 -85q-194 10 -338 56t-252.5 141t-174.5 247.5t-71.5 302t45 300.5t149.5 251.5t264 162.5t371 52.5t372.5 -78t322 -226t242.5 -314.5q65 110 150.5 229.5t191 238.5t188.5 143q82 -3 61 -73q-56 -54 -56 -101.5t21.5 -103t71.5 -107.5t110 -67 q192 200 366.5 303.5t352 163.5t347.5 60q334 0 334 -207q0 -116 -106 -216t-256 -172.5t-414 -117t-604 -5.5q-78 -85 -191 -245.5t-223 -385.5q90 -239 127 -372.5t39 -263.5t-26 -252.5t-99 -223.5t-201.5 -161.5t-393.5 -59.5q-88 -239 -239 -435t-305 -302 q99 -87 200 -160.5t201 -93t201.5 24.5t137.5 142t7 173.5t-110 101t-191 -108.5q-89 12 -44.5 78t137.5 110.5t204.5 -31.5t116 -214.5t-41.5 -219t-138.5 -131t-215.5 -50.5q-131 0 -249 59t-338 221q-146 -98 -275 -136t-269.5 -53t-293 1.5t-246 70t-155.5 127 t-62 198.5zM348.5 -618q7.5 -91 88 -169.5t203.5 -99.5t266 -17t285.5 46t232.5 111q-57 55 -260 180.5t-334 157t-259.5 17.5t-179 -74.5t-43 -151.5zM1914 489.5q13 -273.5 216 -328.5q43 138 131.5 370.5t329.5 744.5q-64 150 -109.5 255t-102.5 213q-238 -381 -358 -681 t-107 -573.5zM2170 2617q0 35 29 52q41 24 97 24q48 -9 54 -64q-3 -67 -29 -90q-24 -20 -66 -20h-11q-51 3 -69 65q-5 18 -5 33zM2244 133q253 0 357.5 95t139 260.5t11.5 324.5t-103 350q-162 -369 -240.5 -577t-164.5 -453zM2457 2584.5q-18 61.5 23.5 85.5t97.5 24 q48 -9 54 -64q-3 -67 -29 -90q-24 -20 -66 -20h-11q-51 3 -69 64.5zM2498 1920q66 -148 106.5 -233.5t96.5 -227.5q52 124 125 240t227 312q-100 31 -173 121.5t-79 216.5q-72 -83 -149.5 -188.5t-153.5 -240.5zM3276 2125q177 -26 429.5 -15.5t404.5 69.5t238 138 t78.5 158.5t-98 101.5t-238.5 4.5t-355 -115.5t-459 -341z" />
<glyph unicode="&#x2c6;" horiz-adv-x="1246" d="M243 1063q7 54 81.5 74t153 85t125.5 148q-36 70 -18.5 121.5t47.5 77.5t69 30q49 -7 70.5 -43t8 -83.5t-77.5 -96.5q17 -50 51 -83.5t113.5 -67t109.5 -72t31 -90.5q-5 -45 -70 -56q-17 -2 -43 9.5t-30 37.5t-20.5 51.5t-99 70.5t-105.5 96q-29 -69 -77.5 -123.5 t-122 -100.5t-121.5 -48q-32 0 -51 14.5t-24 48.5z" />
<glyph unicode="&#x2dc;" horiz-adv-x="1413" d="M234 1153q0 48 25.5 81.5t65.5 56t107 24.5q70 -2 123 -23t99.5 -66.5t92 -94t92.5 -48t74.5 28t22.5 58t-25 41.5t-47 0.5t-44 21t-4 60.5t70 29q59 0 103.5 -37t44.5 -114q0 -83 -56 -127t-147 -45q-104 3 -165 28.5t-100.5 68t-69.5 82t-61 52t-60.5 0t-39 -49.5 t11.5 -45.5t36.5 -32t8.5 -52.5t-25.5 -39.5t-44.5 -10.5q-44 0 -66 30.5t-22 122.5z" />
<glyph unicode="&#x2000;" horiz-adv-x="1358" />
<glyph unicode="&#x2001;" horiz-adv-x="2717" />
<glyph unicode="&#x2002;" horiz-adv-x="1358" />
<glyph unicode="&#x2003;" horiz-adv-x="2717" />
<glyph unicode="&#x2004;" horiz-adv-x="905" />
<glyph unicode="&#x2005;" horiz-adv-x="679" />
<glyph unicode="&#x2006;" horiz-adv-x="452" />
<glyph unicode="&#x2007;" horiz-adv-x="452" />
<glyph unicode="&#x2008;" horiz-adv-x="339" />
<glyph unicode="&#x2009;" horiz-adv-x="543" />
<glyph unicode="&#x200a;" horiz-adv-x="150" />
<glyph unicode="&#x2010;" horiz-adv-x="1540" d="M276 649q1 21 16.5 32t79.5 2t161.5 1.5t236.5 39t234 28.5l45 -1q109 -8 202 -35q86 -31 128 -69q20 -21 20 -35q0 -12 -17 -17q-41 -12 -82 1.5t-110 16.5t-146.5 -11t-172.5 -37.5t-146.5 -24.5t-54.5 -1q-118 0 -214.5 24.5t-137.5 44t-42 41.5z" />
<glyph unicode="&#x2011;" horiz-adv-x="1540" d="M276 649q1 21 16.5 32t79.5 2t161.5 1.5t236.5 39t234 28.5l45 -1q109 -8 202 -35q86 -31 128 -69q20 -21 20 -35q0 -12 -17 -17q-41 -12 -82 1.5t-110 16.5t-146.5 -11t-172.5 -37.5t-146.5 -24.5t-54.5 -1q-118 0 -214.5 24.5t-137.5 44t-42 41.5z" />
<glyph unicode="&#x2012;" horiz-adv-x="1540" d="M276 649q1 21 16.5 32t79.5 2t161.5 1.5t236.5 39t234 28.5l45 -1q109 -8 202 -35q86 -31 128 -69q20 -21 20 -35q0 -12 -17 -17q-41 -12 -82 1.5t-110 16.5t-146.5 -11t-172.5 -37.5t-146.5 -24.5t-54.5 -1q-118 0 -214.5 24.5t-137.5 44t-42 41.5z" />
<glyph unicode="&#x2013;" horiz-adv-x="1540" d="M276 649q1 21 16.5 32t79.5 2t161.5 1.5t236.5 39t234 28.5l45 -1q109 -8 202 -35q86 -31 128 -69q20 -21 20 -35q0 -12 -17 -17q-41 -12 -82 1.5t-110 16.5t-146.5 -11t-172.5 -37.5t-146.5 -24.5t-54.5 -1q-118 0 -214.5 24.5t-137.5 44t-42 41.5z" />
<glyph unicode="&#x2014;" horiz-adv-x="2063" d="M278 649q2 21 22.5 32t105.5 2t215 1.5t315.5 39t310.5 28.5l61 -1q145 -8 269 -35q115 -31 170 -69q27 -21 27 -35q0 -12 -23 -17q-54 -12 -108.5 1.5t-147 16.5t-195.5 -11t-229.5 -37.5t-195 -24.5t-72.5 -1q-158 0 -286 24.5t-182.5 44t-56.5 41.5z" />
<glyph unicode="&#x2018;" horiz-adv-x="698" d="M113 1645q0 21 3 44q22 103 72.5 177t118.5 112q57 31 104 31q10 0 20 -1q54 -8 54 -53q0 -4 -1 -9q-10 -54 -56 -39.5t-104 -24.5t-89 -150q59 9 88.5 -24t29 -85t-34.5 -88q-31 -33 -77 -33h-11q-69 10 -97 54q-20 33 -20 89z" />
<glyph unicode="&#x2019;" horiz-adv-x="902" d="M366 1555q0 5 1 10q10 54 56 39.5t104 24.5t88 151q-58 -10 -88 23t-29.5 85t34.5 89q30 32 77 32h11q69 -10 96 -54q20 -33 20 -91q0 -20 -2 -42q-22 -103 -72.5 -177t-118.5 -112q-57 -31 -104 -31q-10 0 -20 1q-53 8 -53 52z" />
<glyph unicode="&#x201a;" horiz-adv-x="717" d="M48 -194q0 5 6.5 32.5t51.5 15t103 26.5t88 151q-58 -10 -88 23t-29.5 85t34.5 89q30 32 77 32h11q69 -10 96 -54q20 -33 20 -91q0 -20 -2 -42q-22 -103 -72.5 -177t-118.5 -112q-57 -31 -104 -31q-10 0 -20 1q-53 8 -53 52z" />
<glyph unicode="&#x201c;" horiz-adv-x="1018" d="M164 1645q0 21 3 44q22 103 72.5 177t118.5 112q57 31 104 31q10 0 20 -1q59 -9 53 -62q-10 -54 -56 -39.5t-104 -24.5t-89 -150q59 9 88.5 -24t29 -85t-34.5 -88.5t-88 -32.5q-69 10 -97 54q-20 33 -20 89zM505 1684q22 103 72.5 177t118.5 112q57 31 104 31q10 0 20 -1 q53 -8 53 -52q0 -5 -1 -10q-10 -54 -56 -39.5t-104 -24.5t-88 -151q58 10 88 -23t29.5 -85t-34.5 -89q-30 -32 -77 -32h-11q-69 10 -96 54t-18 133z" />
<glyph unicode="&#x201d;" horiz-adv-x="1410" d="M676 1555q0 5 1 10q10 54 56 39.5t104 24.5t88 151q-58 -10 -88 23t-29.5 85t34.5 89q30 32 77 32h11q69 -10 96 -54t18 -133q-22 -103 -72.5 -177t-118.5 -112q-57 -31 -104 -31q-10 0 -20 1q-53 8 -53 52zM1014 1560q10 54 56 39.5t104 24.5t89 150q-59 -9 -88.5 24 t-29 85t34.5 88.5t88 32.5q69 -10 97 -54q20 -33 20 -89q0 -21 -3 -44q-22 -103 -72.5 -177t-118.5 -112q-57 -31 -104 -31q-10 0 -20 1q-59 9 -53 62z" />
<glyph unicode="&#x201e;" horiz-adv-x="1029" d="M65 -194q0 5 6.5 32.5t51.5 15t103 26.5t88 151q-58 -10 -88 23t-29.5 85t34.5 89q30 32 77 32h11q69 -10 96 -54t18 -133q-22 -103 -72.5 -177t-118.5 -112q-57 -31 -104 -31q-10 0 -20 1q-53 8 -53 52zM412 -187q10 54 56 39.5t104 24.5t89 150q-59 -9 -88.5 24t-29 85 t36.5 85.5t82 37.5l17 -1q53 -6 84 -55q20 -33 20 -89q0 -21 -3 -44q-22 -103 -72.5 -177t-118.5 -112q-57 -31 -104 -31q-10 0 -20 1q-59 9 -53 62z" />
<glyph unicode="&#x2022;" horiz-adv-x="1153" d="M376 638q3 109 46 187.5t135.5 152t222.5 76.5q85 -16 93 -147q0 -46 -53 -148t-136 -166.5t-166 -66.5q-135 3 -142 112z" />
<glyph unicode="&#x2026;" horiz-adv-x="2460" d="M395 131q0 118 123 118q120 0 126 -116q-6 -131 -121 -131q-128 0 -128 129zM995 131q0 118 123 118q120 0 126 -116q-6 -131 -121 -131q-128 0 -128 129zM1595 131q0 118 123 118q120 0 126 -116q-6 -131 -121 -131q-128 0 -128 129z" />
<glyph unicode="&#x202f;" horiz-adv-x="543" />
<glyph unicode="&#x2039;" horiz-adv-x="1100" d="M235 652q128 71 202 128t116.5 143.5t87 118.5t112.5 36q88 -12 96 -72q-1 -51 -27.5 -70t-62.5 -4t-71 -17.5t-81 -125t-166 -124.5q65 -4 122.5 -37.5t93.5 -90.5t70.5 -88t83 -23t53.5 -56q-7 -47 -34 -70q-22 -18 -60 -18q-9 0 -20 1q-78 1 -159.5 120t-175 130.5 t-133 48.5t-47.5 70z" />
<glyph unicode="&#x203a;" horiz-adv-x="1100" d="M235 990q7 47 34 70q22 18 60 18q9 0 20 -1q78 -1 159.5 -120t175 -130t133 -48t47.5 -70q-128 -71 -202.5 -128t-117 -144t-87 -119t-112.5 -36q-88 12 -96 72q1 51 27.5 70t62.5 4t71 17.5t81 125.5t167 125q-65 4 -122.5 37t-93.5 90t-70.5 88t-83 23t-53.5 56z" />
<glyph unicode="&#x205f;" horiz-adv-x="679" />
<glyph unicode="&#x20ac;" horiz-adv-x="2565" d="M290 1029q73 105 182 133.5t252 -14.5q-40 -91 -75 -161q-91 43 -147.5 41.5t-108 -30.5t-103.5 31zM344 1296q74 105 205 136t318 -14q-53 -80 -93 -155q-91 43 -183 36.5t-143.5 -35.5t-103.5 32zM550 421q2 188 45 353.5t121 345.5t223 397t348 404t403.5 292.5 t362.5 137.5q88 18 159 18q59 0 107 -12q105 -27 160 -105q45 -65 45 -157q0 -18 -1 -36q-11 -116 -94 -187.5t-194.5 -70.5t-103.5 39t83 37.5t145.5 51t66 169.5t-129.5 163t-331 -30.5t-380 -197t-260 -224t-282 -331.5q-145 -210 -253 -479t-103 -533.5t119.5 -409.5 t315 -194t387.5 -10.5t313.5 147t163.5 280t-26 287t-155 142.5t-190.5 2.5t-133 -113t25.5 -111.5t50 -60t-86 -13t-83 117.5t54 173.5t174 103.5t240.5 -19t202 -157t62 -311t-161.5 -360.5t-337.5 -217.5t-326.5 -53.5q-147 0 -276.5 40.5t-236 125.5t-167 222t-65.5 344 zM791 955q8 76 69 156q226 -58 377.5 -52t236.5 35t171 -31q-121 -105 -313 -131t-541 23zM908 1225q28 72 72 142q162 -33 313.5 -26.5t236.5 35.5t171 -31q-122 -106 -313.5 -132t-479.5 12z" />
<glyph unicode="&#x2122;" horiz-adv-x="4797" d="M170 1089q0 131 57.5 317t201.5 387.5t364 383.5t452.5 278.5t421.5 104.5h37q170 0 333 -61q180 -69 299 -75t222 20t127 81q18 41 41 41q8 0 16 -4q-11 -95 -77.5 -141t-175 -60t-210.5 -3t-154.5 24.5t-147.5 -12t-192.5 -125.5t-191 -300t-155 -348.5t-106.5 -254 t-93.5 -179.5t-126.5 -134.5t-151.5 -89t-147.5 -21.5t-113 54t-36 111t29 102.5t68.5 62.5t85.5 22t64.5 -25.5t28.5 -54t-8 -61.5t-40.5 -45t-60.5 -7.5t-48.5 34t-21 33.5t-22.5 -7.5t-17.5 -64t49.5 -77.5t126 -7.5t137 62t124.5 124t108.5 184t95.5 223t84.5 204.5 t94.5 199.5t117 201t116 135.5t104 74.5t82 38t-87.5 41t-249.5 15.5t-302 -80.5t-349.5 -190.5t-335 -310.5t-244.5 -366t-106 -339.5t14 -309t125 -234.5t239.5 -119.5t284 -10.5t248.5 76.5t157.5 90q36 -15 91 -25q-103 -77 -196 -123.5t-194.5 -79.5t-246.5 -33 q-154 0 -286.5 46t-216.5 151t-110 219.5t-26 237.5zM1180 931q4 54 25.5 97.5t71.5 78.5t108.5 46t107.5 1.5t73.5 -49t16.5 -76t-32.5 -60.5t-57.5 -31t-69 5t-49 48.5t-3 64.5t33 33t33 12.5t-13 13t-75 -20t-76.5 -54.5t-33 -84t32 -110t109.5 -84t135.5 -37t167.5 2 t200.5 40t272.5 110.5t329 210.5t303 306t255.5 319.5t211.5 246.5t199 187t184 146.5t177 98.5t149.5 52.5t83.5 18t-23 17.5t-138 19t-222.5 -2t-300.5 -30t-334 -75.5t-335.5 -143t-303 -204t-235.5 -237t-153 -244.5t-56 -230.5t76.5 -169t182.5 -39.5t175.5 67.5 t144.5 121.5t101.5 140.5t49.5 117t40.5 43.5t-11.5 -119.5t-118.5 -217.5t-187 -158.5t-193 -67.5t-163.5 10.5t-132.5 72t-77.5 146.5t10.5 222t143.5 271.5t237 253t278 195.5t329 156t361 105t333 50.5t292 12.5q173 -2 231 -24.5t66 -54.5t-15 -45t-66 -14.5 t-141 -42.5t-212.5 -130t-236.5 -244.5t-229.5 -321t-190.5 -312t-110 -191t-44.5 -84t-7 -57t63 39.5t142 168.5t180 245t200 260.5t216.5 240t227 210t236.5 166.5t214.5 108t180.5 54t85.5 -9.5q-6 -22 -53.5 -33t-138.5 -40t-195 -90.5t-200.5 -164.5t-195.5 -252.5 t-183.5 -318t-148 -299t-117.5 -218t-118 -145.5t-54 -73t84 0t169 52t185 91.5t148 105.5t72 28t-65.5 -95.5t-180.5 -127t-217.5 -89.5t-196.5 -30.5t-164 -3.5t-57 58q81 6 134.5 34t128 124t171 289.5t184.5 355.5t153.5 261t89.5 130t-7.5 11t-132 -130t-195 -219.5 t-192.5 -244.5t-216.5 -288t-178 -200.5t-95 -41t-39.5 62.5t52.5 157.5t151 257t174.5 284.5t128.5 187.5t78 100t10 27t-80 -86t-141 -165.5t-156 -197t-178.5 -228.5t-269 -273t-395.5 -255.5t-357 -128t-247.5 -25q-108 6 -158.5 20t-104 48.5t-81 85t-34.5 115.5z M1412 752q115 84 166 128.5t66.5 27t-33 -71.5t-112.5 -107q-56 10 -87 23z" />
<glyph unicode="&#x25fc;" horiz-adv-x="870" d="M0 0v870h870v-870h-870z" />
</font>
</defs>
</svg>
